<?xml version="1.0" standalone="no"?>
<!DOCTYPE svg PUBLIC "-//W3C//DTD SVG 20010904//EN"
 "http://www.w3.org/TR/2001/REC-SVG-20010904/DTD/svg10.dtd">
<svg version="1.0" xmlns="http://www.w3.org/2000/svg"
 width="735.000000pt" height="735.000000pt" viewBox="0 0 735.000000 735.000000"
 preserveAspectRatio="xMidYMid meet">
<metadata>
Created by potrace 1.14, written by Peter Selinger 2001-2017
</metadata>
<g transform="translate(0.000000,735.000000) scale(0.100000,-0.100000)"
fill="#000000" stroke="none">
<path d="M4636 7339 c-15 -9 -16 -13 -5 -20 12 -8 12 -11 -1 -19 -11 -7 -17
-4 -22 10 -5 13 -13 18 -23 13 -13 -5 -14 -7 -3 -14 7 -5 9 -9 3 -9 -5 0 -4
-4 3 -8 14 -9 6 -42 -9 -42 -6 0 -6 -8 0 -19 6 -10 7 -21 3 -25 -3 -4 1 -4 11
0 15 5 15 9 5 23 -9 11 -7 11 9 -2 22 -20 49 -15 36 6 -4 7 2 5 12 -3 17 -14
18 -13 12 2 -3 10 -2 20 4 24 6 3 13 -4 16 -15 4 -14 9 -18 17 -12 6 4 20 7
31 5 11 -1 22 2 26 7 10 17 -14 59 -38 65 -13 4 -20 10 -17 15 3 5 0 9 -6 9
-6 0 -10 -6 -9 -12 3 -24 -1 -38 -11 -38 -5 0 -10 7 -10 15 0 9 -7 18 -15 21
-12 5 -13 10 -4 20 14 17 10 17 -15 3z"/>
<path d="M4840 7339 c0 -5 -5 -7 -12 -3 -8 5 -9 0 -6 -14 4 -12 2 -22 -3 -22
-5 0 -9 6 -9 14 0 17 -27 29 -35 16 -4 -6 -3 -15 1 -22 4 -7 3 -8 -4 -4 -13 8
-16 -6 -4 -18 4 -4 7 -12 7 -17 0 -5 2 -9 5 -10 12 -1 46 16 58 30 12 14 13
13 9 -7 -7 -30 20 -45 49 -25 12 8 28 13 36 12 29 -4 40 1 34 17 -4 10 -2 13
6 8 8 -5 9 -2 5 10 -4 9 -3 15 2 12 5 -3 11 -15 14 -26 3 -11 1 -18 -4 -14
-17 10 -9 -11 10 -28 14 -12 39 -16 96 -16 63 0 79 -3 90 -18 8 -11 15 -15 15
-10 0 5 8 2 18 -6 9 -9 28 -15 42 -14 14 1 34 -4 45 -11 11 -7 30 -13 43 -13
12 0 25 -6 28 -14 3 -8 12 -12 19 -10 8 3 22 -4 32 -15 9 -12 25 -21 35 -21
10 0 18 -5 18 -11 0 -6 6 -9 13 -6 6 2 20 0 30 -5 29 -15 61 -18 67 -7 4 5 17
11 28 12 29 2 28 11 -4 32 -17 11 -24 22 -20 33 5 13 3 12 -9 -2 -14 -18 -20
-12 -17 15 1 4 -9 9 -22 11 -17 3 -23 1 -19 -8 2 -6 0 -15 -6 -19 -10 -6 -15
9 -14 42 0 6 -6 9 -13 6 -8 -3 -25 2 -39 11 -14 9 -25 12 -25 6 0 -5 5 -10 12
-10 9 0 9 -3 -1 -12 -10 -11 -19 -6 -47 24 -19 21 -34 35 -34 33 0 -3 -13 1
-29 10 -19 9 -31 11 -33 4 -2 -6 -16 -1 -32 12 -23 18 -30 20 -37 8 -7 -11 -9
-11 -9 3 0 11 -6 15 -20 11 -11 -3 -20 -1 -20 4 0 6 -11 9 -25 8 -13 -2 -30 3
-36 11 -10 12 -14 12 -21 2 -6 -10 -13 -8 -27 9 l-19 23 -15 -23 c-13 -18 -16
-19 -16 -5 -1 21 -41 35 -51 18 -5 -8 -13 -9 -21 -4 -23 15 -53 10 -73 -11
-18 -20 -18 -20 -12 3 6 16 3 22 -8 22 -9 0 -16 -5 -16 -11z"/>
<path d="M4513 7328 c-5 -7 -8 -23 -7 -35 1 -13 -3 -20 -11 -17 -16 7 -28 -25
-15 -41 5 -6 9 -14 7 -16 -1 -2 3 2 9 9 9 10 13 9 18 -5 6 -14 11 -12 36 15
26 29 32 62 10 62 -5 0 -7 9 -5 20 2 11 0 20 -6 20 -5 0 -9 -7 -9 -15 0 -8 -8
-15 -17 -15 -15 0 -16 2 -3 10 8 5 12 12 9 15 -4 3 -10 0 -16 -7z m47 -58 c0
-5 -2 -10 -4 -10 -3 0 -8 5 -11 10 -3 6 -1 10 4 10 6 0 11 -4 11 -10z"/>
<path d="M4414 7285 c-12 -29 -42 -37 -70 -18 l-27 17 14 -24 c8 -14 16 -27
19 -30 3 -3 11 -16 18 -30 7 -14 10 -17 8 -8 -4 12 -1 15 10 11 7 -3 14 -13
14 -22 0 -9 3 -12 8 -6 4 6 19 16 35 22 31 14 37 43 8 43 -11 0 -23 5 -26 10
-3 6 -2 10 4 10 6 0 7 7 4 17 -4 11 -3 14 5 9 7 -4 12 -2 12 3 0 17 -30 13
-36 -4z m-6 -53 c2 -7 -3 -12 -12 -12 -9 0 -16 7 -16 16 0 17 22 14 28 -4z"/>
<path d="M4385 7280 c3 -5 8 -10 11 -10 2 0 4 5 4 10 0 6 -5 10 -11 10 -5 0
-7 -4 -4 -10z"/>
<path d="M4309 7246 c9 -11 7 -15 -8 -19 -14 -3 -17 -11 -14 -31 6 -30 29 -30
26 0 -2 16 -1 15 9 -3 6 -13 14 -23 18 -23 16 0 19 30 5 44 -8 8 -15 22 -15
30 0 9 -7 16 -16 16 -13 0 -14 -3 -5 -14z"/>
<path d="M4210 7240 c0 -5 5 -10 11 -10 5 0 7 5 4 10 -3 6 -8 10 -11 10 -2 0
-4 -4 -4 -10z"/>
<path d="M4166 7232 c-4 -7 -4 -12 0 -12 4 0 0 -6 -10 -13 -23 -17 -11 -50 15
-42 15 5 19 1 20 -22 0 -25 1 -26 9 -8 6 14 9 15 10 5 1 -9 5 -5 11 8 11 29 4
43 -19 35 -14 -5 -15 -3 -4 8 16 17 15 29 -2 29 -8 0 -16 5 -18 12 -3 9 -6 9
-12 0z"/>
<path d="M3675 7165 c-17 -41 -13 -55 15 -55 32 0 49 82 18 88 -12 2 -22 -8
-33 -33z"/>
<path d="M3790 7180 c20 -13 50 -13 50 0 0 6 -15 10 -32 10 -25 0 -29 -3 -18
-10z"/>
<path d="M3857 7176 c-7 -19 4 -27 21 -17 10 6 10 10 -1 20 -12 9 -16 8 -20
-3z"/>
<path d="M3997 7184 c-3 -3 -3 -12 0 -20 3 -8 0 -14 -7 -14 -6 0 -9 4 -5 9 3
5 1 12 -5 16 -5 3 -10 -3 -10 -15 0 -12 -4 -19 -9 -16 -5 4 -12 0 -15 -6 -3
-8 -5 -7 -3 2 2 16 -3 20 -24 20 -8 0 -8 -4 1 -15 16 -19 3 -38 -22 -32 -14 4
-18 2 -14 -9 3 -9 -1 -14 -14 -14 -11 0 -20 4 -20 9 0 10 -61 34 -68 26 -3 -2
3 -7 12 -11 9 -3 14 -10 11 -15 -3 -4 -12 -6 -20 -2 -8 3 -15 0 -15 -6 0 -6
-7 -8 -15 -4 -10 3 -15 0 -13 -8 2 -8 -3 -12 -12 -10 -36 10 -74 12 -63 4 8
-5 9 -14 3 -23 -8 -12 -10 -12 -15 2 -4 10 -15 15 -26 13 -10 -2 -25 3 -33 10
-12 13 -15 12 -21 -3 -6 -16 -8 -16 -21 2 -8 11 -14 15 -14 10 0 -6 -21 -12
-47 -13 -26 -1 -49 -3 -51 -6 -2 -2 -15 0 -28 5 -14 6 -26 6 -29 0 -4 -6 1
-13 10 -16 10 -4 13 -13 10 -25 -4 -13 -1 -19 9 -19 9 0 16 8 16 19 0 15 6 19
25 17 24 -3 36 -20 15 -22 -5 -1 -14 -2 -20 -3 -5 0 -7 -7 -4 -14 4 -11 -8
-14 -50 -13 -30 1 -52 -2 -50 -6 3 -5 1 -8 -5 -8 -5 0 -11 5 -13 12 -2 6 -10
8 -16 4 -15 -9 -16 -36 -2 -36 6 0 10 -7 10 -16 0 -8 -4 -12 -10 -9 -5 3 -10
1 -10 -4 0 -6 4 -11 8 -11 4 0 8 -9 9 -19 2 -18 0 -17 -20 3 -12 11 -18 24
-14 27 5 4 4 9 -2 13 -6 4 -13 -4 -17 -19 -3 -14 -13 -25 -23 -25 -14 0 -14
-2 -1 -10 12 -7 12 -12 3 -21 -10 -10 -17 -7 -32 12 -11 14 -15 26 -9 30 5 4
2 9 -7 13 -23 8 -25 8 -25 -8 0 -8 -7 -17 -16 -20 -9 -3 -12 -11 -8 -18 5 -7
-5 -2 -21 10 -17 14 -31 19 -33 13 -2 -6 -11 -11 -19 -11 -11 0 -14 -7 -11
-24 4 -21 1 -25 -29 -28 -22 -3 -33 0 -33 9 0 7 7 10 15 7 15 -6 22 16 9 29
-12 11 -44 -13 -44 -33 0 -21 -20 -29 -65 -27 -16 1 -45 -6 -63 -16 -18 -9
-45 -19 -61 -20 -15 -2 -33 -7 -41 -12 -8 -5 -26 -8 -38 -6 -13 1 -36 -2 -50
-7 -15 -6 -36 -14 -47 -18 -11 -4 -23 -8 -27 -8 -3 -1 -10 -4 -14 -8 -4 -5
-16 -8 -26 -8 -10 0 -18 -5 -18 -11 0 -6 -7 -9 -15 -5 -8 3 -21 -1 -29 -9 -8
-8 -21 -13 -29 -10 -7 3 -20 -1 -27 -9 -10 -13 -9 -17 5 -22 10 -4 20 -1 25 6
14 23 38 4 32 -26 -5 -25 -6 -26 -13 -9 -4 11 -8 15 -8 8 -1 -6 -10 -15 -21
-18 -11 -3 -20 -12 -20 -19 0 -8 -10 -11 -30 -8 -22 3 -30 1 -28 -9 2 -8 -3
-13 -9 -11 -20 3 -15 -26 5 -31 12 -3 9 -6 -12 -12 -20 -5 -31 -4 -37 6 -7 11
-11 11 -21 1 -10 -10 -10 -15 2 -22 8 -6 10 -10 3 -10 -6 0 -9 -9 -6 -20 4
-14 0 -20 -11 -20 -9 0 -16 -4 -16 -10 0 -5 5 -10 12 -10 8 0 9 -3 2 -10 -17
-17 -54 0 -54 26 0 13 -5 24 -11 24 -6 0 -8 -7 -5 -16 3 -8 2 -12 -4 -9 -14 9
-38 -17 -46 -49 -7 -29 -19 -34 -28 -11 -3 9 0 15 9 15 9 0 12 6 8 16 -5 14
-9 13 -25 -9 -11 -15 -18 -29 -18 -33 1 -4 -4 -11 -12 -16 -9 -7 -7 -8 10 -5
22 5 31 -7 13 -17 -5 -4 -8 -17 -6 -31 1 -16 -3 -25 -12 -25 -11 0 -13 -9 -10
-35 3 -25 1 -35 -9 -35 -20 0 -27 19 -14 35 10 12 9 16 -4 21 -9 3 -13 11 -10
16 4 6 10 5 15 -3 5 -8 9 -9 9 -4 0 20 -16 34 -45 39 -24 5 -26 4 -10 -3 11
-5 15 -10 8 -10 -7 -1 -10 -7 -7 -15 3 -7 -1 -16 -9 -19 -11 -4 -13 0 -10 14
7 24 -18 23 -29 -1 -5 -12 -7 -12 -7 3 -1 9 -6 17 -12 17 -6 0 -9 -6 -6 -14 3
-8 -2 -16 -15 -19 -11 -3 -17 -10 -13 -16 3 -7 0 -8 -9 -5 -10 4 -16 -2 -18
-18 -2 -13 -8 -22 -14 -21 -6 1 -22 -9 -34 -22 -25 -27 -21 -32 11 -14 11 5
17 15 13 22 -5 9 -3 8 6 0 12 -11 11 -15 -3 -25 -13 -10 -15 -19 -8 -43 8 -25
9 -26 10 -7 1 12 7 21 14 20 6 -2 13 4 13 12 1 8 3 20 4 25 1 6 2 18 1 28 -1
9 3 17 8 17 6 0 11 -7 11 -16 0 -8 4 -12 10 -9 5 3 10 1 10 -4 0 -6 -5 -11
-11 -11 -6 0 -9 -7 -5 -15 3 -8 1 -15 -3 -15 -5 0 -7 -9 -4 -20 4 -15 0 -20
-16 -20 -12 0 -21 -6 -21 -15 0 -23 -23 -13 -36 16 -12 26 -59 45 -70 28 -2
-4 -11 -6 -19 -2 -8 3 -15 1 -15 -5 0 -6 6 -13 13 -15 9 -4 9 -6 0 -6 -7 -1
-13 -8 -13 -16 0 -8 -9 -15 -21 -15 -11 0 -17 -4 -14 -10 3 -5 0 -10 -9 -10
-8 0 -16 -6 -19 -12 -3 -10 -7 -10 -20 1 -10 8 -17 9 -17 3 0 -6 5 -14 10 -17
7 -4 8 -11 1 -18 -5 -7 -8 -24 -6 -39 2 -19 -1 -25 -10 -21 -8 2 -11 12 -8 21
4 14 3 15 -5 2 -8 -10 -7 -19 1 -29 10 -12 9 -14 -7 -8 -14 6 -17 4 -12 -9 3
-8 6 -18 6 -20 0 -2 7 -4 15 -4 28 0 10 -26 -33 -49 -20 -11 -21 -15 -10 -28
12 -15 11 -15 -9 -4 -19 9 -21 15 -13 36 7 18 6 25 -3 25 -8 0 -8 3 2 9 7 5
10 14 7 20 -4 6 -3 11 1 11 5 0 9 9 10 20 1 14 -4 20 -18 20 -19 0 -24 -14
-20 -54 1 -17 0 -17 -24 -2 -31 20 -39 20 -31 0 4 -9 2 -13 -5 -8 -7 4 -10 1
-7 -7 3 -8 10 -13 16 -12 19 4 0 -35 -24 -47 -27 -15 -34 -46 -8 -36 10 4 13
2 8 -6 -4 -7 -7 -29 -5 -50 1 -22 -3 -38 -9 -38 -6 0 -9 4 -5 10 3 5 -1 25 -9
44 -8 19 -12 37 -8 40 3 3 -2 6 -11 6 -10 0 -17 -5 -17 -11 0 -7 -10 -21 -22
-32 -17 -14 -18 -18 -6 -14 10 3 20 2 23 -4 4 -5 12 -6 18 -3 9 5 9 4 0 -6 -9
-10 -7 -17 7 -32 17 -18 17 -63 0 -53 -10 6 -40 -22 -40 -36 0 -5 8 -9 18 -9
13 0 14 -2 3 -9 -9 -6 -10 -11 -2 -15 6 -4 11 -2 11 4 0 7 6 10 14 7 16 -6 28
16 21 36 -3 6 -1 26 4 42 9 29 9 29 11 5 1 -14 1 -34 0 -45 -3 -21 -3 -52 -1
-72 0 -7 8 -13 17 -13 8 0 13 -4 10 -9 -4 -5 -14 -8 -24 -6 -9 2 -20 4 -24 4
-4 1 -5 8 -2 16 5 11 -1 15 -19 15 -14 0 -29 -4 -32 -10 -3 -5 -13 -10 -21
-10 -8 0 -12 5 -9 10 4 6 11 7 17 4 6 -4 6 0 -1 13 -6 11 -8 23 -5 26 3 3 -4
11 -17 17 -19 11 -20 14 -7 21 16 9 14 49 -2 49 -4 0 -10 11 -12 25 -3 13 -1
22 3 19 5 -3 9 0 9 5 0 29 -52 2 -57 -29 -2 -12 1 -19 6 -15 5 3 12 1 15 -4 3
-5 -3 -11 -14 -14 -16 -4 -20 -11 -16 -31 3 -14 0 -28 -5 -31 -5 -4 -9 -1 -9
4 0 6 -6 11 -13 11 -7 0 -13 -9 -13 -21 0 -15 5 -19 21 -15 11 3 27 1 35 -4 8
-5 11 -10 5 -10 -5 0 1 -7 15 -15 18 -10 20 -14 8 -15 -9 0 -19 -6 -22 -12 -5
-10 -7 -10 -12 0 -11 24 -24 12 -19 -18 3 -18 1 -30 -5 -30 -6 0 -8 5 -5 10 3
6 -2 10 -12 11 -11 0 -13 3 -5 6 6 2 10 9 7 13 -3 5 5 16 17 24 12 9 17 16 11
16 -14 0 -43 -28 -43 -41 0 -5 -7 -9 -16 -9 -11 0 -14 5 -10 16 4 10 2 14 -6
11 -7 -2 -12 -10 -10 -16 1 -6 -2 -11 -8 -11 -16 0 -12 30 5 36 8 4 13 10 10
15 -3 4 -12 6 -20 2 -9 -3 -15 1 -15 11 0 20 -16 21 -24 0 -3 -8 -2 -12 4 -9
6 3 10 2 10 -4 0 -5 -8 -14 -17 -20 -17 -9 -16 -11 1 -30 11 -12 16 -22 13
-22 -4 -1 -11 -2 -16 -3 -5 0 -13 -4 -17 -9 -4 -4 -16 0 -26 10 -16 14 -18 14
-18 0 0 -8 6 -18 12 -20 8 -3 9 -6 2 -6 -7 -1 -10 -18 -8 -46 3 -43 2 -45 -16
-35 -11 6 -20 15 -20 20 0 5 -7 7 -15 4 -10 -4 -15 0 -15 12 -1 18 -1 18 -12
-1 -6 -11 -18 -25 -26 -31 -20 -15 -3 -47 18 -34 13 8 12 10 -3 10 -10 0 -15
5 -12 10 4 7 13 7 26 0 15 -9 19 -7 19 5 0 8 4 15 10 15 5 0 7 -8 4 -17 -5
-15 -4 -16 5 -3 9 12 11 11 11 -9 0 -18 4 -22 20 -18 11 3 18 1 14 -4 -3 -5
-14 -9 -25 -9 -10 0 -20 -6 -21 -12 0 -7 -2 -17 -2 -23 -1 -5 -5 -16 -10 -23
-4 -7 -5 -16 -2 -19 3 -3 8 2 12 11 8 20 24 21 24 2 0 -8 7 -22 16 -31 15 -15
15 -17 -1 -35 -10 -11 -21 -17 -25 -15 -4 3 -13 -2 -20 -10 -9 -10 -9 -15 -1
-15 23 0 10 -15 -14 -16 -14 -1 -22 2 -19 7 9 15 -13 10 -26 -6 -7 -8 -17 -12
-23 -8 -6 3 -7 1 -3 -6 4 -6 11 -9 16 -6 4 2 10 -6 12 -20 4 -17 1 -25 -8 -25
-20 0 -17 -10 12 -36 28 -27 44 -31 44 -11 0 8 3 8 9 -2 5 -8 15 -11 23 -8 26
9 42 -8 28 -29 -11 -19 -11 -19 -6 0 5 15 2 18 -19 14 -14 -3 -25 -1 -25 3 0
5 -7 6 -15 3 -8 -4 -15 -16 -15 -28 0 -17 2 -18 10 -6 5 8 10 10 10 4 0 -19
-12 -24 -32 -13 -10 5 -17 18 -16 27 4 19 -29 29 -45 13 -8 -8 -5 -11 11 -11
12 0 22 -5 22 -11 0 -6 -7 -9 -15 -6 -8 4 -17 2 -20 -3 -4 -6 -2 -10 3 -10 5
0 12 -9 15 -21 4 -15 2 -18 -7 -10 -7 6 -17 7 -21 3 -5 -4 -5 -1 -1 6 4 6 3
12 -3 12 -5 0 -8 11 -5 25 2 14 0 25 -6 25 -5 0 -9 -3 -9 -7 5 -34 -24 -43
-46 -15 -15 18 -45 4 -45 -20 0 -16 3 -18 14 -9 10 9 17 7 27 -6 9 -11 10 -14
2 -9 -7 4 -13 3 -13 -3 0 -6 -7 -8 -15 -5 -17 7 -19 -4 -5 -26 5 -8 10 -10 10
-4 0 17 31 26 46 13 9 -7 18 -7 33 0 13 7 22 8 26 1 6 -9 -6 -13 -21 -7 -4 1
-11 -9 -16 -22 -6 -19 -11 -22 -20 -13 -17 17 -38 15 -31 -3 3 -9 2 -15 -3
-14 -21 4 -28 -2 -14 -12 13 -9 13 -10 0 -6 -8 2 -14 12 -12 21 2 9 -4 24 -13
33 -11 10 -14 24 -11 39 4 14 2 24 -4 24 -6 0 -8 5 -5 10 3 6 1 10 -4 10 -6 0
-11 -6 -11 -12 0 -9 -3 -8 -10 2 -8 12 -10 12 -16 -3 -3 -10 -4 -21 -1 -24 4
-3 2 -14 -3 -24 -7 -12 -7 -20 0 -24 15 -9 12 -32 -7 -51 -10 -9 -18 -24 -19
-33 -2 -12 1 -11 12 4 13 17 16 18 24 5 6 -9 5 -17 -2 -21 -6 -4 -8 -14 -5
-23 8 -21 -2 -20 -20 1 -14 17 -14 17 -9 1 3 -10 1 -20 -3 -23 -5 -2 -11 5
-15 17 -4 18 -8 20 -17 11 -9 -9 -9 -16 1 -28 10 -12 10 -15 -1 -15 -9 -1 -6
-7 8 -19 12 -10 21 -20 20 -23 -1 -2 6 5 16 15 9 11 17 14 17 9 0 -6 -5 -14
-10 -17 -6 -4 -8 -11 -5 -16 4 -5 -2 -13 -12 -17 -10 -4 -19 -16 -20 -27 -1
-19 -1 -19 11 -2 15 19 31 24 20 5 -5 -8 -1 -7 10 2 16 13 18 12 14 -10 -2
-19 -8 -24 -24 -22 -20 3 -21 -1 -18 -44 2 -25 -1 -54 -6 -63 -10 -20 -2 -64
10 -56 5 3 7 -3 5 -12 -2 -10 -4 -22 -5 -28 -1 -5 -5 1 -9 15 -4 14 -13 24
-19 23 -7 -2 -12 4 -12 12 0 18 -16 20 -23 3 -4 -10 -6 -10 -6 -1 -1 6 4 15 9
18 6 3 10 13 10 20 0 20 -30 7 -31 -14 0 -11 -2 -12 -6 -3 -4 10 -8 10 -19 1
-11 -9 -14 -8 -14 5 0 9 -4 16 -10 16 -16 0 -12 -14 10 -38 11 -12 19 -27 18
-34 -2 -8 7 -12 24 -11 20 1 25 -2 22 -12 -3 -8 -11 -13 -17 -12 -7 1 -11 -8
-10 -20 1 -12 -5 -24 -14 -27 -13 -5 -13 -4 -4 7 9 11 8 17 -4 27 -15 13 -19
8 -16 -23 1 -9 -7 -30 -18 -45 -21 -30 -22 -55 -3 -74 14 -14 23 -7 25 20 1
16 4 18 14 10 10 -8 13 -6 13 6 0 9 4 16 9 16 5 0 8 -8 6 -17 -2 -10 -4 -22
-4 -26 -1 -5 -5 -5 -11 -2 -5 3 -10 2 -10 -4 0 -5 4 -12 9 -16 11 -6 10 -45 0
-45 -19 0 -39 14 -39 26 0 8 -8 14 -17 14 -14 0 -15 -2 -4 -9 8 -6 11 -16 6
-31 -5 -17 -4 -21 6 -15 11 6 11 5 2 -5 -6 -7 -9 -19 -5 -28 4 -12 1 -14 -12
-9 -15 6 -17 3 -13 -13 3 -11 1 -18 -3 -15 -5 3 -22 -9 -39 -26 -27 -27 -34
-29 -48 -18 -14 12 -15 11 -9 -9 5 -15 3 -22 -6 -22 -10 0 -9 -3 2 -10 13 -9
13 -10 0 -11 -8 -1 -19 -1 -23 0 -5 1 -2 -8 7 -21 9 -12 26 -23 38 -25 12 -2
25 -8 29 -14 3 -6 10 2 13 18 l8 28 20 -28 c11 -15 24 -25 29 -21 5 3 9 -9 9
-25 0 -30 13 -41 25 -21 4 6 11 8 16 4 6 -4 6 -10 -1 -19 -14 -16 -96 -14 -93
3 2 7 -2 12 -8 12 -6 0 -9 -7 -5 -15 3 -9 0 -15 -10 -15 -8 0 -17 7 -21 16 -3
8 -12 13 -19 10 -8 -3 -14 -1 -14 4 0 6 5 10 12 10 6 0 8 3 5 6 -12 12 -38
-18 -27 -31 5 -6 7 -15 3 -18 -3 -4 -1 -7 6 -7 7 0 9 -4 6 -10 -4 -6 6 -10 24
-10 24 0 29 -3 24 -17 -5 -12 -8 -13 -11 -4 -5 15 -35 -25 -39 -53 -5 -28 -13
-33 -13 -9 0 23 -26 26 -47 6 -17 -16 -16 -34 3 -61 8 -12 13 -26 10 -31 -3
-5 1 -11 9 -15 8 -3 12 -11 9 -19 -3 -9 4 -13 25 -11 28 2 30 0 27 -27 -2 -16
1 -29 5 -29 5 0 9 8 9 18 0 12 4 10 13 -8 7 -14 21 -26 32 -28 19 -3 19 -2 3
11 -25 20 -23 24 12 25 35 1 49 -16 27 -33 -9 -7 -13 -15 -9 -20 4 -4 -8 -4
-25 0 -21 4 -33 3 -33 -4 0 -6 7 -8 15 -5 10 4 15 0 15 -11 0 -12 -5 -15 -20
-10 -15 5 -20 2 -20 -12 -1 -26 -24 -53 -46 -53 -15 0 -14 3 6 13 15 8 26 22
27 37 1 16 0 18 -3 7 -5 -14 -9 -16 -20 -6 -11 9 -14 8 -14 -9 0 -11 -8 -22
-19 -25 -17 -4 -19 -10 -12 -46 1 -2 7 2 14 8 8 6 17 8 20 5 10 -10 -12 -44
-28 -44 -8 0 -15 -5 -15 -11 0 -5 5 -7 11 -3 7 4 7 -1 -1 -16 -10 -19 -9 -25
5 -39 10 -9 15 -11 11 -5 -11 20 20 23 32 3 7 -10 18 -19 26 -19 8 0 13 -8 11
-17 -2 -10 -4 -22 -4 -26 -1 -5 -6 -5 -12 -2 -6 4 -8 13 -5 21 4 10 0 14 -12
12 -25 -4 -57 -36 -58 -59 -1 -20 -1 -20 20 1 12 11 28 20 36 20 9 0 6 -7 -8
-20 -12 -12 -22 -26 -22 -33 0 -7 3 -8 8 -2 12 16 50 35 72 35 11 0 20 5 20
12 0 8 6 6 17 -5 16 -15 16 -18 -1 -36 -19 -21 -14 -41 9 -41 9 0 12 6 8 15
-3 10 0 15 8 13 13 -3 14 3 2 43 -3 12 3 16 26 17 17 0 29 -4 26 -9 -4 -5 -13
-9 -20 -9 -28 0 -13 -52 17 -65 16 -6 25 -14 22 -18 -4 -4 -14 -1 -22 6 -11 8
-14 8 -9 0 4 -6 0 -19 -10 -28 -16 -16 -17 -16 -24 1 -4 11 -8 15 -8 10 -1 -5
-8 -3 -16 4 -12 10 -15 10 -15 -4 0 -9 -4 -16 -10 -16 -5 0 -10 -4 -10 -10 0
-5 7 -7 15 -4 22 9 18 -9 -5 -24 -12 -7 -18 -17 -15 -22 10 -16 25 -11 19 5
-4 8 -1 15 5 15 6 0 10 -3 10 -7 -4 -22 3 -33 19 -34 13 0 12 -2 -5 -9 -13 -5
-23 -14 -23 -19 0 -6 -9 -15 -19 -21 -17 -8 -20 -7 -18 9 0 11 5 17 9 15 4 -3
8 1 8 9 0 9 -10 15 -25 15 -14 0 -25 -5 -25 -10 0 -5 5 -6 10 -3 6 3 10 -1 10
-10 0 -11 -5 -15 -15 -11 -10 3 -17 -3 -21 -19 -3 -14 -10 -25 -16 -25 -5 0
-7 4 -3 9 3 5 1 12 -5 16 -18 11 -11 -25 9 -47 13 -13 27 -19 41 -15 15 4 23
0 29 -15 5 -13 10 -17 15 -10 3 6 2 13 -4 17 -17 11 -11 22 15 28 17 3 24 0
22 -7 -3 -6 -9 -10 -14 -9 -14 3 -6 -58 9 -72 8 -7 9 -6 3 4 -6 11 -4 13 8 8
11 -4 14 -2 10 9 -4 10 0 12 11 8 9 -3 16 -2 16 4 0 6 9 8 20 5 22 -6 26 -23
9 -40 -14 -14 -20 -71 -8 -79 5 -3 7 -10 3 -15 -4 -6 -13 -4 -25 7 -14 12 -27
15 -56 9 -35 -6 -36 -8 -19 -20 13 -10 17 -21 12 -38 -4 -19 0 -26 19 -35 15
-7 25 -8 25 -2 0 6 -7 10 -15 10 -22 0 -18 37 4 43 10 2 25 1 32 -4 10 -6 11
-9 2 -9 -7 0 -13 -7 -13 -15 0 -9 6 -12 18 -9 16 5 16 5 0 -6 -23 -14 -26 -92
-4 -84 11 4 13 0 9 -15 -3 -12 -9 -21 -13 -21 -4 0 -10 -15 -14 -32 -5 -27 -9
-30 -17 -18 -9 12 -10 11 -6 -7 3 -12 -1 -31 -9 -41 -12 -17 -11 -22 1 -32 8
-7 15 -19 15 -28 0 -19 13 -7 16 16 2 9 8 18 14 20 8 3 7 8 -1 18 -9 11 -9 14
1 14 10 0 10 3 0 15 -16 19 -5 34 12 17 16 -16 36 -15 34 0 -1 15 5 18 33 18
14 0 19 -6 18 -20 -1 -23 -8 -25 -25 -8 -9 9 -12 7 -12 -10 0 -13 -6 -22 -15
-22 -8 0 -15 5 -15 11 0 5 -5 7 -10 4 -10 -6 -9 -18 5 -80 5 -23 4 -26 -4 -15
-14 20 -14 4 1 -23 6 -12 12 -33 13 -46 1 -24 25 -44 25 -22 0 6 5 11 11 11 6
0 9 -9 6 -19 -4 -15 -1 -18 12 -13 14 5 14 4 2 -11 -7 -9 -25 -17 -38 -17 -21
0 -23 -3 -14 -14 9 -11 9 -15 -1 -20 -7 -3 -3 -4 10 -3 12 1 22 6 22 11 -2 10
50 46 65 46 6 -1 2 -7 -9 -15 -10 -8 -15 -19 -10 -26 4 -7 3 -10 -3 -6 -6 4
-21 -3 -34 -15 -20 -18 -21 -20 -4 -13 11 5 37 10 58 11 20 0 45 8 55 16 9 8
24 18 33 21 14 5 15 2 5 -18 -6 -14 -12 -20 -14 -15 -2 6 -8 10 -13 10 -6 0
-7 -4 -4 -10 3 -5 -3 -19 -14 -31 -17 -18 -18 -24 -6 -35 7 -8 18 -14 23 -14
5 0 15 -6 21 -14 9 -11 8 -14 -6 -12 -10 0 -18 -5 -19 -11 -3 -25 -4 -25 -19
-13 -13 11 -14 10 -9 -4 3 -9 13 -16 20 -16 8 0 17 -7 20 -15 5 -12 9 -11 23
7 13 15 23 19 37 14 18 -8 18 -8 1 -15 -22 -8 -23 -17 -3 -37 8 -8 12 -22 9
-31 -6 -14 -8 -14 -16 5 -6 12 -13 22 -17 22 -12 0 -19 -37 -9 -47 4 -4 4 -14
0 -22 -6 -9 -11 -2 -15 23 -4 20 -16 42 -26 49 -11 6 -20 19 -20 27 0 12 -2
13 -9 1 -5 -7 -7 -21 -6 -30 2 -9 4 -24 4 -34 1 -11 10 -21 21 -24 11 -3 20
-11 20 -18 0 -7 8 -15 17 -19 10 -3 24 -9 32 -12 9 -4 11 -2 7 5 -4 6 -2 11 4
11 7 0 10 7 7 14 -4 10 -1 13 8 9 8 -3 12 -10 9 -15 -4 -6 2 -6 14 1 16 8 21
7 26 -6 6 -14 8 -14 21 3 8 10 14 15 14 9 1 -15 -32 -51 -52 -58 -21 -8 -23
-50 -2 -71 20 -19 19 -23 -5 -29 -11 -3 -20 -11 -20 -17 0 -10 3 -10 15 0 12
10 17 8 27 -17 7 -16 19 -28 26 -26 8 3 12 -6 12 -27 0 -31 22 -65 34 -53 6 6
10 -13 6 -32 -1 -5 2 -7 5 -3 4 4 16 3 26 -2 11 -6 20 -6 24 -1 3 5 -3 11 -12
13 -12 2 -14 6 -6 11 6 4 19 0 27 -9 15 -14 16 -14 16 0 0 9 -6 16 -12 16 -9
1 -8 5 3 13 9 7 18 19 22 27 4 12 6 11 6 -2 1 -10 7 -18 14 -18 8 0 7 -4 -3
-10 -13 -8 -12 -10 3 -10 9 0 17 -7 17 -16 0 -9 7 -14 17 -12 14 3 17 15 18
77 0 40 -3 78 -7 84 -6 9 -8 9 -8 0 0 -7 -5 -13 -11 -13 -8 0 -8 5 1 15 15 18
40 20 40 3 0 -10 2 -10 8 -2 5 8 13 4 25 -12 l18 -25 -26 5 c-21 4 -24 2 -16
-8 6 -7 8 -16 5 -19 -10 -10 -12 -77 -2 -83 8 -5 12 16 10 49 -2 19 23 23 34
5 5 -7 3 -8 -6 -3 -10 6 -12 2 -7 -15 3 -13 -1 -32 -9 -45 -9 -14 -11 -26 -5
-29 19 -12 0 -41 -30 -43 -17 -1 -27 2 -24 8 4 5 11 7 16 4 5 -4 9 1 9 9 0 9
-4 16 -10 16 -5 0 -10 -4 -10 -9 0 -4 -32 -7 -70 -6 -67 2 -99 -8 -66 -21 9
-3 16 -12 16 -19 0 -7 8 -19 17 -26 9 -8 14 -9 10 -2 -4 6 -1 13 5 16 9 3 7
11 -7 28 -15 18 -16 20 -2 10 9 -7 17 -10 17 -5 0 4 6 -1 14 -11 8 -11 12 -24
8 -29 -3 -5 2 -7 11 -3 10 3 17 2 17 -3 0 -6 -4 -10 -10 -10 -16 0 -12 -26 7
-41 14 -12 16 -12 8 0 -6 11 -3 13 16 8 20 -5 21 -4 8 6 -9 8 -13 21 -10 35 6
24 23 31 29 13 2 -6 -1 -11 -8 -11 -6 0 -8 -5 -5 -10 4 -6 11 -7 17 -4 6 4 8
-1 4 -12 -3 -11 -1 -26 5 -34 9 -12 10 -11 6 8 -4 17 -1 22 14 22 10 0 19 -5
19 -11 0 -5 -4 -7 -10 -4 -15 9 -12 -7 5 -29 8 -11 13 -29 10 -40 -3 -12 -2
-15 1 -9 7 15 26 0 37 -30 3 -9 16 -17 27 -17 11 0 20 -7 20 -15 0 -8 5 -15
10 -15 15 0 12 -16 -5 -34 -20 -19 -19 -29 4 -50 13 -12 21 -14 26 -6 3 5 11
8 16 5 11 -7 49 3 48 13 -5 33 2 41 31 36 17 -4 30 -2 30 3 0 5 6 10 13 10 8
0 11 -11 9 -34 -4 -29 -8 -33 -33 -33 -16 0 -29 -3 -29 -6 0 -17 36 -64 49
-64 11 0 10 -4 -5 -15 -10 -8 -14 -15 -8 -15 6 0 28 -16 48 -35 21 -19 41 -33
46 -30 4 3 13 -2 20 -10 8 -10 9 -15 2 -15 -6 0 -9 -7 -5 -16 3 -9 13 -14 24
-11 11 3 17 1 14 -3 -3 -5 -1 -11 5 -15 6 -4 7 -11 4 -17 -5 -7 -2 -8 5 -4 7
5 10 15 7 23 -4 9 -1 13 6 10 7 -2 12 -11 10 -20 -1 -8 2 -18 8 -22 6 -4 9 -1
8 6 -2 6 3 14 11 17 8 3 11 0 7 -7 -4 -6 -2 -11 5 -11 7 0 10 -11 7 -30 -5
-30 15 -44 25 -17 3 7 6 5 6 -5 1 -10 6 -18 12 -18 6 0 18 -7 26 -16 13 -12
18 -13 24 -3 4 7 5 17 3 21 -3 5 0 7 8 6 17 -4 41 -80 27 -89 -7 -4 -5 -9 5
-12 9 -4 16 -2 16 3 0 5 8 7 18 4 15 -5 15 -5 0 5 -21 14 -12 51 13 51 11 0
19 -4 19 -10 0 -5 -7 -6 -17 -3 -11 4 -14 3 -9 -6 4 -7 13 -10 19 -8 7 2 20 0
31 -5 23 -13 39 7 31 40 -4 17 -2 23 7 20 7 -3 13 -18 13 -34 0 -16 3 -33 6
-39 5 -9 4 -71 0 -77 -2 -2 -4 -15 -6 -30 -2 -19 1 -28 10 -28 11 0 13 8 8 32
-5 24 -3 29 7 23 8 -5 10 -20 6 -45 -4 -28 -2 -37 9 -37 8 0 15 7 15 16 0 9 5
23 11 31 8 11 9 8 4 -15 -4 -20 0 -37 11 -50 14 -18 15 -18 10 -2 -3 10 -1 27
5 38 8 16 13 18 25 8 14 -12 19 -3 15 29 -1 6 2 12 8 12 5 0 9 -20 9 -45 0
-28 -3 -43 -10 -39 -15 10 -29 -18 -16 -33 6 -7 16 -13 22 -13 6 0 2 7 -8 15
-19 14 -19 15 7 15 15 0 26 -3 25 -7 -3 -8 5 -13 21 -13 5 0 11 14 13 31 4 25
0 33 -21 44 -14 8 -20 14 -13 15 9 0 11 7 7 20 -5 15 -2 20 12 20 19 0 43 -18
43 -32 0 -4 -3 -7 -7 -7 -20 3 -23 -3 -12 -22 7 -14 17 -19 30 -16 14 4 19 0
19 -16 1 -21 2 -21 14 -4 9 11 20 15 31 10 11 -3 16 -2 13 3 -4 5 0 20 8 34
13 24 13 24 14 3 0 -12 6 -25 12 -29 9 -6 5 -10 -12 -14 -15 -4 -24 -13 -24
-23 1 -9 -2 -17 -7 -17 -5 0 -9 7 -9 15 0 8 -4 15 -10 15 -13 0 -12 -11 3 -31
13 -17 57 -21 57 -5 0 6 7 0 16 -12 9 -13 14 -24 13 -25 -2 -1 -18 -10 -35
-19 -17 -10 -34 -15 -38 -11 -3 3 -6 1 -6 -5 0 -7 5 -12 11 -12 5 0 7 -5 3
-11 -11 -18 59 1 73 20 11 14 13 14 14 1 1 -8 1 -18 1 -21 -1 -3 11 -4 25 -1
18 3 24 1 19 -7 -4 -6 -2 -11 3 -11 6 0 11 7 11 15 0 8 4 15 9 15 5 0 8 -7 7
-16 0 -9 5 -19 13 -22 8 -3 11 0 7 7 -4 6 -3 11 2 11 6 0 13 -7 16 -16 3 -8
10 -12 16 -9 5 3 10 -3 10 -14 0 -25 12 -32 30 -20 13 7 13 9 0 10 -10 0 -8 3
5 9 11 5 14 9 8 9 -7 1 -13 5 -13 11 0 5 7 7 15 4 10 -4 13 -14 8 -31 -5 -24
-4 -25 23 -20 27 5 27 4 9 -9 -16 -12 -17 -16 -5 -27 10 -9 12 -9 6 1 -5 7 2
16 19 22 34 13 35 13 35 -7 1 -17 1 -17 11 -1 13 23 31 23 28 1 -3 -33 1 -43
16 -43 8 0 15 5 15 10 0 12 22 9 32 -5 12 -16 9 -30 -4 -17 -14 14 -32 16 -24
3 3 -5 -1 -11 -9 -15 -8 -3 -15 -11 -15 -18 0 -10 2 -10 9 1 7 11 10 11 17 0
5 -8 15 -14 22 -14 6 0 12 -4 11 -9 -1 -9 20 -26 33 -26 4 0 5 6 2 14 -3 8 -1
24 5 35 8 14 8 22 1 26 -11 7 33 55 49 55 4 0 26 -20 49 -44 39 -42 40 -45 23
-60 -10 -9 -27 -16 -38 -16 -12 0 -23 -7 -27 -15 -3 -8 -11 -15 -18 -15 -19 0
-78 -56 -78 -73 0 -17 27 -30 34 -18 3 5 26 14 50 21 25 7 47 18 49 25 5 12
44 12 85 0 16 -6 22 -3 22 9 0 13 7 15 31 11 21 -4 28 -2 24 5 -6 10 32 -7 45
-20 3 -3 16 -10 30 -16 75 -34 140 -70 140 -76 0 -5 7 -8 15 -8 9 0 18 -7 21
-15 6 -15 90 -50 140 -58 16 -2 55 -10 87 -17 65 -15 83 -7 47 20 l-25 19 40
-10 c22 -6 44 -14 48 -19 5 -4 24 -4 42 0 19 4 38 3 43 -2 18 -18 650 -11 733
8 46 11 114 25 134 29 39 7 64 14 82 22 10 5 25 9 33 8 8 -1 20 3 27 8 7 5 16
6 21 3 5 -3 34 7 64 23 30 16 65 32 79 36 13 4 38 18 56 31 17 13 38 24 46 24
8 0 24 9 37 20 13 11 28 20 34 20 6 0 28 12 49 26 22 15 56 27 79 29 41 2 72
27 65 50 -2 5 33 38 77 72 45 35 99 78 121 97 22 19 56 48 75 63 19 15 42 36
51 45 9 10 20 18 25 18 5 0 16 10 24 21 8 12 105 113 215 224 110 112 223 229
250 260 28 32 70 80 95 107 25 28 49 57 54 66 5 10 23 30 40 45 17 16 30 35
28 42 -3 14 46 97 61 103 4 2 7 10 7 18 0 8 7 17 15 20 8 4 15 12 15 20 0 7
10 23 23 36 13 13 24 25 24 28 8 27 18 39 39 44 13 4 24 11 24 17 0 8 -5 7
-15 -1 -13 -11 -14 -10 -9 6 4 10 11 25 17 32 5 6 6 12 2 12 -5 0 0 9 9 19 10
11 18 26 20 34 1 8 10 27 21 43 11 16 18 33 17 38 -2 5 4 3 13 -4 13 -11 15
-10 9 3 -4 12 2 20 20 27 15 5 32 9 38 7 6 -1 13 4 16 12 3 10 0 12 -11 8 -33
-12 -42 29 -17 77 18 36 30 37 30 5 0 -21 56 -37 73 -20 8 8 7 11 -2 11 -8 0
-3 10 13 25 14 13 26 33 26 45 0 31 -20 24 -26 -10 -4 -17 -11 -27 -17 -23 -5
3 -7 1 -4 -4 4 -6 1 -13 -7 -16 -11 -5 -13 3 -9 36 4 39 3 41 -11 22 -8 -11
-16 -26 -16 -32 0 -18 -17 -16 -24 3 -9 22 -8 24 9 18 17 -7 19 9 5 37 -7 13
-7 19 0 19 5 0 10 7 10 16 0 11 5 14 16 10 9 -4 23 -1 31 6 11 9 13 9 11 -2
-2 -7 2 -15 9 -17 7 -2 15 7 19 21 3 14 10 26 15 26 5 0 9 5 9 10 0 6 -6 10
-14 10 -8 0 -16 7 -20 15 -3 9 0 15 10 15 9 0 12 -5 8 -11 -4 -7 -1 -10 6 -7
21 7 24 28 4 28 -13 0 -15 3 -7 11 12 12 6 80 -8 89 -5 3 -4 19 0 35 5 17 10
24 10 18 2 -21 21 -15 21 6 0 10 6 21 14 24 10 4 12 0 8 -16 -5 -21 -4 -21 17
2 16 19 24 22 33 13 17 -17 33 -15 18 3 -10 12 -9 15 8 15 16 0 19 5 14 22 -5
21 -6 21 -13 2 -8 -20 -13 -6 -10 26 1 8 -11 1 -26 -17 -25 -27 -31 -30 -50
-20 -19 10 -20 15 -9 35 6 12 22 29 34 38 12 8 20 20 16 25 -4 6 -12 5 -22 -3
-14 -10 -15 -10 -5 1 6 7 9 20 6 27 -5 14 13 44 27 44 4 0 10 -13 13 -30 5
-21 11 -28 21 -24 8 3 12 12 10 19 -3 7 -1 16 5 20 6 3 10 16 10 28 -1 17 -2
18 -6 5 -4 -17 -24 -26 -22 -10 4 25 -1 34 -15 23 -12 -10 -15 -7 -15 21 0 18
4 42 9 53 5 11 11 31 14 45 3 14 14 35 25 47 17 18 18 23 6 39 -11 16 -10 24
5 54 10 20 18 43 17 51 -1 14 10 109 19 164 15 82 26 165 28 206 2 25 6 51 10
58 4 7 2 19 -6 28 -10 13 -10 17 0 20 15 6 16 35 0 51 -9 9 -9 12 0 12 16 0
17 146 1 156 -8 4 -7 9 2 15 10 6 10 9 2 9 -8 0 -11 13 -9 40 2 22 -1 40 -5
40 -5 0 -9 -8 -9 -17 0 -15 -2 -16 -10 -3 -7 11 -5 19 7 27 16 13 20 59 8 113
-9 40 -16 92 -18 127 -1 17 -5 35 -9 39 -5 4 -8 26 -8 48 -1 41 -21 82 -37 73
-9 -6 -8 76 1 92 4 5 2 12 -4 16 -6 4 -8 10 -5 15 3 5 1 11 -5 15 -5 3 -10 15
-10 25 0 11 -11 35 -24 55 -14 20 -23 42 -20 50 12 30 -28 140 -59 164 -11 7
-17 21 -14 31 2 10 1 24 -4 31 -8 12 -11 12 -18 -1 -12 -17 -16 -14 -25 22 -5
23 -4 26 11 21 16 -6 17 -5 3 12 -8 10 -14 19 -12 19 2 1 -1 12 -7 26 l-10 25
0 -27 c-1 -29 -7 -33 -30 -19 -8 5 -10 14 -6 21 5 8 4 11 -3 6 -6 -3 -13 3
-17 14 -3 11 -10 20 -14 20 -4 0 -13 18 -20 40 -6 22 -16 40 -21 40 -5 0 -19
21 -32 48 -13 26 -26 49 -31 50 -4 2 -17 21 -27 43 -11 21 -27 39 -34 39 -16
0 -28 24 -21 43 3 6 -10 23 -28 36 -26 20 -89 102 -93 121 -5 25 -22 51 -28
42 -5 -8 -12 -6 -26 5 -10 9 -17 20 -14 25 3 4 -3 20 -14 36 -10 15 -22 35
-25 45 -4 9 -11 17 -16 17 -6 0 -8 8 -5 18 5 16 5 16 -8 0 -13 -15 -16 -14
-27 19 -9 25 -16 32 -21 23 -8 -13 -34 5 -106 73 -24 23 -21 74 4 79 14 3 14
5 -1 20 -9 9 -17 22 -17 29 0 35 -18 -14 -19 -54 -1 -11 -7 -17 -13 -14 -7 2
-11 11 -9 18 7 31 8 59 1 59 -4 0 -10 -9 -13 -20 -3 -11 -10 -20 -17 -20 -13
0 -10 32 5 42 6 5 5 8 -2 8 -7 0 -13 11 -13 24 0 28 -25 54 -33 34 -4 -8 -6
-7 -6 5 -1 9 -6 17 -12 17 -5 0 -8 -4 -4 -9 3 -5 1 -12 -5 -16 -6 -3 -13 1
-17 10 -3 10 0 21 8 26 8 5 10 9 4 9 -5 0 -4 4 3 8 7 5 14 19 17 32 2 12 7 25
10 28 3 3 -3 14 -12 25 -10 10 -17 22 -15 26 1 3 -4 6 -10 6 -7 0 -13 7 -13
15 0 8 -5 24 -12 35 -9 16 -14 18 -24 8 -19 -19 -29 -16 -29 7 0 24 -41 65
-50 50 -7 -12 -40 -3 -40 10 0 5 6 11 13 13 7 3 5 6 -5 6 -10 1 -19 -5 -19
-11 -5 -53 -3 -63 15 -66 11 -3 16 0 12 7 -8 12 6 15 18 4 4 -4 -3 -15 -15
-24 -19 -14 -20 -17 -5 -22 10 -4 15 -3 11 3 -3 6 -1 10 4 10 15 0 14 -27 -1
-33 -10 -4 -10 -6 -1 -6 9 -1 10 -8 4 -23 -4 -13 -6 -29 -4 -35 3 -7 0 -13 -6
-13 -6 0 -11 15 -11 33 0 32 -11 59 -24 58 -3 -1 -14 -1 -23 0 -15 0 -15 2 2
9 11 5 15 9 10 9 -6 1 -9 18 -7 41 3 32 0 45 -17 59 -12 10 -21 23 -21 30 0 6
-5 11 -10 11 -6 0 -10 8 -8 18 4 21 -33 24 -40 3 -3 -8 0 -11 7 -7 6 4 11 0
12 -11 0 -10 2 -29 5 -43 3 -21 2 -23 -9 -10 -7 8 -21 20 -31 25 -18 11 -20
33 -2 27 5 -2 4 4 -3 12 -7 9 -17 13 -22 11 -4 -3 -6 4 -4 15 2 11 0 18 -5 15
-4 -3 -12 7 -17 22 l-9 26 -20 -21 -19 -21 -12 25 c-6 13 -8 24 -5 24 4 0 8
12 8 26 1 15 -3 24 -10 21 -6 -3 -11 6 -11 19 0 26 10 32 18 12 2 -7 7 -11 10
-8 3 3 2 12 -3 20 -7 12 -13 13 -27 4 -15 -10 -18 -24 -16 -82 2 -70 -3 -78
-35 -59 -7 5 -9 13 -6 19 4 6 9 5 15 -3 4 -7 11 -10 16 -6 9 10 -18 28 -34 23
-6 -3 -19 16 -29 44 -11 32 -22 46 -31 43 -7 -3 -10 -9 -7 -14 3 -5 -2 -9 -10
-9 -26 0 -29 21 -6 52 12 16 19 32 16 35 -3 4 -6 0 -6 -8 -1 -9 -8 -6 -20 10
-11 12 -18 27 -15 31 3 4 -2 10 -10 13 -9 4 -12 1 -8 -9 7 -20 -24 -7 -56 22
-21 19 -26 20 -38 8 -18 -18 -20 -18 -20 1 0 8 5 15 11 15 6 0 4 5 -5 10 -10
6 -15 20 -14 35 2 14 -1 25 -6 25 -6 0 -8 4 -5 8 2 4 -4 9 -15 9 -22 2 -23 -1
-9 -28 6 -10 8 -19 5 -19 -13 0 -54 33 -50 40 3 4 -2 10 -10 14 -18 7 -33 -20
-31 -57 2 -25 0 -27 -11 -11 -10 14 -10 19 0 26 8 6 6 10 -10 14 -12 3 -28 19
-35 34 -13 29 -37 30 -39 1 0 -13 -2 -12 -11 4 -5 11 -32 37 -59 58 -27 20
-48 43 -46 50 1 6 -4 11 -10 10 -7 -2 -13 2 -13 8 0 5 -4 8 -9 5 -5 -3 -22 6
-39 22 -39 35 -89 72 -100 72 -4 0 -24 16 -43 36 -18 19 -50 45 -69 56 -19 12
-45 30 -57 41 -12 10 -26 16 -32 12 -6 -3 -11 1 -11 9 0 9 -6 16 -12 16 -7 0
-31 14 -52 30 -21 16 -43 27 -47 24 -5 -3 -9 0 -9 5 0 6 -6 11 -14 11 -8 0
-16 4 -18 8 -4 9 -105 52 -123 52 -8 0 -19 13 -27 30 -13 30 -45 54 -34 25 6
-17 -9 -21 -19 -5 -3 6 -12 10 -18 9 -9 0 -9 -2 1 -6 6 -2 12 -9 12 -15 0 -6
-8 -7 -17 -3 -10 4 -25 8 -33 9 -8 2 -20 12 -26 24 -6 12 -13 19 -17 16z
m-153 -123 c-6 -6 -11 1 -18 29 l-7 25 15 -25 c8 -14 12 -27 10 -29z m109 42
c-7 -2 -13 -9 -13 -14 0 -6 5 -7 10 -4 6 3 10 1 10 -5 0 -6 6 -8 13 -4 7 4 9
3 4 -2 -13 -14 -31 -11 -44 6 -18 22 -16 30 10 29 12 0 16 -3 10 -6z m157 -14
c19 -7 41 -19 48 -26 7 -7 21 -13 30 -13 24 -1 50 -23 44 -39 -2 -7 0 -16 6
-20 14 -9 5 -21 -40 -55 -35 -26 -37 -27 -47 -8 -6 11 -20 19 -33 18 -13 -1
-36 6 -53 16 -16 10 -40 18 -52 18 -12 0 -25 5 -28 10 -5 8 -11 8 -20 0 -10
-8 -15 -8 -20 0 -4 6 -13 9 -21 6 -8 -3 -14 1 -14 9 0 9 -9 12 -30 10 -31 -4
-32 1 -7 33 8 11 12 11 18 0 6 -9 9 -3 10 17 0 25 2 27 8 10 6 -15 18 -20 50
-21 22 0 41 3 41 7 0 4 14 11 32 14 l32 7 -25 14 -24 13 30 -3 c17 -2 46 -10
65 -17z m-385 -47 c-6 -7 -34 11 -29 19 3 5 11 3 19 -4 7 -6 12 -13 10 -15z
m-197 -41 c9 -5 2 -8 -20 -9 -23 -1 -28 2 -18 8 18 12 22 12 38 1z m52 -1 c0
-5 -5 -10 -11 -10 -5 0 -7 5 -4 10 3 6 8 10 11 10 2 0 4 -4 4 -10z m-80 -38
c0 -5 19 -8 43 -8 35 1 42 -2 41 -17 -2 -15 3 -17 30 -11 17 3 35 13 39 21 11
19 37 -1 37 -29 0 -16 -7 -19 -42 -18 -24 0 -69 -4 -101 -8 -32 -5 -60 -5 -63
-1 -5 9 -24 7 -41 -4 -9 -6 -11 -3 -7 7 3 9 12 16 19 16 7 0 15 7 19 15 6 17
-9 21 -19 5 -8 -13 -25 -3 -25 15 0 8 9 12 25 10 14 -1 25 2 25 6 0 5 5 9 10
9 6 0 10 -4 10 -8z m340 -16 c-7 -7 -14 -6 -21 1 -9 9 -7 12 9 10 14 -1 18 -5
12 -11z m-479 -21 c10 7 12 -8 2 -18 -9 -10 -32 26 -25 38 4 5 8 2 10 -8 2 -9
8 -15 13 -12z m414 5 c3 -5 -3 -10 -14 -10 -11 0 -23 5 -26 10 -3 6 3 10 14
10 11 0 23 -4 26 -10z m-430 -170 c4 -6 26 -8 52 -5 39 5 44 3 39 -11 -3 -8
-6 -17 -6 -20 0 -2 -7 -1 -15 2 -8 4 -15 1 -15 -5 0 -6 -7 -8 -15 -5 -8 4 -21
2 -28 -4 -6 -5 -19 -9 -27 -10 -8 0 -44 -3 -80 -7 -65 -7 -95 -19 -84 -36 3
-5 0 -9 -6 -9 -7 0 -10 6 -7 14 3 8 -1 17 -9 20 -28 11 -37 6 -23 -11 13 -15
12 -15 -6 -6 -15 8 -29 8 -53 -2 -30 -13 -44 -35 -21 -35 5 0 7 5 4 10 -3 6
-2 10 4 10 5 0 11 -3 14 -7 2 -5 2 -1 0 7 -2 10 2 8 12 -4 23 -31 19 -47 -12
-44 -16 2 -27 -2 -26 -8 1 -6 -18 -11 -45 -13 -26 -1 -54 -4 -63 -7 -9 -2 -26
-1 -38 3 -21 8 -21 9 -2 43 10 19 16 41 14 48 -3 6 2 12 11 12 9 0 16 -5 16
-11 0 -6 5 -7 13 -2 6 4 21 6 32 4 15 -2 17 0 8 11 -14 17 -21 68 -8 65 5 -1
10 -9 10 -19 1 -9 9 -28 19 -43 13 -20 21 -24 30 -16 7 6 16 8 19 4 4 -3 7 3
7 15 0 28 13 34 44 22 21 -7 26 -6 26 5 0 9 6 12 15 8 9 -3 21 2 28 10 8 11
35 18 77 22 35 3 66 8 69 10 7 8 19 6 26 -5z m-395 -30 c0 -13 -6 -20 -17 -19
-11 0 -13 3 -5 6 6 2 12 11 12 19 0 8 2 14 5 14 3 0 5 -9 5 -20z m-38 -16 c-5
-27 -27 -22 -29 6 -1 12 4 18 16 17 12 -1 16 -7 13 -23z m-86 -9 c-5 -19 -3
-25 10 -25 10 0 14 -3 10 -7 -4 -5 -11 -7 -14 -6 -4 0 -14 -3 -24 -8 -11 -6
-18 -4 -22 7 -8 22 -8 24 8 24 8 0 18 9 21 20 9 29 18 25 11 -5z m-26 11 c0
-2 -9 -6 -20 -9 -11 -3 -20 -1 -20 4 0 5 9 9 20 9 11 0 20 -2 20 -4z m-170
-39 c0 -7 8 -19 19 -26 18 -13 18 -57 1 -46 -5 3 -11 1 -15 -5 -3 -5 5 -14 18
-19 23 -9 45 -51 26 -51 -5 0 -9 -7 -9 -15 0 -17 -9 -19 -30 -5 -13 8 -12 11
5 16 13 3 21 14 22 27 0 12 -1 16 -4 10 -3 -7 -14 -13 -25 -13 -15 0 -18 5
-13 20 4 13 -1 25 -14 37 -26 21 -26 32 -3 50 16 14 16 14 0 9 -24 -7 -32 11
-11 23 20 11 33 6 33 -12z m84 -2 c-4 -8 -8 -15 -10 -15 -2 0 -4 7 -4 15 0 8
4 15 10 15 5 0 7 -7 4 -15z m-180 -7 c-5 -9 -2 -8 9 1 10 8 20 12 22 9 10 -10
-25 -30 -41 -24 -16 6 -11 26 7 26 6 0 7 -6 3 -12z m342 -8 c0 -12 -4 -16 -9
-11 -5 5 -6 14 -3 20 10 15 12 14 12 -9z m345 -23 c-8 -8 -11 -7 -11 4 0 20
13 34 18 19 3 -7 -1 -17 -7 -23z m-105 -3 c-3 -8 0 -14 6 -14 6 0 8 -3 4 -7
-4 -5 -14 1 -22 11 -18 26 -18 37 2 29 8 -3 13 -12 10 -19z m159 5 c-29 -11
-32 -11 -32 4 0 9 9 12 26 9 23 -5 24 -6 6 -13z m-681 -42 c3 4 6 1 6 -5 0 -7
-4 -12 -10 -12 -15 0 -12 -40 3 -41 9 0 9 -2 -1 -6 -17 -7 -41 25 -42 55 0 12
-6 22 -12 22 -9 0 -8 4 2 10 11 7 19 5 31 -10 9 -10 19 -16 23 -13z m171 -12
c-2 -20 -7 -40 -10 -45 -11 -18 -25 -10 -25 15 0 14 5 25 10 25 6 0 10 5 10
11 0 5 -6 7 -12 4 -7 -4 -4 1 6 9 26 21 27 21 21 -19z m39 11 c-6 -16 -24 -23
-24 -8 0 10 22 33 27 28 2 -2 1 -11 -3 -20z m66 -31 c0 -10 -34 -35 -46 -35
-13 0 -13 2 0 16 9 8 16 19 16 24 0 5 7 7 15 4 8 -4 15 -8 15 -9z m-435 -5 c3
-5 -1 -10 -10 -10 -9 0 -13 5 -10 10 3 6 8 10 10 10 2 0 7 -4 10 -10z m359 1
c3 -5 0 -14 -7 -19 -10 -8 -13 -6 -14 9 -2 19 11 26 21 10z m427 0 c-7 -5 -11
-13 -8 -17 3 -5 -14 -9 -38 -9 -31 0 -41 4 -37 13 2 8 13 11 23 9 11 -3 22 -1
25 4 3 5 15 9 27 9 16 0 19 -3 8 -9z m-726 -21 c-1 -11 -7 -26 -15 -33 -10
-10 -12 -9 -6 6 3 10 6 25 6 33 0 8 4 14 8 14 5 0 8 -9 7 -20z m-35 -12 c0 -5
-2 -7 -3 -5 -2 1 -11 -4 -21 -12 -9 -8 -20 -10 -24 -6 -4 4 -1 10 6 12 6 3 10
8 7 12 -2 5 4 8 15 7 11 0 20 -4 20 -8z m544 -7 c6 -9 -22 -26 -36 -23 -5 1
-8 -3 -8 -9 0 -6 -6 -9 -14 -6 -8 3 -16 1 -19 -6 -2 -7 -9 -2 -16 12 -7 13 -8
21 -3 17 6 -3 13 -2 16 3 3 5 15 7 26 4 11 -3 20 0 20 6 0 13 26 15 34 2z
m-624 -11 c0 -5 -5 -10 -11 -10 -5 0 -7 5 -4 10 3 6 8 10 11 10 2 0 4 -4 4
-10z m380 1 c0 -5 -7 -11 -15 -15 -8 -3 -12 -12 -9 -20 3 -9 12 -12 22 -8 14
5 15 4 2 -10 -8 -9 -18 -14 -22 -11 -5 2 -8 -7 -8 -20 0 -14 -6 -24 -15 -24
-8 0 -15 6 -15 14 0 9 -5 8 -20 -4 -15 -13 -17 -19 -7 -26 7 -5 1 -6 -15 -3
-24 6 -28 3 -29 -16 -1 -21 -2 -21 -6 -3 -7 27 -23 43 -24 25 -1 -8 -2 -24 -3
-35 0 -12 -8 -19 -18 -19 -10 1 -18 -2 -18 -7 0 -5 -9 -9 -20 -9 -11 0 -23 -7
-26 -15 -4 -8 -12 -15 -20 -15 -8 0 -23 -5 -34 -12 -10 -7 -23 -9 -27 -5 -4 5
-1 12 6 16 8 5 10 14 6 21 -6 9 -3 9 15 0 20 -11 21 -10 15 9 -4 13 -2 21 5
21 6 0 8 5 5 10 -3 6 1 13 9 16 9 3 13 10 10 15 -3 6 -1 16 6 24 9 10 9 19 0
36 -12 21 -12 21 14 3 16 -12 23 -25 20 -37 -3 -9 2 -24 10 -32 14 -14 16 -13
22 9 6 24 18 28 42 13 7 -5 12 -3 12 7 0 8 -5 18 -11 21 -7 5 -4 13 7 26 9 10
21 16 26 12 6 -3 14 1 19 8 7 10 11 11 17 2 5 -7 15 -2 32 18 25 29 40 36 40
20z m120 -28 c0 -7 -33 -32 -42 -33 -12 0 -9 19 4 34 12 12 38 11 38 -1z
m2238 4 c-16 -6 -28 -15 -28 -20 0 -5 -7 -4 -15 3 -21 17 -12 25 32 27 37 1
37 1 11 -10z m-2484 -11 c-6 -16 -34 -30 -42 -21 -3 3 0 5 6 5 7 0 12 7 12 15
0 8 7 15 15 15 8 0 12 -6 9 -14z m2476 -26 c0 -5 -5 -10 -11 -10 -5 0 -7 5 -4
10 3 6 8 10 11 10 2 0 4 -4 4 -10z m-2306 -9 c3 -5 -1 -11 -9 -15 -9 -3 -15 0
-15 9 0 16 16 20 24 6z m2389 -38 c-5 -12 -3 -14 7 -8 9 5 11 4 6 -4 -4 -6
-12 -9 -17 -6 -12 8 -12 35 1 35 5 0 6 -7 3 -17z m-2996 -15 c-3 -8 -6 -5 -6
6 -1 11 2 17 5 13 3 -3 4 -12 1 -19z m93 12 c0 -5 7 -6 17 -3 10 4 14 2 10 -4
-4 -6 -1 -13 5 -16 10 -4 10 -7 1 -17 -10 -11 -14 -10 -19 3 -3 9 -10 14 -15
11 -14 -8 -29 5 -22 21 6 17 23 20 23 5z m59 -27 c0 -25 -1 -25 -8 -8 -5 11
-7 23 -4 28 8 14 13 7 12 -20z m1271 -2 c0 -8 -88 -32 -132 -38 -21 -2 -28 2
-28 14 0 9 3 14 6 10 3 -3 24 1 46 9 22 7 44 12 48 9 5 -3 11 -1 14 4 7 10 46
3 46 -8z m-1434 -6 c9 -8 11 -15 6 -15 -5 0 -14 -11 -20 -25 -17 -37 -35 -32
-27 8 12 52 17 56 41 32z m1259 -35 c-3 -5 -13 -10 -21 -10 -8 0 -12 5 -9 10
3 6 13 10 21 10 8 0 12 -4 9 -10z m-519 -8 c-2 -4 3 -9 12 -10 50 -5 66 -10
70 -20 2 -7 13 -12 23 -12 11 0 17 -4 14 -10 -3 -5 -17 -10 -31 -10 -14 0 -23
4 -20 9 8 12 -18 21 -44 16 -11 -2 -20 0 -20 6 0 5 -7 9 -15 9 -9 0 -12 6 -9
15 4 8 10 15 16 15 5 0 7 -4 4 -8z m394 -3 c0 -5 5 -7 10 -4 6 3 10 2 10 -4 0
-8 -59 -32 -67 -27 -1 1 0 12 4 24 5 22 43 32 43 11z m-200 -9 c0 -5 -5 -10
-11 -10 -5 0 -7 5 -4 10 3 6 8 10 11 10 2 0 4 -4 4 -10z m134 2 c2 -4 1 -14
-5 -22 -5 -8 -9 -13 -10 -10 0 3 -2 13 -4 23 -3 17 10 24 19 9z m-219 -12 c3
-5 1 -10 -4 -10 -6 0 -11 5 -11 10 0 6 2 10 4 10 3 0 8 -4 11 -10z m149 -12
c-3 -10 0 -18 6 -18 7 0 5 -7 -5 -16 -13 -14 -18 -14 -32 -2 -10 7 -14 8 -10
1 4 -6 3 -14 -2 -17 -16 -10 -21 23 -5 39 9 8 13 15 9 15 -3 0 -4 4 -1 8 2 4
14 8 25 8 16 0 20 -5 15 -18z m2063 0 c-3 -8 -6 -5 -6 6 -1 11 2 17 5 13 3 -3
4 -12 1 -19z m-2920 -10 c-3 -8 -6 -5 -6 6 -1 11 2 17 5 13 3 -3 4 -12 1 -19z
m303 7 c-7 -8 -16 -12 -21 -9 -13 8 -1 24 18 24 13 0 13 -3 3 -15z m-480 -45
c-8 -32 -24 -32 -28 -1 -3 16 0 21 8 16 9 -5 10 -1 5 15 -6 20 -5 21 7 9 10
-9 13 -22 8 -39z m428 25 c2 -23 0 -25 -19 -14 -17 9 -23 8 -30 -2 -7 -12 -9
-12 -9 0 0 11 -3 11 -15 1 -18 -15 -10 -31 13 -24 15 5 15 5 -1 -6 -9 -6 -21
-8 -26 -5 -6 3 -14 -3 -20 -12 -6 -10 -11 -13 -11 -7 0 18 -60 4 -61 -15 0
-10 -2 -11 -6 -3 -2 6 -9 12 -14 12 -6 0 -8 -4 -4 -9 3 -5 -4 -13 -16 -16 -12
-4 -18 -12 -15 -21 3 -8 1 -14 -4 -14 -6 0 -10 5 -10 10 0 6 -5 10 -11 10 -6
0 -8 -7 -5 -17 4 -9 1 -21 -6 -26 -9 -6 -8 -7 5 -3 18 6 24 -9 7 -19 -6 -4 -8
-11 -5 -16 4 -5 -1 -9 -9 -9 -14 0 -20 -11 -18 -31 1 -3 -13 -6 -30 -7 -33 -1
-76 -31 -48 -33 8 -1 18 -1 23 0 4 0 7 -3 7 -9 0 -5 8 -10 18 -10 24 0 29 -55
6 -68 -11 -6 -13 -11 -5 -16 19 -12 13 -45 -8 -43 -14 1 -17 5 -10 13 12 14
-11 60 -28 58 -26 -3 -28 -5 -13 -14 12 -7 12 -12 2 -22 -13 -13 -17 -14 -45
-17 -8 0 -20 -12 -27 -26 -7 -14 -18 -25 -23 -25 -5 0 -6 11 -3 25 4 14 2 25
-4 25 -5 0 -10 -5 -10 -12 0 -9 -3 -9 -12 0 -19 19 -26 14 -20 -14 l5 -25 -27
24 c-14 13 -26 29 -26 36 0 15 -17 14 -23 -1 -3 -7 -6 -8 -6 -3 0 6 3 15 7 20
12 17 113 67 120 60 3 -3 1 -10 -7 -14 -10 -6 -8 -10 6 -16 10 -5 21 -9 25 -9
3 -1 10 -4 14 -8 17 -17 25 -6 18 27 -4 22 -2 35 5 35 6 0 8 7 5 15 -7 16 17
45 38 45 10 0 9 3 -2 11 -11 8 -7 9 17 4 29 -6 32 -4 26 11 -5 13 -3 16 10 11
11 -4 14 -2 10 9 -3 8 -1 14 5 12 10 -3 12 1 12 28 0 9 -7 14 -17 12 -11 -2
-17 -11 -15 -22 2 -11 -1 -15 -7 -11 -6 3 -11 -1 -11 -9 0 -15 -7 -17 -62 -20
-10 -1 -23 -8 -30 -15 -11 -11 -10 -12 2 -6 10 6 9 2 -3 -12 -10 -12 -32 -27
-49 -34 -27 -11 -32 -10 -43 4 -11 15 -14 16 -25 2 -14 -17 -45 -21 -35 -5 6
9 -8 14 -28 11 -5 -1 -6 13 -2 31 4 18 7 54 6 80 0 32 5 52 16 64 24 23 30 -1
7 -27 -13 -15 -14 -19 -3 -19 8 0 16 -11 17 -25 1 -14 -3 -25 -10 -25 -6 0 -9
-3 -5 -6 3 -3 12 -2 19 2 24 15 51 11 72 -10 19 -19 21 -19 24 -3 2 9 7 17 11
17 4 0 6 14 3 30 -4 27 -2 30 24 30 20 0 25 3 15 9 -20 13 3 23 31 12 19 -8
20 -10 4 -10 -16 -1 -17 -3 -5 -17 8 -10 15 -12 17 -5 2 6 8 11 13 11 6 0 7
-6 4 -12 -4 -7 3 -2 14 11 12 13 21 20 21 16 0 -4 7 -1 17 6 9 8 19 14 22 13
12 -1 61 21 61 27 0 4 13 10 30 14 16 4 32 11 35 16 4 5 15 9 26 9 11 0 30 6
42 12 12 7 36 18 52 24 17 6 30 12 30 13 0 0 2 -10 3 -24z m222 15 c-20 -13
-33 -13 -25 0 3 6 14 10 23 10 15 0 15 -2 2 -10z m-385 -20 c-3 -5 -14 -8 -25
-7 -14 1 -16 5 -9 13 11 14 42 7 34 -6z m335 11 c0 -5 -10 -11 -22 -14 -22 -6
-22 -6 -4 8 23 17 26 18 26 6z m105 -1 c3 -5 1 -10 -4 -10 -6 0 -11 5 -11 10
0 6 2 10 4 10 3 0 8 -4 11 -10z m2495 6 c0 -3 -4 -8 -10 -11 -5 -3 -10 -1 -10
4 0 6 5 11 10 11 6 0 10 -2 10 -4z m-2745 -15 c3 -5 2 -12 -3 -15 -5 -3 -9 1
-9 9 0 17 3 19 12 6z m190 -21 c3 -5 1 -10 -4 -10 -6 0 -11 5 -11 10 0 6 2 10
4 10 3 0 8 -4 11 -10z m142 -10 c2 -18 0 -18 -13 -6 -17 18 -18 26 -1 26 7 0
13 -9 14 -20z m123 -2 c0 -12 -3 -18 -7 -14 -11 10 -12 36 -2 36 5 0 9 -10 9
-22z m-350 -9 c0 -6 -4 -7 -10 -4 -5 3 -10 3 -11 -2 -3 -33 -11 -58 -22 -65
-19 -12 -39 -9 -34 5 2 6 12 11 21 11 9 -1 16 5 16 13 0 8 -5 11 -12 7 -7 -4
-8 -3 -4 5 4 6 2 18 -4 26 -10 12 -9 15 4 15 10 0 14 -4 11 -10 -3 -5 -1 -10
5 -10 6 0 13 7 16 15 6 16 24 11 24 -6z m-480 -1 c0 -4 -2 -8 -4 -8 -2 0 -12
-3 -20 -6 -11 -4 -15 -2 -11 8 6 15 35 21 35 6z m527 6 c-3 -3 -12 -4 -19 -1
-8 3 -5 6 6 6 11 1 17 -2 13 -5z m77 -9 c-4 -8 -10 -12 -15 -9 -11 6 -2 24 11
24 5 0 7 -7 4 -15z m157 6 c-8 -5 -11 -16 -8 -25 4 -10 1 -16 -9 -16 -8 0 -26
-7 -39 -16 -14 -9 -25 -14 -25 -12 0 11 38 48 49 48 6 0 11 7 11 15 0 8 8 15
18 15 14 0 14 -2 3 -9z m99 5 c0 -3 -4 -8 -10 -11 -5 -3 -10 -1 -10 4 0 6 5
11 10 11 6 0 10 -2 10 -4z m-296 -22 c4 -10 1 -14 -6 -12 -15 5 -23 28 -10 28
5 0 13 -7 16 -16z m-217 -9 c0 -10 -6 -13 -18 -10 -13 5 -16 1 -12 -13 3 -14
11 -18 25 -14 15 4 19 2 14 -7 -4 -6 -2 -18 4 -26 10 -12 9 -15 -4 -15 -9 0
-16 -8 -17 -17 0 -11 -3 -13 -6 -5 -7 19 -43 15 -44 -5 -1 -10 -1 -21 0 -25 0
-5 -3 -8 -8 -8 -5 0 -12 20 -15 45 -8 48 -19 55 -48 28 -12 -10 -18 -12 -18
-4 0 7 -4 9 -10 6 -5 -3 -10 -2 -10 2 0 15 35 31 62 28 19 -2 29 3 36 20 7 14
22 25 39 28 15 2 28 5 29 6 0 0 1 -6 1 -14z m150 -1 c-3 -3 -12 -4 -19 -1 -8
3 -5 6 6 6 11 1 17 -2 13 -5z m2798 -24 c3 -5 -1 -10 -10 -10 -9 0 -13 5 -10
10 3 6 8 10 10 10 2 0 7 -4 10 -10z m-3475 -14 c0 -6 5 -5 12 2 17 17 28 15
28 -5 0 -15 -2 -16 -10 -3 -10 16 -13 10 -12 -30 l1 -25 -8 25 c-9 24 -16 12
-12 -19 2 -7 -3 -10 -9 -6 -6 4 -8 16 -5 26 4 11 2 26 -4 33 -8 9 -7 13 4 13
8 0 15 -5 15 -11z m-244 -33 c-4 -9 -1 -20 6 -24 8 -5 0 -8 -19 -6 -38 2 -38
2 -15 26 21 24 36 26 28 4z m3864 -13 c0 -5 -5 -10 -11 -10 -5 0 -7 5 -4 10 3
6 8 10 11 10 2 0 4 -4 4 -10z m-3026 -15 c-4 -8 -8 -15 -10 -15 -2 0 -4 7 -4
15 0 8 4 15 10 15 5 0 7 -7 4 -15z m2809 1 c4 -10 1 -13 -8 -9 -8 3 -12 9 -9
14 7 12 11 11 17 -5z m-2765 -13 c-4 -22 -21 -42 -30 -36 -12 7 -9 20 8 37 20
21 26 20 22 -1z m-325 -13 c3 -11 1 -23 -4 -26 -5 -3 -9 -1 -9 5 0 5 -3 16 -6
25 -3 9 -2 16 4 16 5 0 12 -9 15 -20z m3220 5 c9 -2 17 0 17 6 0 5 5 9 11 9 8
0 9 -4 0 -13 -6 -8 -8 -16 -5 -20 3 -3 1 -14 -5 -24 -11 -17 -11 -17 -9 2 2
14 -5 21 -27 26 -16 4 -25 7 -20 8 6 1 3 6 -5 12 -12 9 -11 10 5 4 11 -4 28
-8 38 -10z m-3825 -14 c3 -8 -1 -12 -9 -9 -7 2 -15 10 -17 17 -3 8 1 12 9 9 7
-2 15 -10 17 -17z m37 -1 c3 -5 1 -10 -4 -10 -6 0 -11 5 -11 10 0 6 2 10 4 10
3 0 8 -4 11 -10z m655 -18 c-17 -6 -42 7 -35 18 4 6 13 5 26 -3 10 -6 15 -13
9 -15z m3198 15 c6 -7 7 -18 3 -26 -9 -13 -13 -9 -24 22 -7 20 6 23 21 4z
m-3787 -50 c-12 -12 -21 -16 -21 -9 0 7 5 12 10 12 6 0 10 6 9 13 -1 6 -1 19
0 27 1 12 4 11 12 -4 9 -14 7 -23 -10 -39z m-110 16 c13 -16 12 -17 -3 -4 -10
7 -18 15 -18 17 0 8 8 3 21 -13z m192 -65 c-2 -5 0 -8 6 -8 5 0 12 6 14 13 3
7 6 5 6 -5 1 -23 7 -23 38 2 27 21 43 25 43 11 0 -10 -67 -45 -87 -46 -7 0
-13 -3 -13 -7 0 -5 0 -13 0 -19 0 -5 5 -7 10 -4 14 9 12 -8 -2 -26 -7 -8 -12
-12 -11 -10 2 2 -2 10 -8 17 -5 7 -10 35 -11 63 0 28 -4 54 -9 57 -5 3 -9 13
-9 22 0 9 8 1 19 -18 10 -19 17 -38 14 -42z m-246 37 c6 -14 9 -25 6 -25 -8 0
-35 30 -26 30 4 0 1 5 -7 10 -13 9 -13 10 0 10 8 0 20 -11 27 -25z m843 11 c0
-9 -7 -12 -20 -9 -11 3 -17 9 -14 14 8 14 34 10 34 -5z m3290 -6 c0 -5 -4 -10
-9 -10 -5 0 -7 -9 -4 -20 3 -11 1 -20 -4 -20 -10 0 -14 26 -7 48 4 14 24 16
24 2z m-4047 -19 c3 -14 1 -18 -9 -14 -8 3 -14 11 -14 19 0 21 17 17 23 -5z
m542 -2 c-4 -12 -8 -32 -10 -45 -1 -14 -6 -28 -10 -32 -4 -4 -5 3 -1 14 5 15
2 24 -9 28 -14 5 -14 8 1 31 20 30 38 33 29 4z m75 -1 c0 -13 4 -17 13 -11 6
4 4 -5 -6 -20 -9 -15 -13 -27 -7 -27 6 0 13 7 17 16 3 8 12 13 19 10 8 -3 13
-2 11 2 -1 4 1 8 6 10 14 4 8 -13 -8 -23 -10 -5 -31 -22 -47 -37 -32 -30 -48
-29 -48 2 0 10 -6 21 -12 24 -7 4 -3 4 10 2 12 -2 22 0 22 5 0 5 -4 9 -10 9
-5 0 -10 8 -10 17 0 13 3 14 12 5 16 -16 28 -15 28 3 0 8 -4 15 -10 15 -5 0
-10 4 -10 8 0 5 7 9 15 9 8 0 15 -9 15 -19z m3454 -3 c3 -8 1 -15 -4 -15 -6 0
-10 7 -10 15 0 8 2 15 4 15 2 0 6 -7 10 -15z m-3730 -11 c3 -8 2 -12 -4 -9 -6
3 -10 10 -10 16 0 14 7 11 14 -7z m-321 -34 c9 -11 15 -20 13 -20 -2 0 -1 -12
3 -27 8 -30 34 -38 53 -15 11 13 10 15 -4 9 -19 -7 -24 15 -12 47 9 24 23 19
17 -6 -4 -18 -2 -20 6 -8 5 8 13 11 17 7 4 -3 3 -12 -3 -19 -5 -7 -9 -20 -8
-28 0 -8 -3 -18 -9 -21 -5 -4 1 -12 12 -18 14 -8 23 -8 27 -1 4 7 14 3 25 -10
11 -13 21 -17 25 -10 3 5 11 10 16 10 6 0 7 -4 4 -10 -3 -5 3 -20 15 -32 18
-19 22 -20 30 -8 8 13 10 13 10 1 0 -22 -30 -50 -46 -44 -9 3 -24 -4 -34 -15
-12 -12 -15 -22 -9 -24 7 -2 4 -9 -5 -18 -10 -7 -16 -9 -15 -4 5 15 -12 54
-22 54 -5 0 -9 -14 -9 -32 0 -17 -3 -28 -7 -25 -7 8 -33 -11 -33 -25 0 -5 4
-7 9 -4 4 3 6 -6 3 -19 -6 -32 -15 -31 -41 3 -15 19 -19 21 -14 7 6 -18 5 -18
-10 -6 -15 12 -21 9 -19 -10 2 -10 -42 2 -49 13 -7 12 -41 -1 -33 -13 3 -5 9
-7 13 -5 3 3 7 -3 8 -12 3 -43 8 -60 14 -56 4 2 11 -1 15 -7 4 -7 -6 -24 -25
-41 -32 -29 -61 -37 -61 -16 0 6 -9 3 -20 -7 -24 -21 -27 -14 -4 9 8 9 28 16
44 16 16 0 30 7 34 16 3 8 2 13 -3 9 -5 -3 -12 1 -14 7 -3 7 -6 5 -6 -6 -1
-17 -3 -18 -18 -4 -10 8 -30 19 -45 25 -21 10 -26 9 -24 -2 3 -19 16 -32 16
-16 0 7 5 9 11 5 14 -9 -9 -24 -27 -17 -14 5 -14 -28 1 -39 9 -7 -17 -12 -52
-11 -7 1 -13 -3 -13 -7 0 -5 -9 -12 -20 -15 -11 -3 -20 -15 -20 -25 0 -13 5
-17 15 -14 8 4 15 2 15 -4 0 -5 -20 -12 -45 -14 -25 -2 -45 -2 -45 0 0 2 11
15 24 29 27 28 25 53 -2 31 -13 -11 -14 -11 -10 2 3 8 15 14 27 13 12 -2 21 3
21 11 0 8 11 13 27 12 16 -1 29 5 29 12 1 6 2 24 3 40 2 24 3 25 11 7 7 -17 9
-17 9 -2 1 26 -3 32 -18 29 -10 -3 -12 3 -7 21 4 16 1 27 -7 30 -6 2 -9 7 -6
11 3 4 18 2 32 -3 18 -7 24 -15 20 -29 -2 -11 1 -23 8 -28 9 -5 11 -2 6 9 -3
9 -2 19 3 22 6 4 10 1 10 -6 0 -6 14 3 32 20 17 17 36 31 40 31 5 0 7 4 3 9
-3 6 5 19 17 30 12 12 18 21 12 21 -5 1 6 7 24 15 17 8 32 21 32 30 0 8 5 15
11 15 13 0 69 55 69 69 0 15 -44 18 -55 3 -6 -7 -26 -15 -45 -18 -35 -6 -35
-6 -35 33 0 39 25 79 40 65 5 -4 5 3 2 16 -6 27 3 28 26 2z m4049 -13 c-7 -8
-9 -17 -5 -20 3 -4 -2 -7 -11 -7 -11 0 -15 5 -12 13 3 6 9 20 12 30 5 13 10
15 17 8 7 -7 6 -15 -1 -24z m56 14 c25 -21 28 -31 10 -31 -7 0 -18 11 -25 25
-13 30 -12 30 15 6z m-4209 -25 c9 -11 6 -15 -19 -18 -28 -4 -29 -4 -13 14 19
22 18 21 32 4z m-150 -30 c8 -10 9 -16 1 -21 -5 -3 -10 0 -10 9 0 8 -6 17 -12
19 -8 4 -9 6 -2 6 6 1 17 -5 23 -13z m1081 4 c0 -5 -2 -10 -4 -10 -3 0 -8 5
-11 10 -3 6 -1 10 4 10 6 0 11 -4 11 -10z m3243 -36 l5 -40 -36 -1 -36 -1 24
20 c14 11 19 17 13 13 -9 -4 -13 2 -13 19 0 15 7 26 18 28 22 5 20 9 25 -38z
m-3556 23 c0 -7 -6 -18 -14 -25 -14 -14 -17 -4 -7 22 7 19 21 21 21 3z m-796
-20 c-10 -9 -11 -8 -5 6 3 10 9 15 12 12 3 -3 0 -11 -7 -18z m4385 -14 c-11
-11 -17 4 -9 23 7 18 8 18 11 1 2 -10 1 -21 -2 -24z m-3362 11 c3 -8 2 -12 -4
-9 -6 3 -10 10 -10 16 0 14 7 11 14 -7z m-347 -26 c-3 -8 -6 -5 -6 6 -1 11 2
17 5 13 3 -3 4 -12 1 -19z m306 2 c3 -11 1 -20 -4 -20 -5 0 -9 9 -9 20 0 11 2
20 4 20 2 0 6 -9 9 -20z m22 10 c3 -5 1 -10 -4 -10 -6 0 -11 5 -11 10 0 6 2
10 4 10 3 0 8 -4 11 -10z m-49 -25 c1 -8 -2 -15 -7 -15 -5 0 -9 10 -9 22 0 23
12 17 16 -7z m3205 5 c13 -10 19 -19 13 -20 -6 0 -21 9 -34 20 -30 26 -10 26
21 0z m-4001 -32 c-27 -22 -36 -18 -21 11 7 13 17 18 28 14 14 -5 13 -9 -7
-25z m506 18 c15 -16 19 -30 5 -22 -5 3 -11 -4 -14 -15 -5 -20 -7 -20 -22 -6
-13 14 -14 20 -3 37 15 24 15 24 34 6z m-650 -23 c-10 -10 -19 5 -10 18 6 11
8 11 12 0 2 -7 1 -15 -2 -18z m209 17 c3 -5 -1 -10 -10 -10 -9 0 -14 -4 -11
-9 3 -5 -1 -11 -9 -14 -12 -5 -12 -2 -3 18 12 27 23 31 33 15z m55 6 c0 -2 -7
-7 -16 -10 -8 -3 -12 -2 -9 4 6 10 25 14 25 6z m-43 -33 c-4 -3 -2 -12 5 -20
8 -11 7 -12 -6 -7 -9 3 -16 9 -16 13 0 9 11 21 18 21 3 0 2 -3 -1 -7z m4153
-9 c0 -8 -5 -12 -10 -9 -6 4 -8 11 -5 16 9 14 15 11 15 -7z m-4320 -10 c0 -8
-4 -12 -10 -9 -5 3 -10 10 -10 16 0 5 5 9 10 9 6 0 10 -7 10 -16z m790 12 c0
-2 -7 -7 -16 -10 -8 -3 -12 -2 -9 4 6 10 25 14 25 6z m-850 -10 c0 -3 -4 -8
-10 -11 -5 -3 -10 -1 -10 4 0 6 5 11 10 11 6 0 10 -2 10 -4z m205 -16 c3 -5 2
-10 -4 -10 -5 0 -13 5 -16 10 -3 6 -2 10 4 10 5 0 13 -4 16 -10z m355 0 c0 -5
-5 -10 -11 -10 -5 0 -7 5 -4 10 3 6 8 10 11 10 2 0 4 -4 4 -10z m-450 -21 c0
-6 -4 -7 -10 -4 -5 3 -10 11 -10 16 0 6 5 7 10 4 6 -3 10 -11 10 -16z m30 -1
c0 -16 -3 -19 -11 -11 -6 6 -8 16 -5 22 11 17 16 13 16 -11z m-90 -18 c0 -5
-5 -10 -11 -10 -5 0 -7 5 -4 10 3 6 8 10 11 10 2 0 4 -4 4 -10z m-60 -9 c0 -5
-6 -14 -14 -20 -12 -10 -13 -8 -9 8 5 21 23 30 23 12z m60 -32 c0 -14 -17 -10
-23 5 -4 10 -1 13 9 9 7 -3 14 -9 14 -14z m4430 6 c0 -8 -7 -15 -15 -15 -13 0
-14 3 -3 15 16 18 18 18 18 0z m-4492 -19 c-7 -8 -15 -12 -17 -11 -5 6 10 25
20 25 5 0 4 -6 -3 -14z m707 -6 c3 -5 1 -10 -4 -10 -6 0 -11 5 -11 10 0 6 2
10 4 10 3 0 8 -4 11 -10z m3835 -11 c0 -15 -18 -19 -23 -6 -3 8 1 14 9 14 8 0
14 -4 14 -8z m-4516 -30 c-3 -5 -14 -9 -25 -9 -16 0 -18 3 -7 19 9 15 16 17
25 9 7 -5 10 -14 7 -19z m-114 -35 c0 -8 -5 -12 -10 -9 -6 4 -8 11 -5 16 9 14
15 11 15 -7z m340 6 c0 -5 -4 -10 -10 -10 -5 0 -10 5 -10 10 0 6 5 10 10 10 6
0 10 -4 10 -10z m-220 -24 c0 -11 -19 -15 -25 -6 -3 5 1 10 9 10 9 0 16 -2 16
-4z m-226 -20 c-3 -8 -1 -17 5 -21 6 -3 11 -16 11 -28 0 -12 -4 -17 -9 -11
-12 13 -22 60 -14 68 10 10 13 7 7 -8z m-110 -13 c-9 -7 -21 -10 -26 -7 -14 9
1 23 23 21 19 -1 19 -2 3 -14z m266 -3 c0 -5 -8 -10 -17 -10 -15 0 -16 2 -3
10 19 12 20 12 20 0z m-280 -22 c0 7 5 12 11 12 5 0 7 -5 4 -11 -4 -6 2 -13
14 -16 11 -3 18 -9 16 -14 -3 -4 -12 -6 -20 -3 -10 4 -12 0 -8 -16 5 -19 3
-20 -38 -14 -54 8 -76 18 -60 28 6 4 11 2 11 -3 0 -6 5 -11 10 -11 6 0 10 7
10 15 0 7 8 19 18 24 16 10 16 10 -1 11 -10 0 -15 5 -12 11 5 7 14 4 26 -7 11
-10 19 -12 19 -6z m93 -23 c-3 -9 -8 -14 -10 -11 -3 3 -2 9 2 15 9 16 15 13 8
-4z m146 -7 c-17 -32 -16 -32 -36 -12 -16 16 -16 17 -1 12 9 -4 22 0 28 8 18
21 22 17 9 -8z m311 -8 c0 -5 -5 -10 -11 -10 -5 0 -7 5 -4 10 3 6 8 10 11 10
2 0 4 -4 4 -10z m-380 -30 c0 -3 -5 -11 -12 -18 -8 -8 -14 -5 -25 15 -17 34
-17 34 12 21 14 -6 25 -14 25 -18z m-98 4 c30 2 45 -28 26 -52 -7 -8 -8 -16
-2 -20 13 -10 16 -32 4 -32 -5 0 -10 5 -10 10 0 6 -10 10 -21 10 -17 0 -19 -3
-10 -14 6 -7 11 -24 10 -37 0 -13 3 -37 7 -53 6 -26 5 -27 -14 -17 -12 6 -26
20 -32 31 -8 15 -6 22 12 35 21 15 22 17 5 26 -12 7 -15 15 -8 26 15 27 -7 50
-43 46 l-31 -3 30 10 c17 6 40 8 53 5 27 -7 30 11 2 18 -11 3 -20 11 -20 19 0
9 3 9 8 2 4 -6 19 -10 34 -10z m328 6 c0 -5 -2 -10 -4 -10 -3 0 -8 5 -11 10
-3 6 -1 10 4 10 6 0 11 -4 11 -10z m-169 -10 c6 0 7 -5 4 -10 -5 -8 -12 -7
-22 2 -15 12 -15 11 -2 -9 17 -28 0 -53 -21 -28 -9 11 -9 15 -1 15 8 0 10 8 6
22 -6 17 -4 20 10 15 9 -4 21 -7 26 -7z m-84 -61 c-9 -6 -13 -17 -10 -29 3
-11 1 -20 -4 -20 -11 0 -9 42 2 60 3 5 11 7 17 4 7 -4 5 -10 -5 -15z m90 -23
c22 6 63 -25 63 -47 0 -8 6 -7 17 2 15 13 15 12 2 -8 -8 -13 -23 -23 -34 -24
-11 0 -14 -3 -7 -6 23 -9 2 -22 -27 -17 -24 5 -30 2 -36 -17 l-7 -22 -19 24
c-11 14 -16 32 -13 43 4 10 6 37 6 59 -1 36 0 38 16 23 10 -9 27 -13 39 -10z
m120 3 c-6 -10 -15 -15 -19 -13 -5 3 -6 9 -3 14 3 5 -3 10 -12 13 -10 2 -4 4
14 4 28 0 30 -2 20 -18z m-347 -19 c12 -8 9 -10 -13 -10 -16 0 -26 4 -22 10 8
12 16 12 35 0z m-42 -41 c3 -12 2 -12 -6 0 -6 8 -15 10 -22 6 -9 -5 -11 -4 -6
4 10 15 28 10 34 -10z m-13 -59 c7 -25 7 -25 -12 -5 -11 11 -18 28 -15 39 6
21 14 10 27 -34z m16 17 c-10 -9 -11 -8 -5 6 3 10 9 15 12 12 3 -3 0 -11 -7
-18z m36 1 c-3 -8 -6 -5 -6 6 -1 11 2 17 5 13 3 -3 4 -12 1 -19z m149 -18 c-1
-22 2 -40 6 -40 3 0 5 -8 3 -17 -2 -10 -4 -22 -4 -28 -1 -5 -6 -3 -11 5 -9 13
-11 13 -20 0 -9 -15 -13 -16 -45 -19 -17 -1 -22 -86 -5 -96 6 -3 10 1 10 9 0
9 7 16 16 16 13 0 12 -5 -5 -29 -15 -21 -27 -28 -41 -24 -22 6 -37 23 -20 23
6 0 8 11 6 25 -3 14 0 25 5 25 5 0 9 5 9 11 0 5 -6 7 -12 3 -10 -6 -10 -4 0 7
6 7 12 21 12 32 0 10 5 15 10 12 6 -3 10 -1 10 4 0 6 -6 11 -12 11 -10 0 -10
2 -1 8 6 4 15 20 19 36 5 20 9 24 15 14 7 -10 9 -9 9 4 0 12 5 15 15 11 9 -3
15 -2 14 3 -3 18 1 34 9 34 5 0 8 -18 8 -40z m-86 -26 c2 -3 -7 -4 -22 -2 -15
2 -30 7 -34 11 -3 3 6 4 22 1 16 -3 31 -7 34 -10z m140 -19 c0 -8 -4 -15 -10
-15 -5 0 -10 7 -10 15 0 8 5 15 10 15 6 0 10 -7 10 -15z m-386 -84 c-7 -15
-13 -18 -24 -11 -13 9 -13 11 -1 19 9 6 11 16 7 27 -7 18 -6 18 10 2 13 -13
15 -22 8 -37z m570 31 c3 -5 -1 -9 -9 -9 -8 0 -12 4 -9 9 3 4 7 8 9 8 2 0 6
-4 9 -8z m-289 -22 c3 -5 1 -10 -4 -10 -6 0 -11 5 -11 10 0 6 2 10 4 10 3 0 8
-4 11 -10z m265 -10 c0 -5 -5 -10 -11 -10 -5 0 -7 5 -4 10 3 6 8 10 11 10 2 0
4 -4 4 -10z m-356 -57 c-17 -18 -18 -33 -1 -34 6 0 -1 -5 -17 -10 -31 -9 -49
-3 -29 9 6 4 13 14 15 21 5 23 32 48 40 37 3 -5 0 -16 -8 -23z m316 13 c0 -3
-4 -8 -10 -11 -5 -3 -10 -1 -10 4 0 6 5 11 10 11 6 0 10 -2 10 -4z m-435 -57
c-7 -10 -35 -1 -35 11 0 5 9 6 20 3 11 -3 17 -9 15 -14z m377 -23 c2 -19 0
-32 -4 -30 -5 3 -11 -2 -14 -10 -3 -9 -10 -14 -15 -11 -4 3 -4 16 1 28 4 12
11 30 14 40 8 26 13 21 18 -17z m-410 6 c-14 -4 -16 -42 -3 -42 6 0 8 -12 7
-27 -2 -16 -4 -32 -5 -37 0 -6 -7 -1 -15 10 -16 21 -26 16 -29 -15 -1 -12 -5
-20 -10 -18 -5 1 -8 6 -7 11 1 4 -7 15 -17 24 -20 18 -23 35 -9 49 5 4 6 3 3
-3 -4 -6 -1 -19 7 -29 11 -15 15 -16 34 -4 25 16 30 34 7 25 -8 -3 -22 3 -32
12 -16 16 -15 17 6 20 13 2 28 -2 32 -10 6 -9 9 -2 9 19 0 26 3 31 17 26 11
-4 12 -8 5 -11z m178 -20 c0 -9 -7 -25 -14 -34 -16 -22 -48 -24 -40 -3 4 8 1
15 -5 15 -6 0 -11 5 -11 11 0 6 7 8 16 5 12 -5 15 -2 10 10 -4 12 -2 15 9 10
8 -3 15 -1 15 5 0 6 5 7 10 4 6 -3 10 -14 10 -23z m-85 -32 c-4 -11 -2 -20 4
-20 19 0 12 -48 -10 -64 -12 -8 -18 -19 -14 -25 3 -6 1 -11 -5 -11 -6 0 -8 -5
-5 -10 4 -6 2 -16 -3 -23 -5 -7 -12 -24 -15 -38 -4 -14 -20 -40 -37 -57 -16
-18 -30 -37 -30 -44 0 -9 -3 -9 -12 0 -9 9 -9 15 -1 23 6 6 9 18 6 26 -3 8 3
20 13 28 11 8 15 15 10 15 -5 0 -3 6 3 14 9 10 7 13 -6 13 -35 0 -44 3 -38 13
3 6 0 10 -8 10 -10 0 -13 7 -10 19 3 12 11 17 19 14 8 -3 11 -10 7 -16 -4 -6
0 -8 10 -4 10 3 17 2 17 -2 0 -5 -6 -12 -12 -14 -7 -3 1 -3 17 -2 17 2 36 4
43 4 6 1 12 13 12 27 0 14 -4 23 -10 19 -5 -3 -7 -12 -4 -20 4 -10 0 -12 -15
-8 -12 3 -21 8 -22 12 0 3 -2 14 -4 24 -2 13 5 22 27 29 22 8 26 13 16 19 -8
6 -9 9 -1 9 6 0 15 10 19 23 7 22 21 37 37 37 5 0 5 -9 2 -20z m261 -11 c-2
-17 -7 -33 -9 -35 -6 -6 -6 49 0 59 10 16 14 5 9 -24z m-483 -8 c2 -10 1 -25
-4 -32 -5 -8 -9 -9 -9 -4 0 6 -3 20 -6 33 -4 12 -2 22 4 22 5 0 12 -9 15 -19z
m-130 -33 c5 -15 4 -16 -13 -5 -11 6 -20 20 -20 30 0 15 2 16 13 5 7 -7 16
-21 20 -30z m98 -16 c-4 -9 -6 -23 -4 -29 3 -8 -4 -13 -15 -13 -11 0 -26 -2
-34 -3 -7 -2 -10 -2 -5 0 4 3 7 11 7 18 0 7 9 15 20 18 11 3 20 13 20 22 0 9
5 13 10 10 6 -4 7 -13 1 -23z m64 8 c-3 -5 0 -10 7 -11 10 0 10 -2 1 -6 -7 -2
-13 -11 -13 -19 0 -12 -4 -12 -20 -4 -11 6 -18 15 -15 21 4 5 11 7 16 4 5 -4
9 1 9 9 0 9 5 16 11 16 5 0 7 -4 4 -10z m386 -43 c-15 -15 -21 -5 -14 22 5 21
7 21 16 6 6 -11 5 -21 -2 -28z m-531 13 c0 -5 -5 -10 -11 -10 -5 0 -7 5 -4 10
3 6 8 10 11 10 2 0 4 -4 4 -10z m24 -62 c4 3 4 -1 0 -11 -3 -9 -10 -17 -15
-17 -5 0 -8 -3 -8 -7 5 -30 -3 -43 -25 -43 -27 0 -43 15 -27 24 5 4 12 2 16
-4 16 -25 24 -6 11 25 -11 25 -11 34 -3 32 7 -1 11 7 10 18 -1 19 -1 19 17 -2
9 -12 21 -19 24 -15z m672 13 c-9 -10 -16 -22 -16 -27 0 -5 -9 -10 -21 -11
-20 -2 -20 -1 -4 18 10 10 15 19 11 19 -18 0 5 16 24 17 21 2 21 1 6 -16z
m-620 -9 c-7 -22 20 -26 44 -8 13 10 13 9 1 -6 -12 -16 -11 -18 3 -18 9 0 16
-4 16 -9 0 -9 -30 -25 -42 -23 -5 1 -8 -6 -8 -15 -1 -17 -2 -17 -15 1 -8 10
-21 16 -29 13 -24 -10 -31 14 -9 32 11 9 23 24 26 34 8 23 20 22 13 -1z m748
10 c3 7 3 2 0 -11 -4 -14 -17 -36 -30 -50 -13 -14 -24 -30 -24 -34 0 -5 -19
-28 -42 -52 -24 -23 -50 -53 -58 -65 -8 -12 -20 -28 -26 -34 -5 -6 -13 -19
-17 -28 -3 -10 -11 -18 -17 -18 -5 0 -10 -5 -10 -11 0 -6 -6 -17 -12 -24 -7
-8 -24 -30 -38 -49 -37 -52 -44 -44 -12 14 15 27 33 50 40 50 6 0 12 12 12 26
0 15 12 37 29 54 16 16 31 36 34 45 4 8 14 15 23 15 9 0 14 6 11 13 -3 7 6 23
19 36 29 28 84 108 84 123 0 7 5 7 14 -1 11 -9 15 -9 20 1z m-363 -70 c-19 -6
-13 -32 7 -26 21 6 -15 -12 -41 -20 -10 -3 -15 -10 -12 -16 3 -5 -1 -10 -9
-10 -10 0 -13 6 -10 15 4 8 10 15 15 15 5 0 9 7 9 15 0 8 9 20 20 27 11 7 21
22 21 33 1 16 3 14 6 -5 3 -13 0 -26 -6 -28z m5470 6 c11 -21 11 -22 -4 -9
-10 7 -17 17 -17 22 0 15 9 10 21 -13z m-5731 -16 c0 -13 -12 -22 -22 -16 -10
6 -1 24 13 24 5 0 9 -4 9 -8z m-70 -16 c0 -11 -19 -15 -25 -6 -3 5 1 10 9 10
9 0 16 -2 16 -4z m-125 -25 c3 -5 1 -12 -5 -16 -5 -3 -10 1 -10 9 0 18 6 21
15 7z m55 -30 c-6 -12 -15 -21 -20 -21 -10 0 -3 28 14 49 15 19 20 -3 6 -28z
m126 12 c-2 -16 -5 -30 -5 -33 -1 -3 -5 2 -10 9 -6 9 -6 22 0 33 14 26 20 22
15 -9z m-80 2 c4 -8 17 -15 30 -15 17 0 24 -6 24 -19 0 -12 -7 -18 -17 -17
-10 0 -17 -5 -15 -11 1 -7 -3 -13 -9 -13 -6 0 -9 6 -6 14 3 8 0 20 -8 26 -16
13 -26 50 -14 50 5 0 12 -7 15 -15z m477 -10 c-3 -9 -8 -14 -10 -11 -3 3 -2 9
2 15 9 16 15 13 8 -4z m-661 -42 c-10 -4 -10 -8 -1 -19 10 -12 9 -13 -5 -8
-24 9 -18 35 8 33 6 0 5 -3 -2 -6z m282 -7 c-3 -8 -12 -12 -20 -9 -17 6 -9 23
11 23 8 0 12 -6 9 -14z m-236 -21 c-3 -3 -9 2 -12 12 -6 14 -5 15 5 6 7 -7 10
-15 7 -18z m42 -17 c0 -19 -2 -20 -10 -8 -13 19 -13 30 0 30 6 0 10 -10 10
-22z m147 -13 c-1 -11 -6 -23 -12 -27 -6 -5 -6 -8 1 -8 18 0 37 28 28 42 -5
10 -4 10 6 1 11 -10 11 -15 1 -27 -7 -8 -9 -21 -5 -27 4 -8 3 -9 -5 -5 -6 4
-14 0 -17 -9 -5 -12 -10 -13 -20 -4 -11 9 -16 5 -25 -15 -7 -14 -16 -23 -20
-20 -5 3 -9 0 -9 -6 0 -7 9 -14 20 -17 11 -3 20 -13 20 -22 0 -13 -2 -13 -9
-2 -5 8 -16 11 -25 8 -10 -4 -16 -1 -16 8 0 8 -6 15 -14 15 -8 0 -13 8 -12 18
2 9 9 17 17 17 7 0 18 10 25 22 6 13 15 20 20 15 5 -4 0 3 -10 16 -19 22 -19
22 4 22 15 0 20 5 17 14 -4 10 2 13 18 12 17 -1 23 -6 22 -21z m-117 -41 c0
-7 -6 -11 -13 -8 -8 3 -14 11 -14 18 0 8 6 12 14 9 7 -3 13 -11 13 -19z m-115
6 c3 -5 2 -10 -4 -10 -5 0 -13 5 -16 10 -3 6 -2 10 4 10 5 0 13 -4 16 -10z
m-55 -46 c0 -8 -4 -12 -10 -9 -5 3 -10 10 -10 16 0 5 5 9 10 9 6 0 10 -7 10
-16z m74 -19 c-4 -8 -11 -12 -16 -9 -6 4 -5 10 3 15 19 12 19 11 13 -6z m61 5
c3 -6 -1 -7 -9 -4 -18 7 -21 14 -7 14 6 0 13 -4 16 -10z m-120 -20 c-3 -5 -12
-7 -20 -3 -21 7 -19 13 6 13 11 0 18 -4 14 -10z m165 -12 c11 -3 9 -6 -6 -10
-15 -4 -20 0 -22 16 0 11 2 16 6 10 4 -6 14 -13 22 -16z m6026 -35 c-10 -10
-19 5 -10 18 6 11 8 11 12 0 2 -7 1 -15 -2 -18z m-6155 0 c8 -10 9 -14 2 -10
-6 4 -14 3 -18 -3 -4 -6 -11 -8 -16 -5 -5 4 -3 12 4 20 15 18 12 18 28 -2z
m129 7 c0 -5 -5 -10 -11 -10 -5 0 -7 5 -4 10 3 6 8 10 11 10 2 0 4 -4 4 -10z
m-215 -21 c-4 -5 0 -12 9 -15 15 -6 11 -34 -5 -34 -4 0 -6 7 -3 15 4 8 1 15
-4 15 -6 0 -10 9 -9 19 0 11 5 17 9 15 5 -3 6 -10 3 -15z m243 -7 c-16 -9 -28
-23 -28 -32 0 -13 -1 -13 -10 0 -15 23 -12 27 18 38 42 16 50 13 20 -6z m-273
-2 c-3 -5 -13 -10 -21 -10 -8 0 -12 5 -9 10 3 6 13 10 21 10 8 0 12 -4 9 -10z
m679 -71 c-15 -30 -33 -58 -39 -64 -7 -5 -27 -45 -45 -87 -19 -43 -35 -76 -38
-73 -2 2 1 26 7 52 7 26 12 53 13 58 1 6 6 15 10 20 5 6 20 24 33 40 14 17 25
34 25 39 0 17 55 96 58 83 2 -8 -9 -38 -24 -68z m-400 43 c-7 -4 -14 -16 -17
-27 -4 -15 -5 -14 -6 8 -1 20 4 27 17 27 11 0 13 -3 6 -8z m-39 -42 c0 -3 3
-9 6 -15 4 -5 3 -19 -2 -30 -9 -23 -11 -20 -14 15 -1 14 -5 36 -9 50 -6 23 -6
24 6 5 7 -11 13 -22 13 -25z m-115 -34 c-7 -7 -10 1 -9 25 0 32 1 33 10 10 6
-16 6 -28 -1 -35z m-20 17 c0 -19 -13 -9 -16 12 -1 8 2 13 7 9 5 -3 9 -12 9
-21z m91 -51 c-6 -2 -11 -10 -11 -18 0 -9 4 -13 8 -10 14 8 7 -33 -8 -47 -10
-10 -12 -9 -7 5 4 12 2 15 -9 11 -7 -3 -14 0 -14 6 0 6 4 11 9 11 4 0 8 10 8
23 1 49 2 51 19 36 10 -8 12 -15 5 -17z m-116 -2 c3 -5 1 -10 -4 -10 -6 0 -11
5 -11 10 0 6 2 10 4 10 3 0 8 -4 11 -10z m57 -20 c-12 -12 -22 -18 -22 -14 0
10 34 42 39 38 3 -2 -5 -13 -17 -24z m-55 -22 c-3 -8 -6 -5 -6 6 -1 11 2 17 5
13 3 -3 4 -12 1 -19z m-76 -22 c-7 -8 -10 -20 -6 -26 5 -9 -1 -12 -21 -9 -4 0
-10 -5 -14 -11 -9 -15 -30 -4 -30 15 0 8 5 17 12 21 7 5 9 2 5 -9 -4 -11 -2
-14 8 -11 8 3 11 12 8 20 -3 9 2 14 16 14 12 0 21 5 21 12 0 6 3 8 6 5 4 -4 1
-13 -5 -21z m54 14 c3 -5 1 -10 -4 -10 -6 0 -11 5 -11 10 0 6 2 10 4 10 3 0 8
-4 11 -10z m147 -43 c8 -13 -2 -38 -12 -32 -15 9 -21 -12 -11 -37 12 -31 -2
-59 -21 -40 -9 9 -9 15 -1 23 7 7 8 22 1 45 -5 19 -7 38 -4 42 7 12 40 11 48
-1z m-278 -23 c3 -8 2 -13 -3 -9 -5 3 -12 -1 -14 -7 -3 -7 -6 -3 -6 10 -1 25
14 30 23 6z m-49 -13 c3 -5 1 -12 -5 -16 -5 -3 -10 1 -10 9 0 18 6 21 15 7z
m85 -41 c4 0 6 -10 3 -21 -4 -14 0 -25 11 -31 20 -11 21 -25 1 -25 -8 0 -15 6
-15 14 0 7 -3 13 -8 13 -4 0 -8 19 -8 43 -1 23 1 34 3 25 3 -10 8 -18 13 -18z
m30 20 c0 -5 -5 -10 -11 -10 -5 0 -7 5 -4 10 3 6 8 10 11 10 2 0 4 -4 4 -10z
m-56 -61 c-11 -18 -22 -8 -26 23 l-5 32 18 -23 c11 -13 16 -27 13 -32z m111
31 c3 -5 1 -10 -4 -10 -6 0 -11 5 -11 10 0 6 2 10 4 10 3 0 8 -4 11 -10z m15
-61 c0 -5 -4 -9 -10 -9 -5 0 -10 7 -10 16 0 8 5 12 10 9 6 -3 10 -10 10 -16z
m97 -14 c0 -8 -4 -15 -9 -15 -4 0 -8 7 -8 15 0 8 4 15 8 15 5 0 9 -7 9 -15z
m458 -7 c-4 -32 -16 -58 -26 -58 -12 0 -12 17 1 25 5 3 6 13 3 21 -5 12 10 33
24 34 1 0 0 -10 -2 -22z m-475 -28 c0 -5 -2 -10 -4 -10 -3 0 -8 5 -11 10 -3 6
-1 10 4 10 6 0 11 -4 11 -10z m33 -31 c-13 -13 -53 -20 -53 -8 0 5 9 9 19 9
10 0 22 8 26 18 5 12 9 14 12 4 3 -8 1 -18 -4 -23z m-113 2 c0 -5 -12 -16 -26
-25 -24 -16 -25 -16 -22 1 4 23 48 45 48 24z m410 -24 c0 -7 11 -28 25 -47 23
-31 25 -50 4 -50 -5 0 -17 17 -27 38 -9 20 -21 40 -27 44 -6 5 -5 8 3 8 7 0
10 5 7 10 -3 6 -1 10 4 10 6 0 11 -6 11 -13z m-525 -31 c29 7 38 -7 40 -67 l1
-49 -35 0 c-33 1 -34 2 -18 14 10 8 18 18 19 23 0 4 5 7 12 5 6 -1 2 5 -8 13
-15 12 -16 15 -5 15 9 0 16 7 16 15 0 8 -9 15 -20 15 -11 0 -18 -3 -14 -6 9
-9 -16 -32 -29 -27 -7 2 -10 13 -7 24 3 10 0 25 -6 33 -9 11 -9 15 1 19 7 2
17 -4 22 -14 6 -13 16 -17 31 -13z m0 24 c3 -5 1 -10 -4 -10 -6 0 -11 5 -11
10 0 6 2 10 4 10 3 0 8 -4 11 -10z m35 0 c0 -5 -2 -10 -4 -10 -3 0 -8 5 -11
10 -3 6 -1 10 4 10 6 0 11 -4 11 -10z m-110 -40 c0 -5 -4 -10 -10 -10 -5 0
-10 5 -10 10 0 6 5 10 10 10 6 0 10 -4 10 -10z m230 -15 c0 -8 -32 -35 -41
-35 -16 0 -10 18 9 23 13 4 11 5 -5 6 -13 0 -23 7 -23 15 0 12 6 13 30 5 17
-6 30 -12 30 -14z m58 -25 c0 -47 -10 -65 -21 -37 -8 17 -27 -12 -20 -30 3 -7
0 -13 -6 -13 -6 0 -11 18 -11 43 0 37 4 46 25 55 14 6 25 16 25 22 0 5 2 10 4
10 3 0 5 -22 4 -50z m299 1 c12 -25 19 -49 16 -55 -6 -8 -22 21 -27 49 -4 23
-18 37 -26 25 -5 -8 -9 -5 -12 8 -10 38 27 18 49 -27z m-582 8 c11 -16 1 -19
-13 -3 -7 8 -8 14 -3 14 5 0 13 -5 16 -11z m-74 -39 c5 0 12 7 15 15 5 11 10
13 19 5 9 -8 14 -7 18 2 4 9 6 8 6 -3 1 -18 -25 -33 -40 -23 -5 3 -9 0 -9 -5
0 -6 -12 -11 -26 -11 -14 0 -23 4 -19 10 3 6 0 10 -7 10 -8 1 -5 7 7 16 18 13
20 13 23 0 2 -9 8 -16 13 -16z m99 1 c0 -5 -7 -11 -14 -14 -10 -4 -13 -1 -9 9
6 15 23 19 23 5z m6490 -23 c0 -16 -3 -19 -11 -11 -6 6 -8 16 -5 22 11 17 16
13 16 -11z m-6356 -13 c3 -8 1 -15 -4 -15 -6 0 -10 7 -10 15 0 8 2 15 4 15 2
0 6 -7 10 -15z m-193 -9 c5 3 16 -1 24 -9 13 -13 13 -17 0 -27 -14 -12 -20 -7
-15 15 1 6 -4 4 -11 -2 -15 -15 -39 -17 -39 -3 0 5 7 7 16 3 13 -5 15 -1 10
18 -3 13 -3 18 0 11 3 -6 10 -10 15 -6z m130 -6 c23 -13 26 -50 4 -50 -12 0
-14 4 -6 18 8 14 4 19 -22 29 -19 7 -25 12 -14 12 10 1 27 -4 38 -9z m177 -57
l27 -6 -28 -10 c-15 -5 -27 -15 -27 -23 0 -9 5 -12 10 -9 6 3 10 1 10 -4 0 -6
-4 -11 -10 -11 -5 0 -10 -7 -10 -15 0 -18 20 -20 20 -2 0 6 5 4 11 -6 9 -15 7
-22 -10 -34 -12 -8 -19 -19 -16 -24 4 -5 -2 -9 -12 -9 -12 0 -14 -3 -6 -8 7
-4 9 -13 4 -21 -6 -9 -10 -7 -14 9 -3 12 -10 19 -16 15 -6 -3 -11 -1 -11 4 0
6 6 11 13 11 7 0 20 9 29 20 17 19 16 19 -15 13 -31 -5 -31 -5 -12 10 12 10
15 16 7 17 -10 0 -10 5 -1 23 12 21 11 21 -7 7 -12 -9 -11 -5 5 12 17 19 22
34 17 51 -3 13 -2 27 2 31 4 5 8 -2 10 -13 2 -13 14 -24 30 -28z m235 13 c-7
-38 -13 -46 -13 -18 0 11 -2 27 -5 35 -4 8 0 14 9 14 11 0 13 -8 9 -31z m-470
-2 c-6 -16 -16 -11 -19 11 -1 8 4 11 11 8 8 -2 11 -11 8 -19z m187 -4 c0 -5
-8 -10 -17 -10 -15 0 -16 2 -3 10 19 12 20 12 20 0z m-120 -25 c0 -8 -4 -15
-8 -15 -5 0 -9 7 -9 15 0 8 4 15 9 15 4 0 8 -7 8 -15z m6415 -63 c-3 -31 -5
-64 -5 -72 0 -12 -2 -12 -10 2 -10 17 -7 78 4 97 4 5 2 12 -4 16 -6 4 -8 11
-4 16 13 22 22 -5 19 -59z m-5954 -4 c-2 -24 -2 -51 -2 -60 0 -21 -17 -24 -25
-4 -6 16 -36 15 -42 -2 -2 -7 -9 -12 -15 -12 -8 0 -8 3 1 12 7 7 8 17 1 30 -8
15 -5 20 16 28 15 6 30 8 35 5 12 -7 19 20 13 47 -5 18 -3 21 7 11 7 -6 12
-30 11 -55z m-31 32 c0 -5 -5 -10 -11 -10 -5 0 -7 5 -4 10 3 6 8 10 11 10 2 0
4 -4 4 -10z m-406 -45 c3 -8 1 -15 -4 -15 -6 0 -10 7 -10 15 0 8 2 15 4 15 2
0 6 -7 10 -15z m-87 -27 c-3 -8 -6 -5 -6 6 -1 11 2 17 5 13 3 -3 4 -12 1 -19z
m59 -14 c7 -28 -6 -43 -41 -45 -11 0 -14 -3 -7 -6 6 -2 12 -9 12 -15 0 -6 -9
-3 -20 7 -15 14 -17 21 -8 26 7 4 16 5 20 3 4 -3 8 4 8 15 0 12 5 21 11 21 5
0 7 5 4 10 -3 6 -2 10 4 10 6 0 14 -12 17 -26z m37 -21 c-5 -11 -8 -12 -13 -2
-5 7 -6 19 -3 26 5 11 8 12 13 2 5 -7 6 -19 3 -26z m-133 0 c0 -19 -3 -24 -10
-17 -6 6 -8 18 -4 27 9 24 14 21 14 -10z m252 -41 c-7 -2 -12 -8 -12 -14 0 -6
6 -8 13 -5 8 3 14 -1 14 -9 0 -8 -6 -14 -13 -14 -15 0 -26 -28 -17 -42 3 -6 2
-8 -4 -5 -16 10 -13 68 5 93 9 12 19 17 21 11 2 -6 -1 -13 -7 -15z m38 13 c0
-8 -2 -15 -4 -15 -2 0 -6 7 -10 15 -3 8 -1 15 4 15 6 0 10 -7 10 -15z m287
-38 c-16 -30 -29 -23 -41 23 -7 23 -6 24 8 6 16 -20 35 -14 37 12 1 14 2 14 6
1 2 -8 -3 -27 -10 -42z m-613 27 c3 -8 2 -12 -4 -9 -6 3 -10 -1 -10 -9 0 -9
-4 -16 -10 -16 -6 0 -5 10 2 25 13 29 14 30 22 9z m6546 -51 c0 -29 -12 -24
-17 7 -2 11 2 20 7 20 6 0 10 -12 10 -27z m-6351 -5 c-1 -17 -3 -18 -6 -6 -2
10 -10 15 -19 11 -8 -3 -14 0 -14 6 0 6 9 11 20 11 14 0 20 -6 19 -22z m401
-155 c0 -73 -4 -133 -8 -133 -9 0 -47 61 -46 75 1 27 17 75 25 75 18 0 9 28
-11 33 -12 3 -20 14 -20 26 0 23 15 28 24 9 4 -9 5 -8 5 2 -1 8 -1 31 0 50 2
33 2 34 16 16 12 -15 15 -51 15 -153z m-553 134 c3 -4 -5 -7 -20 -7 -14 0 -28
4 -31 8 -5 9 41 8 51 -1z m608 -16 c-9 -16 -25 -3 -18 15 4 10 9 12 15 6 6 -6
7 -15 3 -21z m-562 -22 c-5 -18 -6 -18 -18 -2 -9 12 -9 20 -1 29 14 15 25 -1
19 -27z m207 1 c0 -5 -5 -10 -11 -10 -5 0 -7 5 -4 10 3 6 8 10 11 10 2 0 4 -4
4 -10z m340 -20 c0 -5 -5 -10 -11 -10 -5 0 -7 5 -4 10 3 6 8 10 11 10 2 0 4
-4 4 -10z m-490 -14 c0 -2 -6 -9 -13 -15 -10 -8 -14 -7 -14 4 0 8 6 15 14 15
7 0 13 -2 13 -4z m180 -6 c0 -5 -2 -10 -4 -10 -3 0 -8 5 -11 10 -3 6 -1 10 4
10 6 0 11 -4 11 -10z m-30 -4 c0 -11 -19 -15 -25 -6 -3 5 1 10 9 10 9 0 16 -2
16 -4z m38 -59 c-1 -2 3 -11 11 -20 11 -14 11 -18 -3 -23 -10 -4 -15 -13 -12
-20 10 -26 -3 -14 -18 18 -20 39 -20 49 -1 42 8 -4 15 -1 15 7 0 7 3 10 6 7 3
-4 4 -8 2 -11z m-123 -57 c3 -6 -1 -7 -9 -4 -18 7 -21 14 -7 14 6 0 13 -4 16
-10z m435 -27 c0 -22 -2 -25 -10 -13 -13 20 -13 40 0 40 6 0 10 -12 10 -27z
m-460 7 c0 -5 -5 -10 -11 -10 -5 0 -7 5 -4 10 3 6 8 10 11 10 2 0 4 -4 4 -10z
m95 0 c3 -5 1 -10 -4 -10 -6 0 -11 5 -11 10 0 6 2 10 4 10 3 0 8 -4 11 -10z
m75 -44 c0 -3 -4 -8 -10 -11 -5 -3 -10 -1 -10 4 0 6 5 11 10 11 6 0 10 -2 10
-4z m-36 -21 c-4 -8 -11 -12 -16 -9 -6 4 -5 10 3 15 19 12 19 11 13 -6z m341
5 c3 -5 1 -18 -4 -27 -6 -10 -11 -16 -11 -13 -8 38 -8 50 -1 50 6 0 13 -4 16
-10z m-297 -35 c-3 -3 -9 2 -12 12 -6 14 -5 15 5 6 7 -7 10 -15 7 -18z m-148
11 c0 -3 -4 -8 -10 -11 -5 -3 -10 -1 -10 4 0 6 5 11 10 11 6 0 10 -2 10 -4z
m186 -11 c5 -11 10 -13 19 -5 7 6 16 7 19 2 3 -5 -4 -16 -15 -25 -20 -18 -25
-37 -9 -37 6 0 10 4 10 8 0 5 7 9 15 9 19 0 19 -12 -1 -31 -18 -19 -34 -21
-34 -4 0 6 -10 23 -22 36 l-23 25 23 -12 c14 -8 22 -8 22 -1 0 5 -4 10 -9 10
-5 0 -11 9 -14 20 -6 23 11 27 19 5z m-82 -12 c5 -4 6 -1 2 5 -4 7 -2 12 3 12
6 0 11 -9 11 -19 0 -11 5 -23 10 -26 6 -3 10 -16 10 -28 0 -18 -6 -22 -32 -22
-18 0 -36 4 -40 10 -5 6 -8 2 -8 -7 0 -10 -4 -18 -8 -18 -14 0 -32 -48 -26
-67 5 -15 4 -16 -5 -3 -14 19 -14 50 -1 50 6 0 10 5 10 11 0 6 7 18 16 26 11
12 12 18 4 23 -8 5 -7 9 5 13 9 4 13 3 10 -3 -3 -6 1 -10 9 -10 20 0 20 2 -3
29 -16 18 -20 19 -31 6 -7 -8 -22 -15 -34 -14 -11 0 -15 3 -8 6 6 2 12 14 12
24 0 18 5 19 42 14 24 -4 47 -9 52 -12z m345 -73 c4 0 7 -16 8 -35 1 -19 -3
-35 -9 -35 -5 0 -7 4 -4 9 4 5 1 11 -5 13 -11 4 -15 43 -9 83 2 15 4 13 7 -7
2 -16 8 -28 12 -28z m-649 -5 c0 -17 -25 -20 -35 -5 -4 6 1 7 11 3 12 -4 15
-3 10 5 -4 7 -2 12 3 12 6 0 11 -7 11 -15z m187 -30 c-13 -28 -29 -32 -46 -12
-13 16 -5 28 15 20 8 -3 14 0 14 6 0 6 6 11 14 11 11 0 12 -5 3 -25z m147 16
c4 -5 2 -11 -3 -13 -6 -1 -11 -27 -12 -55 -3 -54 -8 -63 -27 -40 -12 14 -8 43
12 90 11 28 21 34 30 18z m55 -75 c1 -6 -6 -1 -14 10 -8 11 -15 14 -15 7 0
-18 -17 -16 -23 1 -4 10 -1 13 7 10 8 -3 17 0 22 7 5 9 9 7 15 -7 4 -10 8 -23
8 -28z m271 4 c0 -5 0 -12 0 -15 0 -14 -13 -8 -16 8 -1 9 2 17 7 17 5 0 9 -4
9 -10z m-248 -48 c-7 -5 -10 -16 -6 -25 3 -10 1 -17 -5 -17 -6 0 -11 7 -11 16
0 8 -5 12 -11 9 -6 -4 -8 -14 -4 -24 4 -11 3 -13 -5 -5 -14 14 -3 42 18 47 29
8 38 7 24 -1z m-52 -11 c0 -6 -4 -13 -10 -16 -5 -3 -10 1 -10 9 0 9 5 16 10
16 6 0 10 -4 10 -9z m-15 -57 c11 4 15 0 13 -12 -2 -12 3 -16 17 -15 19 1 19
1 3 -11 -10 -7 -18 -19 -18 -25 0 -7 8 -11 18 -10 9 1 22 1 28 0 15 -1 25 -39
12 -47 -5 -3 -7 -12 -4 -20 8 -22 -14 -28 -33 -8 -19 21 -21 26 -21 49 0 8 -5
15 -11 15 -5 0 -7 -6 -3 -12 4 -8 2 -8 -7 1 -11 10 -11 15 -1 18 6 3 12 14 12
25 0 13 -5 18 -13 15 -8 -3 -20 -1 -27 3 -11 7 -11 11 -1 23 8 11 9 17 1 22
-6 3 -7 11 -4 17 5 7 11 2 16 -11 5 -15 13 -21 23 -17z m-245 16 c0 -5 -4 -10
-10 -10 -5 0 -10 5 -10 10 0 6 5 10 10 10 6 0 10 -4 10 -10z m297 -22 c-3 -8
-6 -5 -6 6 -1 11 2 17 5 13 3 -3 4 -12 1 -19z m63 7 c0 -8 -4 -15 -10 -15 -5
0 -10 -9 -10 -20 0 -12 -7 -20 -17 -20 -14 0 -15 2 -5 9 7 4 12 12 11 17 -1 5
-1 17 0 27 1 21 31 23 31 2z m68 -25 c2 -23 -1 -28 -13 -24 -18 7 -18 9 -5 35
14 25 15 24 18 -11z m-288 -10 c0 -5 -8 -10 -17 -10 -15 0 -16 2 -3 10 19 12
20 12 20 0z m34 -11 c-3 -5 -10 -7 -15 -3 -5 3 -7 10 -3 15 3 5 10 7 15 3 5
-3 7 -10 3 -15z m-86 -13 c-7 -8 -17 -12 -22 -9 -4 3 -2 9 5 14 22 13 31 11
17 -5z m391 -51 c0 -5 -4 -2 -10 9 -9 15 -13 16 -20 5 -7 -11 -9 -11 -9 2 0 9
3 19 7 22 7 7 32 -22 32 -38z m-347 -10 l-4 -37 -16 32 c-13 27 -13 33 -2 40
21 13 27 5 22 -35z m-88 3 c-9 -15 -22 -8 -19 10 2 9 4 19 4 22 1 3 5 -2 10
-10 6 -8 7 -18 5 -22z m121 2 c3 -5 -1 -10 -10 -10 -9 0 -13 5 -10 10 3 6 8
10 10 10 2 0 7 -4 10 -10z m35 -26 c0 -1 -8 -11 -19 -23 l-19 -21 -4 24 c-4
20 -1 23 19 22 12 0 23 -1 23 -2z m300 -16 c0 -18 -2 -20 -9 -8 -6 8 -7 18 -5
22 9 14 14 9 14 -14z m-146 -3 c-4 -8 -8 -15 -10 -15 -2 0 -4 7 -4 15 0 8 4
15 10 15 5 0 7 -7 4 -15z m101 -9 c10 -10 11 -16 2 -25 -18 -18 -27 -13 -27
14 0 28 6 31 25 11z m-355 -6 c0 -5 -5 -10 -11 -10 -5 0 -7 5 -4 10 3 6 8 10
11 10 2 0 4 -4 4 -10z m150 0 c0 -5 -2 -10 -4 -10 -3 0 -8 5 -11 10 -3 6 -1
10 4 10 6 0 11 -4 11 -10z m168 -19 c3 -8 0 -11 -7 -7 -11 7 -15 -4 -12 -36 1
-10 -3 -18 -8 -18 -6 0 -11 18 -11 41 0 32 3 40 17 37 9 -2 18 -9 21 -17z
m-301 -7 c-3 -3 -12 -4 -19 -1 -8 3 -5 6 6 6 11 1 17 -2 13 -5z m248 -4 c3 -5
1 -10 -4 -10 -6 0 -11 5 -11 10 0 6 2 10 4 10 3 0 8 -4 11 -10z m169 -16 c5
-14 4 -15 -9 -4 -17 14 -19 20 -6 20 5 0 12 -7 15 -16z m-368 -20 c-18 -17
-23 -18 -23 -1 0 7 9 14 19 14 16 2 16 0 4 -13z m156 -6 c-7 -7 -12 -8 -12 -2
0 14 12 26 19 19 2 -3 -1 -11 -7 -17z m38 -18 c0 -5 -5 -10 -11 -10 -5 0 -7 5
-4 10 3 6 8 10 11 10 2 0 4 -4 4 -10z m-43 -33 c-6 -19 -23 -18 -23 2 0 11 5
17 14 14 7 -3 11 -10 9 -16z m-47 3 c0 -5 -11 -9 -24 -8 -14 1 -22 6 -20 10 7
12 44 10 44 -2z m115 -12 c6 -1 9 -11 8 -20 -2 -11 4 -16 17 -15 10 1 16 5 14
9 -3 4 -1 8 4 8 5 0 13 10 17 23 8 21 8 21 12 -6 3 -20 -2 -33 -19 -46 -15
-13 -25 -15 -29 -9 -13 21 -37 1 -32 -26 3 -15 1 -26 -6 -26 -6 0 -11 -8 -12
-17 0 -12 -2 -13 -6 -5 -3 7 0 19 6 26 9 10 8 15 -4 20 -22 8 -19 33 5 39 23
6 17 37 -6 37 -8 0 -14 7 -14 15 0 12 4 13 18 6 9 -5 22 -11 27 -13z m-323 -3
c0 -5 -5 -11 -11 -13 -6 -2 -11 4 -11 13 0 9 5 15 11 13 6 -2 11 -8 11 -13z
m110 2 c-7 -8 -6 -18 4 -31 10 -14 14 -16 14 -5 1 9 7 7 19 -8 11 -13 22 -23
26 -23 7 0 35 -26 35 -33 0 -3 -9 -3 -20 0 -16 4 -20 0 -20 -18 0 -22 0 -22
-14 -3 -8 10 -11 20 -6 22 14 5 -24 42 -48 47 -14 2 -23 -3 -27 -15 -4 -12
-12 -16 -25 -13 -11 3 -17 9 -14 14 3 5 0 9 -6 9 -6 0 -8 5 -5 10 4 6 10 8 15
5 4 -3 6 5 2 17 -5 20 -3 21 11 10 13 -11 17 -10 27 7 6 12 18 21 27 21 11 0
13 -3 5 -13z m403 -37 c19 -38 19 -50 -2 -50 -13 0 -14 3 -5 12 8 8 6 18 -9
40 -11 15 -16 28 -10 28 6 0 17 -13 26 -30z m-306 -19 c-6 -2 -16 2 -22 9 -9
10 -9 11 1 6 7 -4 12 -2 12 6 0 9 3 9 10 -2 6 -10 6 -16 -1 -19z m196 -12 c4
-6 4 -13 0 -17 -3 -3 -10 0 -15 8 -7 11 -10 9 -10 -12 0 -15 -5 -30 -11 -34
-8 -4 -9 0 -4 15 4 12 2 21 -4 21 -6 0 -10 -3 -9 -7 4 -15 -21 -73 -31 -73
-16 0 -13 16 4 30 9 7 13 23 11 36 -3 14 -1 22 3 19 5 -2 14 2 21 10 15 18 36
20 45 4z m40 -9 c3 -5 -1 -10 -10 -10 -9 0 -13 5 -10 10 3 6 8 10 10 10 2 0 7
-4 10 -10z m-186 -53 c11 3 21 -2 24 -11 5 -12 1 -15 -15 -13 -14 1 -27 -7
-36 -23 l-14 -25 6 25 c3 14 6 39 7 55 1 22 3 24 6 9 3 -15 10 -20 22 -17z
m271 0 c-10 -9 -11 -9 -6 1 4 7 2 12 -6 12 -9 0 -9 3 2 10 19 12 27 -7 10 -23z
m47 -4 c-3 -3 -11 -2 -17 2 -9 6 -9 10 1 16 14 8 27 -7 16 -18z m-189 0 c-4
-14 13 -53 23 -53 5 0 4 -9 -3 -20 -7 -11 -19 -18 -27 -15 -8 3 -11 0 -8 -8 3
-8 1 -20 -4 -28 -7 -11 -9 -12 -9 0 0 9 -9 12 -30 9 -16 -3 -30 -1 -30 4 0 4
5 8 10 8 6 0 10 6 10 14 0 9 7 12 19 9 11 -3 21 2 24 11 4 10 1 13 -9 9 -9 -3
-14 1 -14 12 0 9 4 14 9 11 4 -3 13 6 19 19 11 23 25 35 20 18z m235 -50 c-21
-8 -15 -26 7 -20 14 3 27 -5 45 -28 14 -19 25 -40 25 -47 0 -7 14 -26 31 -42
19 -18 28 -35 24 -45 -3 -8 -3 -13 0 -9 10 10 42 -25 37 -39 -2 -7 1 -13 7
-13 6 0 11 -10 12 -22 0 -13 3 -17 6 -10 6 15 33 16 33 1 0 -16 40 -101 63
-133 19 -27 57 -96 57 -103 0 -2 -10 -4 -22 -4 -17 -1 -19 -2 -5 -6 9 -2 17
-10 17 -16 0 -7 4 -6 10 3 8 13 10 13 10 -2 0 -23 -16 -32 -24 -12 -3 8 -10
13 -15 9 -5 -3 -12 -1 -16 5 -4 6 -11 7 -17 4 -6 -4 -9 4 -8 17 3 31 -10 70
-20 64 -4 -3 -10 2 -14 10 -3 8 -15 15 -26 15 -11 0 -20 4 -20 8 0 4 -18 9
-39 10 -49 3 -79 -22 -72 -61 1 -5 -9 -5 -21 -2 -23 7 -23 7 -3 -10 11 -9 14
-13 7 -10 -9 5 -15 -1 -19 -14 -3 -12 -9 -21 -13 -21 -5 0 -16 -3 -24 -6 -14
-5 -15 -2 -6 20 6 18 6 26 -1 26 -6 0 -8 4 -5 9 3 5 -8 14 -24 20 -32 11 -37
20 -18 39 9 9 8 12 -6 12 -9 0 -15 -4 -12 -8 2 -4 0 -14 -5 -22 -8 -13 -10
-13 -19 0 -8 12 -11 13 -19 1 -5 -8 -11 -9 -15 -3 -3 6 4 14 16 18 13 4 26 12
30 18 10 15 10 58 1 53 -5 -3 -14 1 -20 9 -8 8 -9 15 -3 19 6 3 10 11 10 16 0
6 -5 7 -12 3 -6 -4 -8 -3 -4 4 3 6 15 10 26 9 10 -1 17 -3 15 -5 -2 -2 5 -12
16 -23 14 -14 24 -17 43 -9 18 7 26 5 30 -6 3 -8 10 -14 16 -14 7 0 7 7 -1 21
-9 17 -8 23 2 30 16 10 33 -15 25 -37 -7 -19 -3 -18 25 7 21 18 25 19 35 4 10
-13 12 -13 17 -1 3 8 -1 17 -9 20 -20 8 -17 26 4 20 9 -3 6 2 -8 10 -14 8 -21
15 -17 16 4 0 2 6 -5 14 -7 8 -16 12 -20 10 -4 -2 -9 0 -12 5 -3 5 1 12 9 15
13 5 14 10 5 27 -9 15 -15 18 -23 10 -17 -17 -26 -13 -20 9 4 16 0 20 -17 20
-20 0 -22 4 -17 34 6 39 -14 76 -43 76 -24 0 -36 20 -19 31 8 5 9 9 4 9 -6 0
-16 -5 -23 -12 -9 -9 -12 -8 -12 5 0 10 8 17 20 17 12 0 20 7 20 17 0 15 4 14
23 -6 15 -16 18 -25 10 -28z m-469 13 c-3 -9 -13 -12 -27 -8 l-22 7 23 3 c13
2 20 8 16 14 -4 7 -2 8 4 4 6 -4 9 -13 6 -20z m5991 15 c3 -5 1 -12 -5 -16 -5
-3 -10 1 -10 9 0 18 6 21 15 7z m-5685 -15 c-14 -7 -29 -10 -34 -8 -11 6 20
20 44 21 8 0 4 -5 -10 -13z m60 -56 c-6 -37 -8 -40 -9 -13 -1 29 8 68 14 61 1
-2 -1 -23 -5 -48z m5620 20 c0 -11 -7 -20 -15 -20 -17 0 -18 2 -9 24 9 23 24
20 24 -4z m-5652 -7 c-6 -7 -14 -10 -19 -7 -5 3 -9 0 -9 -5 0 -6 -7 -11 -15
-11 -8 0 -15 8 -15 18 0 13 8 17 34 17 26 0 32 -3 24 -12z m-189 -21 c-15 -23
-80 -27 -72 -4 4 9 8 10 13 2 7 -12 40 -3 40 11 0 5 7 9 15 9 12 0 13 -4 4
-18z m261 -6 c0 -3 -4 -8 -10 -11 -5 -3 -10 -1 -10 4 0 6 5 11 10 11 6 0 10
-2 10 -4z m-105 -59 c1 -14 -6 -34 -13 -44 -13 -16 -14 -16 -9 0 4 11 1 17 -8
17 -8 0 -15 5 -15 10 0 6 5 10 10 10 7 0 7 6 0 19 -15 28 -13 31 13 22 15 -6
22 -17 22 -34z m-280 13 c3 -6 -1 -7 -9 -4 -18 7 -21 14 -7 14 6 0 13 -4 16
-10z m130 -10 c19 0 39 -37 25 -45 -5 -3 -10 3 -10 13 0 11 -9 22 -20 25 -11
3 -20 11 -19 19 0 10 2 10 6 1 2 -7 11 -13 18 -13z m220 11 c3 -5 1 -12 -5
-16 -5 -3 -10 1 -10 9 0 18 6 21 15 7z m70 -10 c-3 -6 -11 -11 -16 -11 -5 0
-4 6 3 14 14 16 24 13 13 -3z m35 15 c0 -3 -4 -8 -10 -11 -5 -3 -10 -1 -10 4
0 6 5 11 10 11 6 0 10 -2 10 -4z m-230 -22 c0 -2 -7 -4 -15 -4 -8 0 -15 4 -15
10 0 5 7 7 15 4 8 -4 15 -8 15 -10z m-137 -31 c-4 -11 -3 -14 5 -9 17 11 14
-16 -5 -39 -11 -14 -14 -15 -10 -4 3 9 -2 27 -10 40 -9 12 -11 19 -5 15 7 -4
12 -1 12 9 0 9 4 14 10 10 5 -3 6 -13 3 -22z m264 -13 c-3 -10 0 -21 6 -23 6
-2 11 -12 12 -23 1 -10 5 -30 10 -44 4 -14 4 -22 0 -18 -4 4 -15 3 -25 -2 -14
-8 -17 -5 -17 18 1 15 -4 36 -10 47 -6 12 -7 29 -2 43 10 27 33 30 26 2z m88
-44 c-4 -20 -11 -33 -16 -30 -8 5 -3 47 8 67 10 17 14 -3 8 -37z m-302 -56
c-18 -19 -25 -22 -35 -12 -9 9 -7 12 10 12 14 0 20 5 16 14 -3 8 -13 12 -24 9
-10 -3 -21 0 -25 7 -4 7 -1 11 6 9 24 -3 39 1 38 9 -1 4 -1 14 0 22 1 13 2 13
11 0 8 -13 10 -12 11 5 1 11 5 4 8 -15 6 -29 3 -40 -16 -60z m277 70 c0 -5 -5
-10 -11 -10 -5 0 -7 5 -4 10 3 6 8 10 11 10 2 0 4 -4 4 -10z m-158 -42 c-6 -6
-6 -24 -1 -46 4 -20 6 -38 3 -41 -2 -2 -4 1 -4 7 0 6 -7 9 -16 5 -12 -4 -14 0
-9 23 4 23 3 25 -4 9 -9 -19 -10 -19 -10 -1 -1 10 -9 25 -18 32 -17 13 -17 14
0 8 13 -5 20 -1 24 14 3 12 12 22 22 24 18 4 28 -19 13 -34z m35 5 c-3 -10 -5
-4 -5 12 0 17 2 24 5 18 2 -7 2 -21 0 -30z m217 24 c3 4 6 2 6 -4 0 -17 -31
-25 -46 -12 -22 18 -16 29 10 19 13 -5 27 -6 30 -3z m-544 -67 c0 -5 -5 -10
-11 -10 -5 0 -7 5 -4 10 3 6 8 10 11 10 2 0 4 -4 4 -10z m480 -30 c0 -13 -1
-13 -10 0 -5 8 -10 22 -10 30 0 13 1 13 10 0 5 -8 10 -22 10 -30z m-230 -21
c0 -22 -6 -24 -24 -7 -9 9 -10 15 -2 24 14 15 26 8 26 -17z m85 1 c-3 -5 -2
-10 4 -10 5 0 13 5 17 12 9 14 24 -20 17 -38 -5 -14 -36 -14 -45 0 -11 16 -9
46 3 46 5 0 7 -4 4 -10z m-95 -45 c-10 -12 -10 -15 0 -15 9 0 11 -9 6 -30 -3
-17 -1 -41 4 -55 8 -21 7 -25 -10 -25 -11 0 -21 7 -21 15 -4 51 -4 61 4 66 5
4 4 15 -2 27 -8 15 -8 22 2 25 23 10 29 7 17 -8z m-46 -41 c-1 -14 -11 -32
-21 -40 -26 -19 -35 -17 -23 5 5 11 14 31 20 46 12 32 28 25 24 -11z m126 -54
c5 8 10 10 10 4 0 -5 -7 -19 -15 -30 -9 -12 -14 -14 -15 -6 0 7 -5 10 -11 6
-8 -4 -6 -10 6 -17 14 -8 15 -11 4 -18 -11 -8 -10 -12 5 -24 20 -15 11 -21
-11 -7 -16 10 -24 90 -10 95 7 2 15 -1 20 -7 5 -8 10 -6 17 4z m-154 -39 c-12
-19 -24 -12 -19 10 4 13 9 17 15 11 6 -6 7 -15 4 -21z m561 -1 c9 -14 10 -21
1 -26 -7 -4 -8 -3 -4 5 6 8 -3 10 -33 5 -36 -6 -41 -4 -35 10 4 10 13 15 20
12 7 -3 16 -1 19 4 9 15 19 12 32 -10z m-479 -3 c6 0 12 -6 12 -13 0 -7 -8
-10 -18 -7 -21 5 -27 -27 -8 -39 7 -5 6 -8 -3 -8 -10 0 -11 -3 -3 -13 7 -8 7
-18 2 -27 -8 -13 -10 -12 -14 0 -3 8 -4 29 -3 45 2 17 -4 41 -12 54 -15 23
-14 23 9 16 14 -5 31 -8 38 -8z m350 -29 c-5 -13 -38 -20 -38 -8 0 5 8 11 18
13 9 3 19 5 20 6 2 0 2 -4 0 -11z m-48 -8 c0 -5 -2 -10 -4 -10 -3 0 -8 5 -11
10 -3 6 -1 10 4 10 6 0 11 -4 11 -10z m199 -41 c-16 -10 -23 -4 -14 10 3 6 11
8 17 5 6 -4 5 -9 -3 -15z m-199 -4 c0 -8 -4 -15 -10 -15 -5 0 -10 -7 -10 -15
0 -8 -5 -15 -11 -15 -5 0 -8 -4 -4 -9 3 -5 1 -12 -5 -16 -6 -4 -7 -11 -4 -17
5 -7 2 -8 -5 -4 -7 5 -10 15 -6 24 3 8 1 18 -5 22 -6 4 -8 14 -4 24 5 13 9 14
14 6 9 -15 30 -4 30 16 0 8 5 14 10 14 6 0 10 -7 10 -15z m125 3 c-7 -19 13
-46 23 -31 5 8 11 4 19 -13 6 -13 7 -24 2 -24 -5 0 -9 -6 -9 -14 0 -8 -10 -16
-22 -18 -12 -2 -23 -9 -26 -16 -2 -8 3 -10 15 -6 17 5 17 5 0 -6 -9 -6 -14
-17 -11 -23 5 -8 2 -8 -7 1 -11 10 -11 18 -1 44 9 23 9 34 1 39 -7 4 -8 12 -4
19 4 6 1 17 -7 23 -7 7 -12 11 -9 10 2 -1 10 4 18 12 18 18 24 19 18 3z m191
-13 c-3 -10 1 -15 11 -15 9 0 14 -3 10 -6 -12 -12 -37 5 -31 21 3 8 8 15 11
15 3 0 3 -7 -1 -15z m-118 -36 c-3 -8 -7 -3 -11 10 -4 17 -3 21 5 13 5 -5 8
-16 6 -23z m132 -3 c0 -2 3 -12 6 -20 5 -12 2 -15 -10 -10 -9 3 -14 10 -11 14
3 5 -1 11 -7 13 -8 3 -6 6 5 6 9 1 17 -1 17 -3z m-318 -13 c-12 -2 -20 -8 -17
-13 3 -5 13 -6 22 -3 11 4 14 3 9 -5 -4 -7 -16 -12 -26 -12 -16 0 -19 11 -11
38 1 1 11 1 24 1 l22 -2 -23 -4z m-106 -22 c0 -15 -3 -17 -13 -9 -7 6 -13 14
-13 19 0 5 6 9 13 9 7 0 13 -9 13 -19z m324 10 c0 -17 -18 -21 -24 -6 -3 9 0
15 9 15 8 0 15 -4 15 -9z m19 -29 c-5 -2 -7 -8 -3 -13 7 -11 -7 -11 -24 0 -11
7 -11 9 2 14 9 4 16 14 17 24 0 16 1 15 8 -2 5 -11 4 -22 0 -23z m51 18 c0 -5
-2 -10 -4 -10 -3 0 -8 5 -11 10 -3 6 -1 10 4 10 6 0 11 -4 11 -10z m-107 -35
c-7 -21 -13 -19 -13 6 0 11 4 18 10 14 5 -3 7 -12 3 -20z m137 6 c0 -15 -7
-19 -29 -19 -26 1 -28 3 -14 16 13 13 16 13 24 1 7 -11 9 -11 9 4 0 9 2 17 5
17 3 0 5 -9 5 -19z m-404 -18 c23 -30 17 -49 -8 -27 -19 17 -21 17 -15 2 3
-10 2 -20 -3 -23 -6 -4 -10 -2 -10 4 0 6 -7 8 -16 4 -14 -5 -15 -3 -4 18 12
22 28 38 39 39 2 0 10 -8 17 -17z m67 -27 c7 -18 -15 -27 -34 -15 -12 8 -12
10 1 19 20 13 27 12 33 -4z m207 4 c-10 -6 -11 -10 -2 -10 6 0 12 -7 12 -16 0
-8 4 -13 9 -9 14 8 26 -16 22 -43 -1 -13 3 -31 11 -40 9 -12 5 -11 -11 3 l-24
20 7 -22 c4 -14 2 -24 -7 -30 -8 -4 -19 -18 -25 -30 -9 -17 -9 -22 3 -27 8 -3
15 0 15 6 0 7 5 6 15 -2 12 -10 19 -10 27 -2 9 9 9 12 0 12 -7 0 -9 7 -5 17 6
15 7 14 13 -3 11 -31 0 -46 -27 -39 -22 5 -24 3 -19 -17 3 -13 3 -17 0 -10 -5
10 -9 10 -22 0 -13 -11 -15 -10 -10 7 4 18 1 20 -36 16 -37 -3 -39 -2 -23 13
9 10 21 15 26 11 6 -3 6 6 1 26 -8 28 -7 31 10 26 25 -6 25 1 3 20 -10 8 -12
11 -4 7 11 -5 13 -2 9 13 -3 12 0 20 8 20 8 0 15 -10 15 -21 1 -17 2 -18 6 -3
2 9 12 17 21 17 13 0 12 3 -5 15 -14 10 -20 22 -16 32 4 9 -1 19 -10 25 -24
13 -21 28 6 28 18 0 19 -2 7 -10z m50 6 c0 -2 -7 -6 -15 -10 -8 -3 -15 -1 -15
4 0 6 7 10 15 10 8 0 15 -2 15 -4z m115 -25 c3 -5 7 -24 9 -43 l4 -33 -18 23
c-10 12 -23 22 -29 22 -6 0 -11 5 -11 10 0 6 10 10 23 10 18 0 19 2 7 10 -9 6
-10 10 -3 10 6 0 14 -4 18 -9z m78 -15 c4 -11 -1 -14 -21 -12 -14 2 -28 8 -30
15 -5 16 45 14 51 -3z m124 -18 c-3 -7 -5 -2 -5 12 0 14 2 19 5 13 2 -7 2 -19
0 -25z m-472 -8 c-4 -6 -1 -17 5 -25 12 -15 4 -20 -22 -16 -5 0 -8 -5 -8 -13
0 -8 -7 -17 -16 -20 -24 -9 -54 -7 -54 4 0 6 9 10 20 10 11 0 20 6 20 13 0 8
4 7 11 -3 8 -12 9 -10 7 10 -2 14 4 30 12 37 19 15 33 17 25 3z m-128 -42 c-3
-8 -6 -5 -6 6 -1 11 2 17 5 13 3 -3 4 -12 1 -19z m469 -33 c0 -39 -3 -44 -19
-39 -14 4 -18 2 -15 -12 1 -9 9 -19 17 -22 8 -3 11 0 7 7 -4 6 -2 11 4 11 8 0
10 -9 5 -27 -4 -16 -8 -34 -8 -40 0 -13 -12 -17 -31 -14 -5 1 -4 -4 2 -12 10
-12 4 -14 -43 -12 -65 2 -97 23 -75 49 8 11 9 16 1 16 -18 0 -13 14 10 28 18
12 20 11 15 -5 -3 -10 -1 -25 4 -33 5 -8 10 -10 10 -5 0 6 5 3 10 -5 8 -13 14
-12 46 5 l36 19 -27 8 c-15 3 -33 4 -41 1 -8 -3 -14 1 -14 10 0 9 -9 18 -19
22 -11 3 -25 13 -33 22 -7 9 -8 14 -3 11 6 -4 17 -3 25 2 10 6 22 2 38 -12 20
-20 24 -20 38 -6 11 11 12 18 5 22 -6 4 -11 0 -11 -8 0 -9 -5 -16 -10 -16 -6
0 -8 11 -4 28 9 36 9 36 28 17 14 -15 20 -12 17 7 0 4 6 5 14 2 9 -4 15 0 15
10 0 9 2 16 4 16 2 0 3 -20 2 -45z m-471 6 c3 -5 1 -12 -5 -16 -5 -3 -10 1
-10 9 0 18 6 21 15 7z m567 -22 c17 -9 18 -13 7 -20 -23 -15 -38 -10 -36 11 2
23 2 23 29 9z m-486 -72 c11 -36 11 -68 0 -64 -6 3 -10 10 -8 16 1 6 -2 11 -8
11 -5 0 -10 -5 -10 -12 0 -6 -3 -8 -7 -4 -5 4 1 14 11 22 11 8 15 14 10 14 -5
0 -15 13 -21 29 -10 28 -10 29 8 18 11 -7 22 -20 25 -30z m524 28 c-7 -9 -15
-13 -17 -11 -7 7 7 26 19 26 6 0 6 -6 -2 -15z m55 -67 c-20 -15 -30 -7 -31 22
l-1 30 21 -22 c13 -15 18 -26 11 -30z m-370 14 c-3 -3 -11 0 -18 7 -9 10 -8
11 6 5 10 -3 15 -9 12 -12z m311 -4 c0 -13 -11 -27 -24 -34 l-23 -11 35 -27
c32 -24 57 -22 41 4 -3 6 -2 10 4 10 6 0 8 8 5 18 -5 15 -4 15 5 1 5 -8 9 -29
8 -45 -2 -20 4 -35 19 -46 27 -22 34 -22 34 -4 0 8 7 17 16 20 8 3 12 10 9 16
-3 5 -1 10 5 10 7 0 9 -15 6 -40 -3 -27 0 -45 11 -55 16 -17 38 -20 28 -5 -3
6 1 10 10 10 11 0 15 5 11 15 -8 21 11 19 40 -4 15 -11 20 -22 14 -26 -5 -3
-10 -1 -10 4 0 6 -9 11 -21 11 -14 0 -19 -5 -16 -14 3 -8 2 -16 -2 -18 -5 -2
-4 -14 1 -27 6 -19 11 -22 20 -13 17 17 41 15 34 -3 -3 -8 -1 -15 4 -15 5 0
16 -7 24 -16 15 -14 16 -14 16 0 0 9 -5 16 -12 16 -9 0 -9 3 -1 11 14 14 53
-5 53 -26 0 -7 5 -17 12 -21 7 -4 8 -3 4 4 -5 8 2 12 21 13 48 2 68 -2 76 -17
4 -8 15 -14 22 -14 8 0 15 -4 15 -9 0 -5 -10 -7 -22 -3 -30 7 -15 -13 22 -32
18 -9 32 -11 36 -5 3 6 12 2 20 -8 8 -11 13 -13 14 -5 0 19 29 14 42 -8 13
-21 38 -27 38 -11 0 6 22 -2 49 -16 33 -18 51 -35 54 -50 3 -17 0 -23 -14 -23
-31 0 -22 -25 14 -38 51 -20 87 -57 87 -91 0 -16 -5 -33 -12 -37 -7 -4 -8 -3
-4 4 4 7 -10 20 -34 32 -33 17 -44 19 -56 9 -12 -10 -18 -8 -34 8 -10 12 -16
24 -12 29 4 4 0 3 -8 -2 -8 -5 -19 -9 -25 -9 -5 0 -11 -7 -11 -15 -3 -32 -6
-34 -13 -15 -5 12 -4 23 2 26 14 10 -25 47 -45 44 -10 -2 -18 1 -18 6 0 5 -5
8 -12 7 -7 -2 -12 2 -13 9 0 18 -25 41 -25 24 0 -15 -26 -42 -33 -35 -7 8 4
37 17 46 8 6 8 8 0 8 -19 0 -47 -38 -38 -52 6 -11 5 -11 -8 0 -12 9 -18 10
-23 2 -21 -33 -81 -27 -68 7 5 12 3 14 -7 8 -9 -5 -11 -4 -6 3 11 19 26 14 26
-8 0 -15 6 -19 22 -17 24 4 35 22 19 31 -7 5 -7 15 1 31 13 29 3 59 -16 52 -8
-3 -17 -1 -20 6 -3 9 -7 9 -13 0 -4 -6 -20 -9 -36 -6 -21 4 -26 10 -23 28 6
31 -8 50 -30 40 -17 -7 -17 -9 -3 -12 12 -3 15 -11 11 -25 -5 -20 17 -42 43
-43 12 0 16 -45 4 -45 -4 0 -9 5 -11 11 -3 9 -9 9 -24 1 -14 -8 -26 -6 -44 5
-14 8 -17 12 -7 9 21 -7 38 25 18 32 -10 3 -10 6 -1 12 9 5 8 11 -3 21 -7 8
-13 24 -12 36 1 16 -3 20 -17 18 -12 -3 -18 2 -18 13 -1 16 -1 16 -13 0 -9
-11 -18 -14 -28 -7 -10 6 -10 9 -1 9 6 0 12 10 12 21 0 17 -3 19 -14 10 -11
-9 -15 -8 -20 4 -3 9 -11 13 -17 9 -6 -3 -15 0 -20 7 -7 11 -9 10 -9 -4 0 -10
-4 -15 -10 -12 -6 4 -5 13 2 25 11 17 14 17 35 3 13 -9 26 -13 29 -10 3 3 -9
12 -27 21 -24 12 -35 13 -45 5 -17 -14 -19 2 -2 19 9 9 9 12 0 12 -7 0 -12 7
-12 15 0 8 -7 15 -15 15 -8 0 -15 4 -15 8 0 4 -14 16 -30 26 l-31 18 7 -26 c5
-22 3 -25 -11 -20 -13 5 -14 9 -3 15 10 7 11 9 0 9 -7 0 -11 4 -7 9 3 6 0 15
-7 21 -50 41 -66 59 -61 64 4 3 -6 6 -21 6 -16 0 -25 4 -21 10 4 6 12 10 18 9
21 -2 57 13 51 22 -3 5 8 6 24 3 21 -4 31 -2 35 10 9 23 14 20 13 -6z m203 2
c-6 -5 -19 -6 -27 -2 -13 4 -12 7 4 12 23 9 41 1 23 -10z m-504 -38 c-3 -3
-11 0 -18 7 -9 10 -8 11 6 5 10 -3 15 -9 12 -12z m582 -8 c-3 -3 -12 -4 -19
-1 -8 3 -5 6 6 6 11 1 17 -2 13 -5z m-611 -43 c0 -20 -16 -23 -28 -6 -12 17
-9 25 10 25 11 0 18 -7 18 -19z m624 -19 c0 -15 -2 -15 -10 -2 -13 20 -13 33
0 25 6 -3 10 -14 10 -23z m-522 -23 c-2 -5 -12 -3 -23 5 -17 13 -18 17 -5 25
16 11 35 -10 28 -30z m82 11 c5 0 7 7 4 15 -6 16 13 20 31 7 16 -12 16 -32 -1
-32 -8 0 -12 -4 -9 -10 3 -5 1 -10 -6 -10 -15 0 -39 31 -38 50 1 11 3 10 6 -2
2 -10 8 -18 13 -18z m-50 -12 c0 -26 -9 -19 -15 11 -2 12 0 19 6 16 5 -4 9
-16 9 -27z m-115 2 c3 -5 1 -18 -5 -29 -7 -14 -7 -22 2 -27 7 -5 8 -2 3 7 -4
8 0 7 10 -3 11 -10 16 -20 13 -23 -11 -11 -48 20 -48 40 -1 20 -1 20 -17 0
-14 -18 -15 -18 -9 -1 5 15 2 17 -15 13 -20 -5 -20 -5 -3 14 18 20 59 26 69 9z
m559 -1 c11 1 16 -2 12 -8 -10 -16 -32 -13 -47 6 -12 15 -12 16 1 8 8 -5 23
-8 34 -6z m-505 -20 c-16 -10 -23 -4 -14 10 3 6 11 8 17 5 6 -4 5 -9 -3 -15z
m611 17 c0 -2 -7 -7 -16 -10 -8 -3 -12 -2 -9 4 6 10 25 14 25 6z m-420 -21 c0
-8 -5 -15 -11 -15 -5 0 -8 4 -5 9 4 5 0 12 -6 14 -8 3 -6 6 5 6 9 1 17 -6 17
-14z m446 -4 c-4 -6 -14 -7 -23 -4 -15 6 -14 7 3 13 22 9 29 6 20 -9z m-459
-41 c16 -20 16 -30 -1 -30 -7 0 -16 10 -19 21 -4 14 -11 20 -21 16 -10 -4 -14
0 -13 12 1 16 4 17 21 7 11 -6 26 -18 33 -26z m411 8 c8 -8 8 -17 0 -31 -9
-17 -8 -19 6 -14 10 4 15 3 11 -3 -18 -28 -61 6 -50 40 7 23 16 25 33 8z
m-354 -10 c-3 -4 3 -8 13 -8 14 0 15 -2 4 -9 -15 -10 -47 -8 -43 2 1 4 2 11 2
15 0 5 7 9 15 9 8 0 12 -4 9 -9z m51 -6 c-3 -3 -11 0 -18 7 -9 10 -8 11 6 5
10 -3 15 -9 12 -12z m-218 2 c-3 -3 -12 -4 -19 -1 -8 3 -5 6 6 6 11 1 17 -2
13 -5z m73 -9 c0 -5 -11 -11 -24 -11 -17 -1 -23 3 -19 11 5 16 43 16 43 0z
m-121 -13 c-11 -18 -59 -29 -59 -14 0 16 24 32 47 32 20 0 22 -3 12 -18z m281
-2 c-8 -5 -17 -7 -19 -4 -3 3 1 9 9 14 8 5 17 7 19 4 3 -3 -1 -9 -9 -14z
m-230 -10 c-8 -5 -18 -6 -24 -3 -5 4 -1 10 10 13 24 9 34 2 14 -10z m236 -45
c-4 -21 -2 -24 12 -16 9 4 23 6 30 4 17 -7 15 -33 -3 -33 -8 0 -15 -5 -15 -10
0 -15 -35 21 -44 44 -4 12 -2 23 6 28 18 11 19 11 14 -17z m344 15 c0 -5 -4
-10 -10 -10 -5 0 -10 5 -10 10 0 6 5 10 10 10 6 0 10 -4 10 -10z m-507 -16
c-7 -3 -9 -13 -6 -22 4 -15 3 -15 -6 -2 -15 22 -14 30 7 29 9 0 12 -3 5 -5z
m71 -15 c-6 -11 -31 -12 -37 -1 -3 4 6 8 19 8 13 1 21 -2 18 -7z m53 -34 c-8
-5 -16 -17 -20 -25 -3 -8 -6 4 -6 27 -1 42 -1 42 19 25 17 -14 18 -19 7 -27z
m-136 -17 c5 -11 6 -18 1 -18 -6 0 -12 9 -15 20 -3 11 -13 20 -24 20 -15 0
-15 2 -3 10 15 9 19 6 41 -32z m654 14 c-3 -3 -11 0 -18 7 -9 10 -8 11 6 5 10
-3 15 -9 12 -12z m-387 -37 c-3 -3 -9 2 -12 12 -6 14 -5 15 5 6 7 -7 10 -15 7
-18z m-48 5 c0 -5 -2 -10 -4 -10 -3 0 -8 5 -11 10 -3 6 -1 10 4 10 6 0 11 -4
11 -10z m-70 -19 c-7 -14 -6 -21 2 -23 7 -3 8 -7 3 -10 -6 -3 -19 6 -29 20
-17 21 -17 25 -3 19 9 -3 19 -2 22 3 11 18 16 10 5 -9z m214 -14 c-7 -19 -20
-22 -29 -7 -9 15 16 43 27 32 5 -5 6 -16 2 -25z m-84 -39 c0 -28 -21 -50 -28
-30 -2 7 -9 18 -15 25 -18 19 -19 37 -1 37 8 0 12 5 9 11 -4 6 2 5 14 -3 13
-8 21 -23 21 -40z m130 -68 c0 -5 -4 -10 -10 -10 -5 0 -10 5 -10 10 0 6 5 10
10 10 6 0 10 -4 10 -10z m47 -10 c-1 -12 -8 -20 -19 -20 -22 0 -22 4 -2 24 20
21 23 20 21 -4z m-132 0 c3 -5 1 -10 -4 -10 -6 0 -11 5 -11 10 0 6 2 10 4 10
3 0 8 -4 11 -10z m355 -44 c0 -24 -12 -46 -21 -40 -5 3 -7 10 -4 15 4 5 1 9
-5 9 -7 0 -6 5 2 15 17 18 28 19 28 1z m-60 -17 c0 -5 -4 -9 -10 -9 -5 0 -10
7 -10 16 0 8 5 12 10 9 6 -3 10 -10 10 -16z m100 11 c0 -5 -5 -10 -11 -10 -8
0 -8 -4 0 -14 6 -7 9 -21 5 -30 -3 -9 1 -27 10 -40 13 -21 13 -25 1 -30 -9 -3
-15 0 -15 8 0 8 -5 16 -11 18 -14 5 -19 68 -7 91 9 18 28 23 28 7z m-250 -24
c0 -2 -7 -7 -16 -10 -8 -3 -12 -2 -9 4 6 10 25 14 25 6z m170 -16 c0 -5 -5
-10 -11 -10 -5 0 -7 5 -4 10 3 6 8 10 11 10 2 0 4 -4 4 -10z m175 1 c3 -5 1
-12 -5 -16 -5 -3 -10 1 -10 9 0 18 6 21 15 7z m-205 -41 c0 -5 6 -10 14 -10 8
0 17 -4 20 -9 4 -5 -10 -4 -29 1 -19 6 -32 15 -29 20 7 11 24 10 24 -2z m255
-40 c1 -41 -12 -38 -17 4 -2 21 0 32 7 30 5 -2 10 -18 10 -34z m42 16 c-3 -7
1 -25 8 -40 8 -14 10 -26 5 -26 -5 0 -7 -7 -4 -15 4 -9 0 -15 -8 -15 -8 0 -15
-6 -15 -14 0 -8 6 -12 14 -9 7 3 13 0 13 -6 0 -6 -5 -11 -11 -11 -5 0 -8 -4
-4 -9 3 -5 1 -12 -5 -16 -5 -3 -10 -2 -10 4 0 6 -6 8 -14 5 -9 -3 -16 4 -20
21 -4 16 -11 23 -18 19 -7 -4 -8 -3 -4 4 4 6 13 9 20 6 8 -3 17 -1 21 5 3 6 0
11 -7 11 -9 1 -8 5 4 13 16 13 19 39 6 53 -8 7 12 33 26 34 4 0 6 -6 3 -14z
m-247 -41 c5 3 11 1 15 -5 3 -5 2 -10 -4 -10 -5 0 -12 -8 -14 -17 -4 -14 -5
-12 -6 5 0 12 -7 22 -16 22 -9 0 -12 6 -8 16 5 15 7 15 15 0 5 -9 13 -14 18
-11z m142 10 c0 -5 -5 -11 -10 -13 -5 -1 -9 4 -9 13 0 9 4 14 9 13 5 -2 10 -8
10 -13z m196 -47 c6 -16 9 -28 7 -28 -7 0 -45 63 -45 75 0 14 25 -17 38 -47z
m-186 10 c-7 -7 -12 -8 -12 -2 0 14 12 26 19 19 2 -3 -1 -11 -7 -17z m-22 -28
c0 -5 -2 -10 -4 -10 -3 0 -8 5 -11 10 -3 6 -1 10 4 10 6 0 11 -4 11 -10z m193
-50 c4 0 5 5 2 10 -3 6 -1 10 4 10 10 0 15 -14 12 -32 0 -5 4 -8 10 -8 5 0 7
-4 4 -10 -3 -5 -1 -11 4 -11 27 -4 31 -3 30 5 0 5 5 12 11 16 9 5 6 10 -9 15
-11 3 -21 11 -21 16 0 6 7 6 19 -1 26 -13 32 -25 25 -43 -7 -20 -67 -42 -72
-27 -2 5 -8 7 -13 4 -6 -3 -7 5 -3 20 8 33 -13 35 -25 4 -8 -19 -9 -17 -8 14
1 23 6 33 12 27 5 -5 13 -9 18 -9z"/>
<path d="M3515 6940 c-3 -5 3 -10 14 -10 12 0 21 5 21 10 0 6 -6 10 -14 10 -8
0 -18 -4 -21 -10z"/>
<path d="M3075 6700 c3 -5 11 -10 16 -10 6 0 7 5 4 10 -3 6 -11 10 -16 10 -6
0 -7 -4 -4 -10z"/>
<path d="M2975 6658 c-67 -21 -99 -48 -57 -48 14 0 15 -2 2 -10 -22 -14 -5
-23 20 -10 21 11 21 12 4 31 -16 18 -16 19 0 19 9 0 14 -5 11 -10 -4 -6 7 -13
24 -16 18 -4 28 -11 24 -17 -3 -6 -1 -7 5 -3 13 8 16 62 5 69 -5 2 -21 0 -38
-5z"/>
<path d="M2515 6400 c-3 -5 -1 -10 4 -10 6 0 11 5 11 10 0 6 -2 10 -4 10 -3 0
-8 -4 -11 -10z"/>
<path d="M2142 6119 c16 -9 17 -12 2 -34 -9 -14 -11 -26 -5 -29 13 -8 23 10
26 45 2 24 -1 29 -19 29 -19 -1 -19 -2 -4 -11z"/>
<path d="M2008 6023 c7 -3 16 -2 19 1 4 3 -2 6 -13 5 -11 0 -14 -3 -6 -6z"/>
<path d="M2510 6150 c0 -19 3 -21 12 -12 9 9 9 15 0 24 -9 9 -12 7 -12 -12z"/>
<path d="M2553 6133 c-18 -6 -16 -23 1 -23 17 0 30 16 19 23 -5 2 -14 2 -20 0z"/>
<path d="M1795 5880 c3 -5 8 -10 11 -10 2 0 4 5 4 10 0 6 -5 10 -11 10 -5 0
-7 -4 -4 -10z"/>
<path d="M1875 5700 c3 -5 8 -10 11 -10 2 0 4 5 4 10 0 6 -5 10 -11 10 -5 0
-7 -4 -4 -10z"/>
<path d="M1575 5590 c-3 -5 -1 -10 4 -10 6 0 11 5 11 10 0 6 -2 10 -4 10 -3 0
-8 -4 -11 -10z"/>
<path d="M1670 5590 c0 -5 5 -10 11 -10 5 0 7 5 4 10 -3 6 -8 10 -11 10 -2 0
-4 -4 -4 -10z"/>
<path d="M1430 5250 c0 -5 4 -10 9 -10 6 0 13 5 16 10 3 6 -1 10 -9 10 -9 0
-16 -4 -16 -10z"/>
<path d="M1127 4876 c-4 -10 1 -12 14 -9 23 6 24 9 5 16 -8 3 -17 0 -19 -7z"/>
<path d="M875 4720 c3 -5 11 -10 16 -10 6 0 7 5 4 10 -3 6 -11 10 -16 10 -6 0
-7 -4 -4 -10z"/>
<path d="M875 2640 c-3 -5 1 -10 9 -10 9 0 16 5 16 10 0 6 -4 10 -9 10 -6 0
-13 -4 -16 -10z"/>
<path d="M1280 1887 c-14 -7 -25 -16 -25 -22 3 -18 18 -50 28 -56 5 -4 10 -19
10 -33 0 -24 1 -25 12 -9 7 9 11 22 8 29 -2 6 5 14 16 17 13 3 21 13 21 26 0
13 6 21 17 21 15 0 14 2 -3 19 -19 18 -28 18 -30 0 -3 -22 -5 -23 -17 -2 -10
18 -15 20 -37 10z"/>
<path d="M1415 1890 c-4 -6 -11 -8 -16 -5 -5 4 -9 2 -9 -3 0 -6 11 -9 24 -8
14 0 22 6 19 14 -6 15 -10 15 -18 2z"/>
<path d="M1460 1880 c-9 -6 -10 -10 -3 -10 6 0 15 5 18 10 8 12 4 12 -15 0z"/>
<path d="M1558 1787 c7 -8 8 -18 4 -22 -4 -5 -1 -5 6 -1 17 10 15 23 -4 30
-13 5 -14 4 -6 -7z"/>
<path d="M1465 1620 c3 -5 11 -10 16 -10 6 0 7 5 4 10 -3 6 -11 10 -16 10 -6
0 -7 -4 -4 -10z"/>
<path d="M2017 1069 c-3 -13 -1 -19 6 -16 15 5 22 37 9 37 -5 0 -12 -9 -15
-21z"/>
<path d="M2315 960 c3 -5 10 -10 16 -10 5 0 9 5 9 10 0 6 -7 10 -16 10 -8 0
-12 -4 -9 -10z"/>
<path d="M2480 870 c0 -5 7 -7 15 -4 8 4 15 8 15 10 0 2 -7 4 -15 4 -8 0 -15
-4 -15 -10z"/>
<path d="M2190 826 c0 -9 5 -16 10 -16 6 0 10 4 10 9 0 6 -4 13 -10 16 -5 3
-10 -1 -10 -9z"/>
<path d="M2330 785 c0 -8 7 -15 15 -15 9 0 12 6 9 15 -4 8 -10 15 -15 15 -5 0
-9 -7 -9 -15z"/>
<path d="M2030 843 c0 -4 5 -15 10 -23 8 -13 10 -13 10 2 0 9 -4 20 -10 23 -5
3 -10 3 -10 -2z"/>
<path d="M4023 7175 c0 -8 7 -15 15 -15 7 0 12 5 10 12 -6 18 -25 21 -25 3z"/>
<path d="M4171 7144 c0 -11 3 -14 6 -6 3 7 2 16 -1 19 -3 4 -6 -2 -5 -13z"/>
<path d="M3290 7064 c0 -9 5 -14 12 -12 18 6 21 28 4 28 -9 0 -16 -7 -16 -16z"/>
<path d="M3340 7071 c0 -6 5 -13 10 -16 6 -3 10 1 10 9 0 9 -4 16 -10 16 -5 0
-10 -4 -10 -9z"/>
<path d="M3065 7060 c-3 -5 3 -10 14 -10 12 0 21 5 21 10 0 6 -6 10 -14 10 -8
0 -18 -4 -21 -10z"/>
<path d="M3286 7020 c-29 -10 2 -18 39 -9 17 4 26 8 20 9 -5 1 -17 3 -25 4 -8
2 -24 0 -34 -4z"/>
<path d="M3195 7011 c-9 -16 9 -20 23 -5 10 12 10 14 -2 14 -8 0 -17 -4 -21
-9z"/>
<path d="M2980 7000 c0 -8 -10 -9 -30 -5 -17 4 -30 2 -30 -3 0 -14 36 -21 65
-14 28 8 34 25 11 30 -9 2 -16 -2 -16 -8z"/>
<path d="M3040 7001 c0 -13 19 -18 54 -13 27 4 28 6 11 13 -28 11 -65 11 -65
0z"/>
<path d="M3276 6981 c-4 -7 -5 -15 -2 -18 9 -9 19 4 14 18 -4 11 -6 11 -12 0z"/>
<path d="M2896 6945 c-3 -9 0 -15 9 -15 8 0 15 7 15 15 0 8 -4 15 -9 15 -5 0
-11 -7 -15 -15z"/>
<path d="M3018 6953 c7 -3 16 -2 19 1 4 3 -2 6 -13 5 -11 0 -14 -3 -6 -6z"/>
<path d="M2760 6930 c-13 -8 -12 -10 3 -10 9 0 17 5 17 10 0 12 -1 12 -20 0z"/>
<path d="M2640 6920 c0 -5 4 -10 9 -10 6 0 13 5 16 10 3 6 -1 10 -9 10 -9 0
-16 -4 -16 -10z"/>
<path d="M2690 6920 c0 -5 6 -10 14 -10 8 0 18 5 21 10 3 6 -3 10 -14 10 -12
0 -21 -4 -21 -10z"/>
<path d="M2497 6828 c-2 -7 -1 -22 4 -33 6 -16 8 -14 8 13 1 33 -4 41 -12 20z"/>
<path d="M5115 6580 c-3 -5 -1 -10 4 -10 6 0 11 5 11 10 0 6 -2 10 -4 10 -3 0
-8 -4 -11 -10z"/>
<path d="M5500 6273 c0 -5 5 -15 10 -23 9 -13 11 -13 20 0 15 22 12 30 -10 30
-11 0 -20 -3 -20 -7z"/>
<path d="M5566 6235 c4 -8 11 -15 16 -15 6 0 5 6 -2 15 -7 8 -14 15 -16 15 -2
0 -1 -7 2 -15z"/>
<path d="M1475 6160 c-3 -5 -5 -10 -3 -11 28 -7 38 -5 38 7 0 16 -26 19 -35 4z"/>
<path d="M1731 6114 c0 -11 3 -14 6 -6 3 7 2 16 -1 19 -3 4 -6 -2 -5 -13z"/>
<path d="M1284 5990 c0 -11 3 -20 7 -20 10 0 19 27 12 34 -12 11 -19 6 -19
-14z"/>
<path d="M1212 5914 c-12 -15 -21 -29 -18 -31 5 -5 46 38 46 49 0 12 -3 10
-28 -18z"/>
<path d="M1066 5795 c-8 -23 -8 -25 8 -25 8 0 13 7 12 15 -3 23 -13 27 -20 10z"/>
<path d="M1035 5740 c3 -5 8 -10 11 -10 2 0 4 5 4 10 0 6 -5 10 -11 10 -5 0
-7 -4 -4 -10z"/>
<path d="M6080 5708 c0 -4 7 -8 15 -8 8 0 15 4 15 8 0 5 -7 9 -15 9 -8 0 -15
-4 -15 -9z"/>
<path d="M1265 5700 c3 -5 8 -10 11 -10 2 0 4 5 4 10 0 6 -5 10 -11 10 -5 0
-7 -4 -4 -10z"/>
<path d="M991 5693 c1 -5 1 -10 0 -13 -2 -3 -3 -24 -5 -47 -2 -48 9 -49 17 -1
3 18 8 41 12 51 5 12 2 17 -9 17 -9 0 -15 -3 -15 -7z"/>
<path d="M936 5664 c-9 -24 -7 -54 4 -54 6 0 10 16 10 35 0 38 -4 44 -14 19z"/>
<path d="M1250 5666 c0 -9 5 -16 10 -16 6 0 10 4 10 9 0 6 -4 13 -10 16 -5 3
-10 -1 -10 -9z"/>
<path d="M875 5571 c-3 -5 -1 -12 5 -16 5 -3 10 1 10 9 0 18 -6 21 -15 7z"/>
<path d="M1005 5560 c3 -5 8 -10 11 -10 2 0 4 5 4 10 0 6 -5 10 -11 10 -5 0
-7 -4 -4 -10z"/>
<path d="M774 5492 c-11 -10 -26 -31 -31 -47 -6 -17 -16 -29 -23 -27 -7 2 -10
-3 -7 -12 3 -8 -3 -22 -14 -32 -22 -20 -62 -104 -54 -112 7 -7 64 59 65 76 0
6 4 12 9 12 5 0 12 11 15 25 4 14 10 24 14 21 13 -8 51 28 56 54 2 14 6 31 8
39 5 21 -15 22 -38 3z"/>
<path d="M1052 5463 c2 -9 9 -18 16 -19 7 -1 8 0 3 2 -6 3 -7 12 -4 20 3 8 0
14 -7 14 -6 0 -10 -8 -8 -17z"/>
<path d="M1025 5460 c3 -5 8 -10 11 -10 2 0 4 5 4 10 0 6 -5 10 -11 10 -5 0
-7 -4 -4 -10z"/>
<path d="M936 5357 c-11 -8 -17 -19 -15 -24 2 -6 12 0 22 13 20 27 19 30 -7
11z"/>
<path d="M750 5301 c-13 -26 -13 -44 1 -39 7 2 13 16 15 31 3 32 -1 34 -16 8z"/>
<path d="M1060 5249 c7 -11 14 -19 16 -16 7 7 -7 37 -17 37 -6 0 -5 -9 1 -21z"/>
<path d="M616 5213 c-6 -14 -5 -15 5 -6 7 7 10 15 7 18 -3 3 -9 -2 -12 -12z"/>
<path d="M570 5150 c0 -5 5 -10 11 -10 5 0 7 5 4 10 -3 6 -8 10 -11 10 -2 0
-4 -4 -4 -10z"/>
<path d="M541 5078 c-1 -9 -6 -18 -12 -20 -7 -2 -10 -11 -7 -18 3 -11 8 -9 17
8 7 13 10 28 7 35 -2 7 -5 5 -5 -5z"/>
<path d="M820 5030 c-9 -6 -10 -10 -3 -10 6 0 15 5 18 10 8 12 4 12 -15 0z"/>
<path d="M483 4981 c-6 -10 -8 -23 -3 -30 5 -9 9 -3 13 16 6 34 5 37 -10 14z"/>
<path d="M710 4950 c0 -5 5 -10 10 -10 6 0 10 5 10 10 0 6 -4 10 -10 10 -5 0
-10 -4 -10 -10z"/>
<path d="M446 4921 c-4 -7 -5 -15 -2 -18 9 -9 19 4 14 18 -4 11 -6 11 -12 0z"/>
<path d="M720 4899 c0 -5 5 -7 10 -4 6 3 10 8 10 11 0 2 -4 4 -10 4 -5 0 -10
-5 -10 -11z"/>
<path d="M6710 4842 c0 -10 22 -32 32 -32 5 0 3 9 -4 20 -13 20 -28 27 -28 12z"/>
<path d="M366 4704 c-8 -22 4 -40 15 -23 11 18 11 39 0 39 -5 0 -12 -7 -15
-16z"/>
<path d="M630 4690 c-13 -8 -12 -10 4 -10 18 0 18 -1 2 -19 -10 -11 -16 -26
-13 -33 4 -10 6 -10 6 0 2 22 17 12 19 -13 1 -19 -2 -23 -16 -18 -14 6 -15 4
-5 -9 7 -8 10 -18 6 -21 -3 -4 1 -7 9 -7 18 0 41 24 31 33 -3 4 -1 7 5 7 5 0
13 -6 15 -12 3 -7 6 -3 6 10 1 12 -3 22 -8 22 -10 0 -25 48 -22 68 2 14 -18
16 -39 2z"/>
<path d="M316 4554 c-8 -20 14 -28 31 -12 13 14 12 16 -6 21 -11 3 -22 -1 -25
-9z"/>
<path d="M680 4560 c0 -5 5 -10 10 -10 6 0 10 5 10 10 0 6 -4 10 -10 10 -5 0
-10 -4 -10 -10z"/>
<path d="M572 4460 c0 -14 2 -19 5 -12 2 6 2 18 0 25 -3 6 -5 1 -5 -13z"/>
<path d="M299 4433 c-1 -21 -4 -49 -8 -63 -9 -33 -1 -82 13 -77 12 4 12 5 24
105 8 66 7 72 -15 72 -8 0 -13 -13 -14 -37z"/>
<path d="M522 4411 c2 -19 -4 -24 -12 -11 -7 11 -8 4 -6 -23 2 -21 6 -40 9
-43 2 -3 1 -21 -3 -40 -4 -19 -4 -36 1 -39 4 -3 6 -12 2 -21 -3 -8 3 -21 13
-29 12 -9 14 -14 6 -15 -7 0 -10 -5 -6 -11 4 -8 9 -7 15 2 5 8 2 20 -6 29 -11
12 -11 19 0 39 11 21 10 29 -2 48 -11 17 -12 23 -3 23 7 0 10 7 7 15 -4 8 -2
17 3 20 7 4 6 13 0 26 -7 13 -7 19 0 19 5 0 10 -7 10 -15 0 -8 5 -15 10 -15
22 0 9 38 -15 42 -13 3 -24 2 -23 -1z"/>
<path d="M289 4248 c-5 -114 0 -200 12 -196 10 3 12 25 10 168 -1 22 -5 40
-11 40 -5 0 -10 -6 -11 -12z"/>
<path d="M308 4008 c-5 -12 -3 -36 7 -93 2 -11 4 -23 4 -27 1 -5 5 -8 10 -8 4
0 7 10 6 23 -1 12 -4 22 -5 22 -1 0 -4 20 -5 44 -4 46 -10 60 -17 39z"/>
<path d="M450 3959 c0 -5 5 -7 10 -4 6 3 10 8 10 11 0 2 -4 4 -10 4 -5 0 -10
-5 -10 -11z"/>
<path d="M390 3659 c0 -5 5 -7 10 -4 6 3 10 8 10 11 0 2 -4 4 -10 4 -5 0 -10
-5 -10 -11z"/>
<path d="M440 3589 c0 -6 -10 -9 -23 -7 -13 2 -29 -2 -37 -10 -12 -13 -15 -13
-21 4 -6 16 -8 14 -8 -9 -1 -32 22 -45 44 -27 8 7 15 9 15 4 0 -5 5 -2 10 6 6
10 10 11 10 3 0 -7 7 -13 15 -13 8 0 15 5 15 10 0 6 -4 10 -9 10 -5 0 -7 9 -4
20 3 11 3 20 -1 20 -3 0 -6 -5 -6 -11z"/>
<path d="M380 3439 c0 -11 4 -18 10 -14 5 3 7 12 3 20 -7 21 -13 19 -13 -6z"/>
<path d="M590 2866 c0 -9 -9 -25 -21 -37 -11 -11 -18 -23 -15 -26 6 -6 26 14
43 44 8 14 9 24 3 28 -6 3 -10 -1 -10 -9z"/>
<path d="M507 2626 c-3 -9 4 -21 18 -30 22 -15 23 -15 16 11 -8 31 -26 41 -34
19z"/>
<path d="M6907 2533 c-4 -3 -7 -11 -7 -17 0 -6 5 -5 12 2 6 6 9 14 7 17 -3 3
-9 2 -12 -2z"/>
<path d="M6830 2375 c0 -16 16 -20 24 -6 3 5 -1 11 -9 15 -9 3 -15 0 -15 -9z"/>
<path d="M6884 2376 c19 -15 19 -16 -7 -16 -33 0 -42 -19 -29 -57 8 -25 11
-26 17 -9 5 11 3 21 -6 28 -10 7 -8 8 9 3 13 -4 22 -2 22 4 0 6 5 11 11 11 6
0 9 -9 6 -20 -6 -24 8 -27 17 -3 8 19 -22 64 -45 70 -8 3 -6 -2 5 -11z"/>
<path d="M630 2200 c0 -5 5 -10 10 -10 6 0 10 5 10 10 0 6 -4 10 -10 10 -5 0
-10 -4 -10 -10z"/>
<path d="M715 2200 c-3 -5 1 -10 9 -10 9 0 16 5 16 10 0 6 -4 10 -9 10 -6 0
-13 -4 -16 -10z"/>
<path d="M6870 2196 c0 -9 5 -16 10 -16 6 0 10 4 10 9 0 6 -4 13 -10 16 -5 3
-10 -1 -10 -9z"/>
<path d="M6775 2130 c-3 -5 -1 -10 4 -10 6 0 11 5 11 10 0 6 -2 10 -4 10 -3 0
-8 -4 -11 -10z"/>
<path d="M901 1918 c-1 -10 6 -18 14 -18 8 0 15 5 15 11 0 5 -4 8 -9 5 -5 -4
-12 0 -14 6 -3 8 -6 6 -6 -4z"/>
<path d="M6655 1880 c3 -5 8 -10 11 -10 2 0 4 5 4 10 0 6 -5 10 -11 10 -5 0
-7 -4 -4 -10z"/>
<path d="M6613 1802 c-7 -4 -17 -19 -22 -32 -6 -14 -16 -33 -23 -42 -7 -9 -9
-21 -4 -25 9 -9 76 64 76 83 0 17 -13 24 -27 16z"/>
<path d="M920 1700 c8 -5 20 -10 25 -10 6 0 3 5 -5 10 -8 5 -19 10 -25 10 -5
0 -3 -5 5 -10z"/>
<path d="M1280 1320 c0 -5 5 -10 11 -10 5 0 7 5 4 10 -3 6 -8 10 -11 10 -2 0
-4 -4 -4 -10z"/>
<path d="M1289 1278 c-7 -26 -6 -45 4 -45 7 0 12 11 12 24 0 13 -3 23 -7 23
-5 0 -8 -1 -9 -2z"/>
<path d="M1450 1251 c0 -17 18 -21 24 -6 3 9 0 15 -9 15 -8 0 -15 -4 -15 -9z"/>
<path d="M1807 853 c-4 -3 -7 -11 -7 -17 0 -6 5 -5 12 2 6 6 9 14 7 17 -3 3
-9 2 -12 -2z"/>
<path d="M1945 800 c-3 -5 -12 -7 -20 -3 -18 6 -16 -27 3 -49 6 -8 8 -19 4
-23 -4 -5 -2 -5 5 -1 6 3 14 -1 16 -11 3 -10 4 1 2 25 -2 23 0 40 5 37 4 -3 6
4 3 15 -6 22 -9 24 -18 10z"/>
<path d="M2894 352 c6 -17 4 -21 -8 -16 -19 7 -59 -14 -50 -27 3 -5 15 -7 26
-3 14 4 18 2 14 -5 -4 -6 -4 -11 1 -11 4 0 16 13 25 29 15 27 15 31 1 43 -14
11 -15 10 -9 -10z"/>
<path d="M2656 115 c3 -14 7 -44 8 -67 1 -49 21 -61 36 -22 13 33 3 84 -19
101 -25 19 -32 15 -25 -12z"/>
<path d="M2806 131 c-8 -13 3 -38 20 -45 15 -6 34 22 27 42 -5 14 -39 16 -47
3z"/>
</g>
</svg>
