<svg xmlns="http://www.w3.org/2000/svg" width="1599.615" height="342.62" viewBox="0 0 1599.615 342.62">
  <g id="Group_60" data-name="Group 60" transform="translate(-160.088 -368.242)">
    <path id="Path_530" data-name="Path 530" d="M160.635,547.2c.187-1.03-.173-2.162.592-3.076a174.435,174.435,0,0,1,17.518-67.274,113.66,113.66,0,0,1,16.174-23.978,129.754,129.754,0,0,1,51.667-36.426,163.826,163.826,0,0,1,36.227-9.792,176.672,176.672,0,0,1,26.139-1.737c4.529,0,9.052.065,13.568.354,25.779,1.641,50,8.582,72.126,22.015,23.012,13.974,39.8,33.532,50.535,58.236a153.612,153.612,0,0,1,11.361,40.216,155.172,155.172,0,0,1,1.049,34.464,100.018,100.018,0,0,1-1.86,12.185c-.315,1.479-.495,1.6-2.11,1.647-.92.025-1.846.006-2.773.006H275.858c-3.847.013-3.654-.328-3.287,3.461a67.4,67.4,0,0,0,2.31,12.726c.353,1.183.714,2.361,1.138,3.519,4.1,11.213,12.591,16.6,24.061,17.756a32.759,32.759,0,0,0,11.047-.56A27.7,27.7,0,0,0,329.134,597.5c.36-.617.663-1.28.991-1.917a1.478,1.478,0,0,1,1.5-.855c.72.025,1.441-.007,2.155-.007q57.255,0,114.5.013a6.948,6.948,0,0,1,3.037.238,3.637,3.637,0,0,1-.141,2.393,126.924,126.924,0,0,1-34.2,62.45c-18.56,18.876-40.884,31.215-66.348,38.034a148.637,148.637,0,0,1-40.267,5.089c-4.014-.045-8.029.071-12.031-.161-27.406-1.569-53.024-9-76.21-23.913a124.75,124.75,0,0,1-41.3-43.8,138.517,138.517,0,0,1-10.19-23.437,171.956,171.956,0,0,1-8.216-35.043c-.521-4.188-.978-8.377-1.183-12.59-.76-.92-.406-2.053-.592-3.082a4.059,4.059,0,0,1-.554-.058.68.68,0,0,1,.444-.129.254.254,0,0,1,.116.026.748.748,0,0,1,.3.212,3.689,3.689,0,0,1,.392.85c.174.54.251,1.113.373,1.672a5.621,5.621,0,0,0,.219.785,192.9,192.9,0,0,0,8.145,42.95c5.97,18.876,14.893,35.995,28.513,50.631a131.858,131.858,0,0,0,53.217,34.664,169.419,169.419,0,0,0,56.57,9.592c22.6.129,44.281-3.847,64.791-13.15C408.349,673,433.478,647.371,446.6,610.642a105.034,105.034,0,0,0,3.3-11.9c.617-2.682.347-2.978-2.49-3.088-.515-.012-1.029,0-1.544,0q-54.948,0-109.89-.051c-3.165-.006-5.2.766-7.051,3.648-5.565,8.646-13.671,12.854-24.08,13.15-9.361.263-17.448-2.188-24.055-8.975-3.326-3.423-5.179-7.63-6.53-12.1a79.071,79.071,0,0,1-2.5-12.706c-.611-4.774.155-5.655,4.993-5.662q71.759-.009,143.53,0,14.967-.009,29.941-.006c4.433-.007,4.677-.219,5.385-4.484,3.005-17.988,1.84-35.848-1.866-53.6a143.613,143.613,0,0,0-15.369-41.206,122.632,122.632,0,0,0-42.043-44.326c-20.651-13.009-43.3-20.317-67.545-22.652-29.008-2.8-57.225.225-84.329,11.554-28.1,11.741-49.814,30.726-64.174,57.541-9.1,16.991-14.263,35.448-16.881,54.568-.612,4.485-.907,8.994-1.454,13.478a6.805,6.805,0,0,0-.225.818c-.123.559-.206,1.132-.38,1.672a3.818,3.818,0,0,1-.386.837.8.8,0,0,1-.315.218.363.363,0,0,1-.116.02" fill="#df6040" style="isolation: isolate"/>
    <path id="Path_531" data-name="Path 531" d="M911.67,611.144a97.028,97.028,0,0,1-4.233,23.3c-5.494,17-15.878,30.257-30.758,40.042a99.461,99.461,0,0,1-29.877,12.88,157.127,157.127,0,0,1-28.59,4.49c-5.964.425-11.922.489-17.892.489q-81.477,0-162.959-.006c-4.645-.007-4.041.688-4.041-4.111q-.018-158.166.007-316.339c0-1.216-.277-2.464.283-3.642.984,1.107.888,2.477.894,3.809.02,4.934.007,9.875.007,14.81V685.6c0,5.842,0,5.842,5.906,5.842,56.382,0,112.759.218,169.135-.116,19.976-.116,39.592-3.365,57.721-12.507,23.772-11.985,38.06-31.073,42.313-57.489,2.38-14.823,2.284-29.491-2.721-43.857-8.731-25.052-26.043-41.09-51.211-48.939-1.544-.483-4.13-.187-4.124-2.355,0-1.853,2.452-1.808,3.925-2.348,28.056-10.274,43.548-30.643,47.582-59.87a89.155,89.155,0,0,0-4.632-42.834c-4.986-13.832-13.916-24.531-26-32.8-14.63-10.017-31.087-14.739-48.354-17.377-3.526-.534-7.251.02-10.577-1.743a.748.748,0,0,1-.27-.367.121.121,0,0,1-.019-.064.758.758,0,0,1,.083-.528c.007.193.007.386.007.579,3.57.418,7.154.8,10.718,1.274,13.742,1.84,27,5.359,39.379,11.76a78.271,78.271,0,0,1,23.817,18.323,69.337,69.337,0,0,1,14.957,30.07,100.214,100.214,0,0,1,2.349,28.5c-1.03,18.181-7.392,34.258-19.925,47.64a68.054,68.054,0,0,1-30.346,18.753c-.862.264-1.712.56-2.554.837.115.765.675.772,1.158.887a76.756,76.756,0,0,1,35.338,19.243c11.523,10.963,18.658,24.4,22.029,39.874A88.531,88.531,0,0,1,911.67,611.144Z" fill="#fff"/>
    <path id="Path_532" data-name="Path 532" d="M1212.865,569.127c-1.454,29.111-10.493,55.643-27.515,79.26-22.4,31.074-52.485,50.734-89.85,59.2a166.151,166.151,0,0,1-17.358,2.715c-.013.186-.019.373-.019.559a.605.605,0,0,1-.1-.585.206.206,0,0,1,.025-.058.879.879,0,0,1,.174-.219c2.355-1.2,4.986-1.158,7.508-1.531a147.646,147.646,0,0,0,126.237-139.735c1.628-38.98-10.133-73.4-35.371-102.98-24.286-28.455-55.218-45.42-92.352-50.432-28.127-3.795-55.334-.135-81.306,11.716a146.636,146.636,0,0,0-39.109,26.023q-38.862,35.957-46.424,88.293c-4.047,27.734-.026,54.5,11.091,80.2a143.434,143.434,0,0,0,36.163,50.187c23.115,20.787,50.142,33.4,81.151,37.154a8.564,8.564,0,0,1,3.815,1.1.974.974,0,0,1,.168.212c.012.032.025.058.038.09a.651.651,0,0,1-.116.566c0-.186-.006-.373-.012-.566a204.081,204.081,0,0,1-20.645-3.564,149.2,149.2,0,0,1-96.348-74.589,149.018,149.018,0,0,1,143.157-218.674,145.21,145.21,0,0,1,73.155,26.14Q1196.158,472.775,1209.4,529A142.945,142.945,0,0,1,1212.865,569.127Z" fill="#fff"/>
    <path id="Path_533" data-name="Path 533" d="M1759.7,456.516a.6.6,0,0,1-.766.032.053.053,0,0,1-.026-.013c-.006-.019-.019-.045-.025-.064a14.95,14.95,0,0,0-3.339-4.645q-24.666-24.6-49.281-49.248c-3.043-3.043-3.062-3.043-6.073-.033q-21.259,21.24-42.525,42.487c-1.029,1.023-1.872,2.419-3.513,2.535-.083.006-.167.013-.257.013-.071,0-.154-.007-.232-.013-3.094-1.679-5.6-4.163-8.453-6.176a145.189,145.189,0,0,0-71.09-26.719c-28.764-2.753-56.209,1.976-81.994,15.145a148.752,148.752,0,0,0-76.481,95.221A148.4,148.4,0,0,0,1516.2,703.773a134.6,134.6,0,0,0,25.045,5.153,7.609,7.609,0,0,1,3.513,1.061.871.871,0,0,1,.167.219.3.3,0,0,1,.039.1.643.643,0,0,1-.11.553c-.013-.186-.019-.366-.019-.553a184.438,184.438,0,0,1-23.63-4.291,148.917,148.917,0,0,1,22.942-292.24,145.3,145.3,0,0,1,26.493-.328,147.243,147.243,0,0,1,83.5,33.821,10.936,10.936,0,0,0,2.51-2.258q21.944-21.916,43.869-43.844c2.857-2.857,2.265-2.883,5.134-.02q25.641,25.632,51.275,51.269c.508.514,1,1.042,1.525,1.531a2.227,2.227,0,0,1,.546,2.541C1759.233,456.5,1759.465,456.509,1759.7,456.516Z" fill="#fff"/>
    <path id="Path_534" data-name="Path 534" d="M906.865,577.471c-8.731-25.052-26.043-41.09-51.211-48.939-1.544-.483-4.13-.187-4.124-2.355,0-1.853,2.452-1.808,3.925-2.348,28.056-10.274,43.548-30.643,47.582-59.87a89.155,89.155,0,0,0-4.632-42.834c-4.986-13.832-13.916-24.531-26-32.8-14.63-10.017-31.087-14.739-48.354-17.377-3.526-.534-7.251.02-10.577-1.743a.748.748,0,0,1-.27-.367,6.3,6.3,0,0,1-2.381-.058c-.81-.006-1.627-.006-2.444-.006-1.017,0-2.033,0-3.05.006-1.286,0-2.65.515-3.789-.534H633.61c.984,1.107.888,2.477.894,3.809.02,4.934.007,9.875.007,14.81V685.6c0,5.842,0,5.842,5.906,5.842,56.382,0,112.759.218,169.135-.116,19.976-.116,39.592-3.365,57.721-12.507,23.772-11.985,38.06-31.073,42.313-57.489C911.966,606.505,911.87,591.837,906.865,577.471ZM734.86,476.273V452.527c0-.817.006-1.641.025-2.464a.89.89,0,0,1,.914-.991c.817-.032,1.64-.038,2.464-.038H758v-.084c6.067,0,12.127.045,18.194-.013a30.684,30.684,0,0,1,16.154,4.349,14.877,14.877,0,0,1,4.523,4.111,21.031,21.031,0,0,1,4.207,10.763c.335,3.9.444,7.8-.7,11.613-1.621,5.378-4.761,9.463-9.985,11.856a32.359,32.359,0,0,1-13.7,3.153q-19.27-.029-38.549-.071c-.514,0-1.029.013-1.537,0-1.66-.051-1.737-.09-1.737-1.782C734.847,487.377,734.86,481.825,734.86,476.273Zm72.949,117.745a21.1,21.1,0,0,1-5.327,10.576,10.9,10.9,0,0,1-2.683,2.04,32.329,32.329,0,0,1-16.483,4.336c-7.295-.045-14.591-.013-21.886-.013v-.083q-11.56,0-23.122,0c-.817,0-1.64,0-2.464-.033a.893.893,0,0,1-.952-.945c-.026-.618-.032-1.236-.032-1.853q0-20.034,0-40.074c0-2.985-.116-2.773,2.9-2.773h43.465a40.494,40.494,0,0,1,12.159,1.666c8.646,2.689,13.536,8.673,14.4,17.634A33.491,33.491,0,0,1,807.809,594.018Z" fill="#282870"/>
    <path id="Path_535" data-name="Path 535" d="M911.67,611.144a97.028,97.028,0,0,1-4.233,23.3c-5.494,17-15.878,30.257-30.758,40.042a99.461,99.461,0,0,1-29.877,12.88,157.127,157.127,0,0,1-28.59,4.49c-5.964.425-11.922.489-17.892.489q-81.477,0-162.959-.006c-4.645-.007-4.041.688-4.041-4.111q-.018-158.166.007-316.339c0-1.216-.277-2.464.283-3.642.984,1.107.888,2.477.894,3.809.02,4.934.007,9.875.007,14.81V685.6c0,5.842,0,5.842,5.906,5.842,56.382,0,112.759.218,169.135-.116,19.976-.116,39.592-3.365,57.721-12.507,23.772-11.985,38.06-31.073,42.313-57.489,2.38-14.823,2.284-29.491-2.721-43.857-8.731-25.052-26.043-41.09-51.211-48.939-1.544-.483-4.13-.187-4.124-2.355,0-1.853,2.452-1.808,3.925-2.348,28.056-10.274,43.548-30.643,47.582-59.87a89.155,89.155,0,0,0-4.632-42.834c-4.986-13.832-13.916-24.531-26-32.8-14.63-10.017-31.087-14.739-48.354-17.377-3.526-.534-7.251.02-10.577-1.743a.748.748,0,0,1-.27-.367,6.3,6.3,0,0,1-2.381-.058c-.81-.006-1.627-.006-2.444-.006-1.017,0-2.033,0-3.05.006-1.286,0-2.65.515-3.789-.534,1.2.663,2.5.167,3.744.309.013,0,.032.006.045.006h5.488c.791.078,1.615-.186,2.368.213a.756.756,0,0,1,.09.051c3.57.418,7.154.8,10.718,1.274,13.742,1.84,27,5.359,39.379,11.76a78.271,78.271,0,0,1,23.817,18.323,69.337,69.337,0,0,1,14.957,30.07,100.214,100.214,0,0,1,2.349,28.5c-1.03,18.181-7.392,34.258-19.925,47.64a68.054,68.054,0,0,1-30.346,18.753c-.862.264-1.712.56-2.554.837.115.765.675.772,1.158.887a76.756,76.756,0,0,1,35.338,19.243c11.523,10.963,18.658,24.4,22.029,39.874A88.531,88.531,0,0,1,911.67,611.144Z" fill="#2050bf" style="isolation: isolate"/>
    <path id="Path_536" data-name="Path 536" d="M1759.7,456.516a.6.6,0,0,1-.766.032c-.663.6-1.357,1.158-1.981,1.788q-27.05,26.973-54.074,53.971c-.868.868-1.653,1.814-2.483,2.727a80.035,80.035,0,0,1,3.6,12.089,145.248,145.248,0,0,1,3.687,45.626c-2.381,31.466-13.517,59.554-33.647,83.886-21.276,25.708-48.283,42.422-80.721,50.316a146.836,146.836,0,0,1-17.608,3.043c-.611.071-1.216.193-1.827.289-.007.193-.013.386-.007.579a.655.655,0,0,1-.1-.6c.007-.026.02-.045.026-.064a.854.854,0,0,1,.161-.226,6.527,6.527,0,0,1,3.468-1.119c28.841-3.538,54.33-14.765,76.66-33.306a145.984,145.984,0,0,0,37.379-46.906,141.724,141.724,0,0,0,14.977-52.131c1.415-16.488.74-32.823-3.172-48.971-.965-3.995-2.329-7.881-3.255-11.883a2.494,2.494,0,0,1,.006-.3,2.587,2.587,0,0,1,.039-.322,5.465,5.465,0,0,1,1.9-2.721q27.106-27.126,54.247-54.228c.746-.746,1.4-1.762,2.683-1.614l.115.019C1759.233,456.5,1759.465,456.509,1759.7,456.516Z" fill="#fff"/>
    <path id="Path_537" data-name="Path 537" d="M1070.094,710.862h-12.963a.748.748,0,0,1-.052-.579v-.006a.776.776,0,0,1,.328-.386,28.533,28.533,0,0,1,12.41-.007.758.758,0,0,1,.335.386.026.026,0,0,1,.006.02A.764.764,0,0,1,1070.094,710.862Z" fill="#32337a"/>
    <path id="Path_538" data-name="Path 538" d="M1565.226,710.862h-12.964a.745.745,0,0,1-.051-.579v-.006a.755.755,0,0,1,.334-.386,28.505,28.505,0,0,1,12.4-.007.743.743,0,0,1,.335.393.02.02,0,0,1,.006.013A.769.769,0,0,1,1565.226,710.862Z" fill="#31327a"/>
    <path id="Path_539" data-name="Path 539" d="M805.454,368.557v.013c-.032.135-.077.206-.129.206-1.286,0-2.65.515-3.789-.534h3.706C805.409,368.332,805.48,368.435,805.454,368.557Z" fill="#38397e"/>
    <path id="Path_540" data-name="Path 540" d="M808.542,368.557c0,.007-.006.013-.006.02-.052.128-.1.193-.161.193-1.017,0-2.033,0-3.05.006-.019-.077-.032-.148-.045-.225a2.5,2.5,0,0,1-.038-.309h3.088C808.5,368.332,808.574,368.442,808.542,368.557Z" fill="#7a7ba9"/>
    <path id="Path_541" data-name="Path 541" d="M1078.142,710.3c-.013.186-.019.373-.019.559h-3.088a.7.7,0,0,1-.1-.514.321.321,0,0,1,.038-.1.742.742,0,0,1,.251-.29,2.269,2.269,0,0,1,2.824.264A.465.465,0,0,1,1078.142,710.3Z" fill="#c3c4d8"/>
    <path id="Path_542" data-name="Path 542" d="M160.635,547.2a1.429,1.429,0,0,0,.007.173" fill="#eacbcd"/>
    <path id="Path_543" data-name="Path 543" d="M813.271,368.821a.254.254,0,0,1-.071.013,6.3,6.3,0,0,1-2.381-.058.444.444,0,0,1-.238-.219.159.159,0,0,1,.013-.128c.065-.129.135-.187.206-.187h2.464C813.271,368.435,813.271,368.628,813.271,368.821Z" fill="#e9eaf1"/>
    <path id="Path_544" data-name="Path 544" d="M810.819,368.776c-.81-.006-1.627-.006-2.444-.006a1.192,1.192,0,0,1-.026-.213,2.549,2.549,0,0,1-.019-.315h2.47c.007.1.007.206.013.315C810.813,368.628,810.819,368.7,810.819,368.776Z" fill="#bcbdd4"/>
    <path id="Path_545" data-name="Path 545" d="M1052.19,710.862h-2.471c0-.186-.006-.373-.012-.566a1.089,1.089,0,0,1,.09-.09,1.792,1.792,0,0,1,2.238-.225.64.64,0,0,1,.213.251.258.258,0,0,1,.045.1A.656.656,0,0,1,1052.19,710.862Z" fill="#d1d1e1"/>
    <path id="Path_546" data-name="Path 546" d="M1054.66,710.862h-2.47a4.784,4.784,0,0,0-.032-.527,1.325,1.325,0,0,1,.09-.1,1.77,1.77,0,0,1,2.245-.258.818.818,0,0,1,.232.264.312.312,0,0,1,.038.11A.651.651,0,0,1,1054.66,710.862Z" fill="#9899bc"/>
    <path id="Path_547" data-name="Path 547" d="M1057.131,710.862h-2.471c-.019-.173-.038-.341-.058-.508a.707.707,0,0,1,.123-.116,1.567,1.567,0,0,1,2.354.039v.006h.007A3.531,3.531,0,0,1,1057.131,710.862Z" fill="#616199"/>
    <path id="Path_548" data-name="Path 548" d="M1072.565,710.862h-2.471c.007-.193.019-.379.039-.572l.019-.02a1.75,1.75,0,0,1,2.271-.283.728.728,0,0,1,.238.322.1.1,0,0,1,.013.039A.637.637,0,0,1,1072.565,710.862Z" fill="#52538f"/>
    <path id="Path_549" data-name="Path 549" d="M1075.086,710.348c-.019.173-.038.341-.051.514h-2.47c.019-.173.038-.341.057-.514l.039-.039a1.5,1.5,0,0,1,2.316-.064A1.319,1.319,0,0,1,1075.086,710.348Z" fill="#8080ad"/>
    <path id="Path_550" data-name="Path 550" d="M1552.262,710.862h-2.47a.635.635,0,0,1-.1-.54.055.055,0,0,1,.019-.039.7.7,0,0,1,.219-.289,1.745,1.745,0,0,1,2.284.283v.006h.006A3.531,3.531,0,0,1,1552.262,710.862Z" fill="#5f6097"/>
    <path id="Path_551" data-name="Path 551" d="M1567.7,710.862h-2.47c.006-.193.025-.379.045-.572l.013-.013a1.744,1.744,0,0,1,2.277-.29.711.711,0,0,1,.232.322.048.048,0,0,1,.013.039A.658.658,0,0,1,1567.7,710.862Z" fill="#545490"/>
    <path id="Path_552" data-name="Path 552" d="M1573.879,710.283c-.007.193-.013.386-.007.579h-2.47a.648.648,0,0,1-.1-.514.245.245,0,0,1,.032-.09.687.687,0,0,1,.225-.277,1.792,1.792,0,0,1,2.239.219A.923.923,0,0,1,1573.879,710.283Z" fill="#dadae7"/>
    <path id="Path_553" data-name="Path 553" d="M1546.7,710.862h-1.847c-.013-.186-.019-.366-.019-.553.032-.039.064-.071.09-.1a1.346,1.346,0,0,1,1.666-.187.774.774,0,0,1,.181.206.327.327,0,0,1,.045.1A.615.615,0,0,1,1546.7,710.862Z" fill="#d6d6e4"/>
    <path id="Path_554" data-name="Path 554" d="M1548.679,710.348a.645.645,0,0,1-.122.514H1546.7c0-.18-.007-.354-.02-.534a.733.733,0,0,1,.091-.1,1.3,1.3,0,0,1,1.659-.206.826.826,0,0,1,.2.232A.654.654,0,0,1,1548.679,710.348Z" fill="#acacc9"/>
    <path id="Path_555" data-name="Path 555" d="M1569.678,710.367a.605.605,0,0,1-.129.495H1567.7c.019-.173.045-.341.064-.514.013-.013.02-.026.033-.039a1.22,1.22,0,0,1,1.659-.277.656.656,0,0,1,.206.271C1569.665,710.322,1569.671,710.341,1569.678,710.367Z" fill="#8383af"/>
    <path id="Path_556" data-name="Path 556" d="M1571.427,710.348c-.006.173-.012.341-.025.514h-1.853c.019-.167.039-.328.045-.495l.064-.064a1.091,1.091,0,0,1,1.673-.045A.99.99,0,0,1,1571.427,710.348Z" fill="#b1b1cd"/>
    <path id="Path_557" data-name="Path 557" d="M1549.792,710.862h-1.235c-.007-.173-.013-.341-.033-.508a1.467,1.467,0,0,1,.11-.1.75.75,0,0,1,1.074.032c.019.007.032.026.052.039A3.157,3.157,0,0,1,1549.792,710.862Z" fill="#8585af"/>
    <path id="Path_558" data-name="Path 558" d="M456.542,525.74a153.612,153.612,0,0,0-11.361-40.216c-10.731-24.7-27.523-44.262-50.535-58.236-22.125-13.433-46.347-20.374-72.126-22.015-4.516-.289-9.039-.354-13.568-.354a176.672,176.672,0,0,0-26.139,1.737,163.826,163.826,0,0,0-36.227,9.792,129.754,129.754,0,0,0-51.667,36.426,113.66,113.66,0,0,0-16.174,23.978,174.435,174.435,0,0,0-17.518,67.274c.032.734.122,1.461.116,2.194,0,.077,0,.155-.006.238q-.348,7.5,0,15c.006.083.006.167.006.251.013.727-.077,1.454-.109,2.181.205,4.213.662,8.4,1.183,12.59a171.956,171.956,0,0,0,8.216,35.043,138.517,138.517,0,0,0,10.19,23.437,124.75,124.75,0,0,0,41.3,43.8c23.186,14.913,48.8,22.344,76.21,23.913,4,.232,8.017.116,12.031.161a148.637,148.637,0,0,0,40.267-5.089c25.464-6.819,47.788-19.158,66.348-38.034a126.924,126.924,0,0,0,34.2-62.45,3.637,3.637,0,0,0,.141-2.393,6.948,6.948,0,0,0-3.037-.238q-57.244-.02-114.5-.013c-.714,0-1.435.032-2.155.007a1.478,1.478,0,0,0-1.5.855c-.328.637-.631,1.3-.991,1.917a27.7,27.7,0,0,1-18.007,13.446,32.759,32.759,0,0,1-11.047.56c-11.47-1.152-19.956-6.543-24.061-17.756-.424-1.158-.785-2.336-1.138-3.519a67.4,67.4,0,0,1-2.31-12.726c-.367-3.789-.56-3.448,3.287-3.461h174.99c.927,0,1.853.019,2.773-.006,1.615-.045,1.795-.168,2.11-1.647a100.018,100.018,0,0,0,1.86-12.185A155.172,155.172,0,0,0,456.542,525.74Zm-182.774-1.332a52.088,52.088,0,0,1,2.9-9.721c4.413-10.628,12.314-16.991,23.566-19.1a44.77,44.77,0,0,1,16.862-.174,32.2,32.2,0,0,1,14.932,6.955,28.375,28.375,0,0,1,8.865,14.514,29.111,29.111,0,0,1,.978,8.241c-.026,1.821-.167,1.949-1.891,1.988-.927.026-1.853.013-2.78.013H307.6q-15.73,0-31.46-.007C273.324,527.116,273.234,527.039,273.768,524.408Z" fill="#c10018"/>
    <path id="Path_559" data-name="Path 559" d="M1706.44,576.512a141.724,141.724,0,0,1-14.977,52.131,145.984,145.984,0,0,1-37.379,46.906c-22.33,18.541-47.819,29.768-76.66,33.306a6.527,6.527,0,0,0-3.468,1.119.854.854,0,0,0-.161.226,1.792,1.792,0,0,0-2.239-.219.687.687,0,0,0-.225.277,1.091,1.091,0,0,0-1.673.045.656.656,0,0,0-.206-.271,1.22,1.22,0,0,0-1.659.277.711.711,0,0,0-.232-.322,1.744,1.744,0,0,0-2.277.29.743.743,0,0,0-.335-.393,28.505,28.505,0,0,0-12.4.007.755.755,0,0,0-.334.386,1.745,1.745,0,0,0-2.284-.283.7.7,0,0,0-.219.289.75.75,0,0,0-1.074-.032.826.826,0,0,0-.2-.232,1.3,1.3,0,0,0-1.659.206.774.774,0,0,0-.181-.206,1.346,1.346,0,0,0-1.666.187.871.871,0,0,0-.167-.219,7.609,7.609,0,0,0-3.513-1.061,134.6,134.6,0,0,1-25.045-5.153,148.565,148.565,0,0,1-100.555-178.735,148.752,148.752,0,0,1,76.481-95.221c25.785-13.169,53.23-17.9,81.994-15.145a145.189,145.189,0,0,1,71.09,26.719c2.856,2.013,5.359,4.5,8.453,6.176.078.006.161.013.232.013a17.307,17.307,0,0,1-1.132,1.331q-44.728,44.729-89.464,89.445c-.482.482-.843,1.17-1.872,1.216-2.226-2.22-4.548-4.542-6.871-6.865s-4.658-4.651-6.987-6.98-4.651-4.658-6.98-6.981-4.658-4.657-6.98-6.986-4.658-4.652-6.987-6.981-4.651-4.651-6.98-6.98-4.632-4.677-6.987-6.974c-2.335-2.277-4.491-4.754-7.083-6.884-.476.412-.882.721-1.242,1.075q-26.953,26.934-53.912,53.874c-1.705,1.7-1.692,1.692,0,3.351.148.142.289.29.437.438q54.214,54.215,108.443,108.429c2.425,2.426,1.994,2.413,4.451-.038q45.116-45,90.223-89.991,22.176-22.119,44.352-44.23c.534-.534,1.12-1.01,1.692-1.493a2.494,2.494,0,0,0-.006.3c.926,4,2.29,7.888,3.255,11.883C1707.18,543.689,1707.855,560.024,1706.44,576.512Z" fill="#282870"/>
    <path id="Path_560" data-name="Path 560" d="M1703.995,527.123a80.035,80.035,0,0,0-3.6-12.089,3.241,3.241,0,0,0-.341,0c-1.357.084-2.046,1.255-2.9,2.085-26.589,26.21-52.606,52.986-79.46,78.932-18.123,17.512-35.7,35.59-53.526,53.4-2.618,2.612-2.683,2.618-5.127.174q-53.366-53.346-106.712-106.706c-2.387-2.386-2.387-2.509.006-4.9q25.419-25.428,50.85-50.844c2.426-2.425,2.484-2.431,4.883-.032q14.852,14.823,29.684,29.671,10.692,10.694,21.4,21.372c2.387,2.374,2.921,2.349,5.308.052,1.923-1.859,3.789-3.777,5.68-5.668q40.811-40.8,81.6-81.628c.965-.971,2.457-1.7,2.412-3.377a1.486,1.486,0,0,0-.013-.3,147.243,147.243,0,0,0-83.5-33.821,145.3,145.3,0,0,0-26.493.328,148.945,148.945,0,0,0-22.942,292.24,184.438,184.438,0,0,0,23.63,4.291h.129l1.717.019h.136c.566.013,1.138.02,1.7.026a1.341,1.341,0,0,0,.155-.006c.334-.007.675-.013,1.01-.026h.071l2.451-.039h.006q6.534,0,13.054.007h.019l2.47.058h.046l1.788.019h.084l1.621-.019h.128a6.366,6.366,0,0,1,2.342-.084.7.7,0,0,1,.11.019c.611-.1,1.216-.218,1.827-.289a146.836,146.836,0,0,0,17.608-3.043c32.438-7.894,59.445-24.608,80.721-50.316,20.13-24.332,31.266-52.42,33.647-83.886A145.248,145.248,0,0,0,1703.995,527.123Zm2.445,49.389a141.724,141.724,0,0,1-14.977,52.131,145.984,145.984,0,0,1-37.379,46.906c-22.33,18.541-47.819,29.768-76.66,33.306a6.527,6.527,0,0,0-3.468,1.119.854.854,0,0,0-.161.226,1.792,1.792,0,0,0-2.239-.219.687.687,0,0,0-.225.277,1.091,1.091,0,0,0-1.673.045.656.656,0,0,0-.206-.271,1.22,1.22,0,0,0-1.659.277.711.711,0,0,0-.232-.322,1.744,1.744,0,0,0-2.277.29.743.743,0,0,0-.335-.393,28.505,28.505,0,0,0-12.4.007.755.755,0,0,0-.334.386,1.745,1.745,0,0,0-2.284-.283.7.7,0,0,0-.219.289.75.75,0,0,0-1.074-.032.826.826,0,0,0-.2-.232,1.3,1.3,0,0,0-1.659.206.774.774,0,0,0-.181-.206,1.346,1.346,0,0,0-1.666.187.871.871,0,0,0-.167-.219,7.609,7.609,0,0,0-3.513-1.061,134.6,134.6,0,0,1-25.045-5.153,148.565,148.565,0,0,1-100.555-178.735,148.752,148.752,0,0,1,76.481-95.221c25.785-13.169,53.23-17.9,81.994-15.145a145.189,145.189,0,0,1,71.09,26.719c2.856,2.013,5.359,4.5,8.453,6.176.078.006.161.013.232.013a17.307,17.307,0,0,1-1.132,1.331q-44.728,44.729-89.464,89.445c-.482.482-.843,1.17-1.872,1.216-2.226-2.22-4.548-4.542-6.871-6.865s-4.658-4.651-6.987-6.98-4.651-4.658-6.98-6.981-4.658-4.657-6.98-6.986-4.658-4.652-6.987-6.981-4.651-4.651-6.98-6.98-4.632-4.677-6.987-6.974c-2.335-2.277-4.491-4.754-7.083-6.884-.476.412-.882.721-1.242,1.075q-26.953,26.934-53.912,53.874c-1.705,1.7-1.692,1.692,0,3.351.148.142.289.29.437.438q54.214,54.215,108.443,108.429c2.425,2.426,1.994,2.413,4.451-.038q45.116-45,90.223-89.991,22.176-22.119,44.352-44.23c.534-.534,1.12-1.01,1.692-1.493a2.494,2.494,0,0,0-.006.3c.926,4,2.29,7.888,3.255,11.883C1707.18,543.689,1707.855,560.024,1706.44,576.512Z" fill="#2050bf" style="isolation: isolate"/>
    <path id="Path_561" data-name="Path 561" d="M1395.093,692.347c-13.073-.013-26.139.083-39.205-.032A143.593,143.593,0,0,1,1316,686.737a87.455,87.455,0,0,1-30.3-15.453,78.664,78.664,0,0,1-23.592-32.264,114.991,114.991,0,0,1-6.877-25.219,168.56,168.56,0,0,1-1.969-27.046q.03-31.788.007-63.582c0-.824.019-1.647-.007-2.471-.045-1.6-.154-1.743-1.8-1.743-8.64-.02-17.287,0-25.927-.02-1.319-.006-2.953.534-3.879-.289-1.087-.971-.425-2.715-.431-4.111q-.048-38.264-.013-76.539c0-4.207-.444-3.66,3.532-3.673,8.331-.026,16.669-.007,25-.007.721,0,1.441.013,2.162-.013,1.049-.045,1.306-.27,1.345-1.241.038-.817.019-1.641.019-2.464q0-27.474.006-54.942c0-4.285-.489-3.674,3.828-3.68q23.46-.039,46.919-.013h48.148c2.7-.006,2.625-.154,2.606,2.76v1.847q0,27.165.006,54.324c0,3.834-.405,3.416,3.494,3.416q17.592.02,35.191.006c.823,0,1.647.013,2.464.039a.775.775,0,0,1,.817.74c.051.508.071,1.023.071,1.537q.009,39.972.006,79.936c0,2.451.013,2.38-2.355,2.38q-17.9-.009-35.8,0c-.823,0-1.647-.019-2.47.007-1.223.045-1.364.2-1.409,1.5-.032.817-.013,1.64-.013,2.464q0,31.952.006,63.89c0,2.355-.3,4.735.406,7.058.115.392.148.811.263,1.2,1.339,4.51,3.976,7.823,8.538,9.425a23.755,23.755,0,0,0,8.151,1.441c7.611-.071,15.228-.058,22.839-.077.617,0,1.235-.007,1.846.038a.932.932,0,0,1,.914,1.017c.019.823.025,1.647.025,2.47q.01,19.6.007,39.193,0,20.526,0,41.052C1397.776,692.373,1397.879,692.347,1395.093,692.347Z" fill="#282870"/>
    <path id="Path_562" data-name="Path 562" d="M1758.886,456.471c-1.287-.148-1.937.868-2.683,1.614q-27.147,27.089-54.247,54.228a5.465,5.465,0,0,0-1.9,2.721c-1.357.084-2.046,1.255-2.9,2.085-26.589,26.21-52.606,52.986-79.46,78.932-18.123,17.512-35.7,35.59-53.526,53.4-2.618,2.612-2.683,2.618-5.127.174q-53.366-53.346-106.712-106.706c-2.387-2.386-2.387-2.509.006-4.9q25.419-25.428,50.85-50.844c2.426-2.425,2.484-2.431,4.883-.032q14.852,14.823,29.684,29.671,10.692,10.694,21.4,21.372c2.387,2.374,2.921,2.349,5.308.052,1.923-1.859,3.789-3.777,5.68-5.668q40.811-40.8,81.6-81.628c.965-.971,2.457-1.7,2.412-3.377,1.641-.116,2.484-1.512,3.513-2.535q21.288-21.221,42.525-42.487c3.011-3.01,3.03-3.01,6.073.033q24.638,24.627,49.281,49.248A14.95,14.95,0,0,1,1758.886,456.471Z" fill="#ffb500"/>
    <path id="Path_563" data-name="Path 563" d="M1758.455,453.949c-.528-.489-1.017-1.017-1.525-1.531q-25.632-25.632-51.275-51.269c-2.869-2.863-2.277-2.837-5.134.02q-21.944,21.915-43.869,43.844a10.936,10.936,0,0,1-2.51,2.258c-.083.1-.167.206-.244.309a17.307,17.307,0,0,1-1.132,1.331q-44.728,44.729-89.464,89.445c-.482.482-.843,1.17-1.872,1.216-2.226-2.22-4.548-4.542-6.871-6.865s-4.658-4.651-6.987-6.98-4.651-4.658-6.98-6.981-4.658-4.657-6.98-6.986-4.658-4.652-6.987-6.981-4.651-4.651-6.98-6.98-4.632-4.677-6.987-6.974c-2.335-2.277-4.491-4.754-7.083-6.884-.476.412-.882.721-1.242,1.075q-26.953,26.934-53.912,53.874c-1.705,1.7-1.692,1.692,0,3.351.148.142.289.29.437.438q54.214,54.215,108.443,108.429c2.425,2.426,1.994,2.413,4.451-.038q45.116-45,90.223-89.991,22.176-22.119,44.352-44.23c.534-.534,1.12-1.01,1.692-1.493.129-.1.258-.212.38-.322.83-.913,1.615-1.859,2.483-2.727q27.021-27,54.074-53.971c.624-.63,1.318-1.19,1.981-1.788.019-.019.045-.039.064-.058A2.227,2.227,0,0,0,1758.455,453.949Zm-2.252,4.136q-27.147,27.089-54.247,54.228a5.465,5.465,0,0,0-1.9,2.721c-1.357.084-2.046,1.255-2.9,2.085-26.589,26.21-52.606,52.986-79.46,78.932-18.123,17.512-35.7,35.59-53.526,53.4-2.618,2.612-2.683,2.618-5.127.174q-53.366-53.346-106.712-106.706c-2.387-2.386-2.387-2.509.006-4.9q25.419-25.428,50.85-50.844c2.426-2.425,2.484-2.431,4.883-.032q14.852,14.823,29.684,29.671,10.692,10.694,21.4,21.372c2.387,2.374,2.921,2.349,5.308.052,1.923-1.859,3.789-3.777,5.68-5.668q40.811-40.8,81.6-81.628c.965-.971,2.457-1.7,2.412-3.377,1.641-.116,2.484-1.512,3.513-2.535q21.288-21.221,42.525-42.487c3.011-3.01,3.03-3.01,6.073.033q24.638,24.627,49.281,49.248a14.95,14.95,0,0,1,3.339,4.645C1757.6,456.323,1756.949,457.339,1756.2,458.085Z" fill="#ffbf40" style="isolation: isolate"/>
    <path id="Path_564" data-name="Path 564" d="M1176.6,465.754c-24.286-28.455-55.218-45.42-92.352-50.432-28.127-3.795-55.334-.135-81.306,11.716a146.636,146.636,0,0,0-39.109,26.023q-38.862,35.957-46.424,88.293c-4.047,27.734-.026,54.5,11.091,80.2a143.434,143.434,0,0,0,36.163,50.187c23.115,20.787,50.142,33.4,81.151,37.154a8.564,8.564,0,0,1,3.815,1.1.974.974,0,0,1,.168.212,1.792,1.792,0,0,1,2.238-.225.64.64,0,0,1,.213.251,1.77,1.77,0,0,1,2.245-.258.818.818,0,0,1,.232.264,1.567,1.567,0,0,1,2.354.039.776.776,0,0,1,.328-.386,28.533,28.533,0,0,1,12.41-.007.758.758,0,0,1,.335.386,1.75,1.75,0,0,1,2.271-.283.728.728,0,0,1,.238.322,1.5,1.5,0,0,1,2.316-.064.742.742,0,0,1,.251-.29,2.269,2.269,0,0,1,2.824.264.879.879,0,0,1,.174-.219c2.355-1.2,4.986-1.158,7.508-1.531a147.646,147.646,0,0,0,126.237-139.735C1213.6,529.754,1201.838,495.329,1176.6,465.754Zm-27.715,180.967c-23.322,23.321-51.7,34.644-74.287,35.12-76.044.4-130.368-53.031-130.381-119.508-.006-33.01,11.664-61.555,35.011-84.909,23.321-23.321,51.706-35.165,84.806-35.21,33.126-.051,61.549,11.863,84.876,35.1,23.367,23.276,34.728,51.924,35.294,84.876C1183.471,594.976,1172.2,623.4,1148.885,646.721Z" fill="#282870"/>
    <path id="Path_565" data-name="Path 565" d="M1148.91,477.309c23.367,23.276,34.728,51.924,35.294,84.876-.733,32.791-12,61.214-35.319,84.536s-51.7,34.644-74.287,35.12c-76.044.4-130.368-53.031-130.381-119.508-.006-33.01,11.664-61.555,35.011-84.909,23.321-23.321,51.706-35.165,84.806-35.21C1097.16,442.163,1125.583,454.077,1148.91,477.309Z" fill="#2050bf" style="isolation: isolate"/>
    <path id="Path_566" data-name="Path 566" d="M1209.4,529q-13.211-56.115-60.378-89.392a145.21,145.21,0,0,0-73.155-26.14,148.954,148.954,0,0,0-46.809,293.263,204.081,204.081,0,0,0,20.645,3.564h.128l2.323.039h.135l2.309.019c.052,0,.11-.006.161-.006.766-.02,1.544-.039,2.316-.065h.007q6.523.01,13.047.007h.025l2.464.058h2.464a10.692,10.692,0,0,1,2.941-.071c.038.006.077.019.115.026a166.151,166.151,0,0,0,17.358-2.715c37.365-8.467,67.455-28.127,89.85-59.2,17.022-23.617,26.061-50.149,27.515-79.26A142.945,142.945,0,0,0,1209.4,529Zm2.567,39.733a144.4,144.4,0,0,1-7.99,41.94,148.221,148.221,0,0,1-118.247,97.795c-2.522.373-5.153.335-7.508,1.531a.879.879,0,0,0-.174.219,2.269,2.269,0,0,0-2.824-.264.742.742,0,0,0-.251.29,1.5,1.5,0,0,0-2.316.064.728.728,0,0,0-.238-.322,1.75,1.75,0,0,0-2.271.283.758.758,0,0,0-.335-.386,28.533,28.533,0,0,0-12.41.007.776.776,0,0,0-.328.386,1.567,1.567,0,0,0-2.354-.039.818.818,0,0,0-.232-.264,1.77,1.77,0,0,0-2.245.258.64.64,0,0,0-.213-.251,1.792,1.792,0,0,0-2.238.225.974.974,0,0,0-.168-.212,8.564,8.564,0,0,0-3.815-1.1c-31.009-3.751-58.036-16.367-81.151-37.154A143.434,143.434,0,0,1,928.5,621.553c-11.117-25.7-15.138-52.465-11.091-80.2q7.614-52.227,46.424-88.293a146.636,146.636,0,0,1,39.109-26.023c25.972-11.851,53.179-15.511,81.306-11.716,37.134,5.012,68.066,21.977,92.352,50.432C1201.838,495.329,1213.6,529.754,1211.971,568.734Z" fill="#282870"/>
    <path id="Path_567" data-name="Path 567" d="M610.1,562.089c0,3.4.27,3.075-3.211,3.081H547.646q-29.461,0-58.93-.006c-3.712,0-3.32.412-3.32-3.255q-.009-29.154,0-58.307c0-3.4-.238-3.107,3.2-3.107H606.757c3.654,0,3.339-.328,3.339,3.287Q610.1,532.936,610.1,562.089Z" fill="#282870"/>
    <path id="Path_568" data-name="Path 568" d="M1184.2,562.185c-.733,32.791-12,61.214-35.319,84.536s-51.7,34.644-74.287,35.12c-76.044.4-130.368-53.031-130.381-119.508-.006-33.01,11.664-61.555,35.011-84.909,23.321-23.321,51.706-35.165,84.806-35.21,33.126-.051,61.549,11.863,84.876,35.1C1172.277,500.585,1183.638,529.233,1184.2,562.185Z" fill="#c10018"/>
    <path id="Path_569" data-name="Path 569" d="M1158.474,562.107c.305,50.868-41.076,94.324-94.363,94.317-25.96,0-48.376-9.377-66.777-27.8s-27.667-40.936-27.639-66.851c.027-25.82,9.373-48.292,27.7-66.529,18.471-18.378,41.013-27.658,67.18-27.618C1116.625,467.708,1158.854,510.574,1158.474,562.107Z" fill="#ffb500"/>
    <path id="Path_570" data-name="Path 570" d="M992.725,561.815a71.442,71.442,0,1,1,142.883.408c-.061,37.828-30.467,71.378-71.683,71.248A71.136,71.136,0,0,1,992.725,561.815Z" fill="#fff"/>
    <path id="Path_571" data-name="Path 571" d="M1062.631,599.854q-8.015,0-16.029,0c-.822,0-1.646.018-2.465-.03a.935.935,0,0,1-.988-.949c-.005-.1-.025-.205-.025-.307,0-6.267-.172-12.54.045-18.8a19.387,19.387,0,0,1,38.753.147c.064,6.164,0,12.329.016,18.493,0,1.181-.342,1.45-1.429,1.447q-8.94-.02-17.878-.006Z" fill="#2050bf" style="isolation: isolate"/>
    <path id="Path_572" data-name="Path 572" d="M1078.736,539.706a15.429,15.429,0,1,1-15.347-15.565A15.414,15.414,0,0,1,1078.736,539.706Z" fill="#2050bf" style="isolation: isolate"/>
    <path id="Path_573" data-name="Path 573" d="M1100.325,599.69c-4.106,0-8.213.014-12.319-.007-1.811-.009-1.836-.045-1.853-1.956-.022-2.361-.04-4.723.008-7.083a14.195,14.195,0,0,1,28.345-.266c.138,2.662.046,5.337.022,8.006-.009,1.032-.254,1.285-1.267,1.29-4.312.021-8.624.009-12.936.009Z" fill="#2050bf" style="isolation: isolate"/>
    <path id="Path_574" data-name="Path 574" d="M1026.5,553.876a12.655,12.655,0,0,1-.079,25.309,12.655,12.655,0,1,1,.079-25.309Z" fill="#2050bf" style="isolation: isolate"/>
    <path id="Path_575" data-name="Path 575" d="M1100.2,568.975a9.717,9.717,0,1,1,9.862-9.672A9.575,9.575,0,0,1,1100.2,568.975Z" fill="#2050bf" style="isolation: isolate"/>
    <path id="Path_576" data-name="Path 576" d="M1026.095,600.235l-8.635,0a1.012,1.012,0,0,1-1.137-1.127c0-2.158-.121-4.329.067-6.471a10.05,10.05,0,0,1,19.761-.979,31.966,31.966,0,0,1,.232,7.684.907.907,0,0,1-1.036.887Q1030.721,600.24,1026.095,600.235Z" fill="#2050bf" style="isolation: isolate"/>
  </g>
</svg>